M48
METRIC,LZ,000.000
;FILE_FORMAT=3:3
;TYPE=PLATED
;Layer: PTH_Through
;EasyEDA v6.5.3, 2022-05-09 11:27:13
;baffbd41b27947a08c2bb0c717e604c5,b03e5731a7a74599b12e1065cb71c7ef,10
;Gerber Generator version 0.2
;Holesize 1 = 0.305 mm
T01C0.305
;Holesize 2 = 1.016 mm
T02C1.016
%
G05
G90
T01
X024130Y-003429
X057404Y-010287
X047117Y-003302
X047117Y-004064
X047625Y-013843
X047117Y-005334
X047117Y-006175
X047117Y-007112
X044196Y-008675
X034544Y-008636
X027813Y-014859
X028448Y-006096
X029083Y-005207
X032639Y-010668
X026924Y-003937
X033528Y-011303
X052324Y-012446
X054864Y-011303
X037973Y-010922
X033274Y-007112
X037338Y-009525
X033020Y-003810
X051435Y-008509
T02
X060074Y-001270G85X060068Y-001270
X057534Y-001270G85X057528Y-001270
X054994Y-001270G85X054988Y-001270
X052454Y-001270G85X052448Y-001270
X049914Y-001270G85X049908Y-001270
X047374Y-001270G85X047368Y-001270
X044834Y-001270G85X044828Y-001270
X042294Y-001270G85X042288Y-001270
X039754Y-001270G85X039748Y-001270
X037214Y-001270G85X037208Y-001270
X034674Y-001270G85X034668Y-001270
X032134Y-001270G85X032128Y-001270
X029594Y-001270G85X029588Y-001270
X027054Y-001270G85X027048Y-001270
X024514Y-001270G85X024508Y-001270
X021974Y-001270G85X021968Y-001270
X019434Y-001270G85X019428Y-001270
X016894Y-001270G85X016888Y-001270
X016888Y-016510G85X016894Y-016510
X019428Y-016510G85X019434Y-016510
X021968Y-016510G85X021974Y-016510
X024508Y-016510G85X024514Y-016510
X027048Y-016510G85X027054Y-016510
X029588Y-016510G85X029594Y-016510
X032128Y-016510G85X032134Y-016510
X034668Y-016510G85X034674Y-016510
X037208Y-016510G85X037214Y-016510
X039748Y-016510G85X039754Y-016510
X042288Y-016510G85X042294Y-016510
X044828Y-016510G85X044834Y-016510
X047368Y-016510G85X047374Y-016510
X049908Y-016510G85X049914Y-016510
X052448Y-016510G85X052454Y-016510
X054988Y-016510G85X054994Y-016510
X057528Y-016510G85X057534Y-016510
X060068Y-016510G85X060074Y-016510
M30
