M48
METRIC,LZ,000.000
;FILE_FORMAT=3:3
;TYPE=NON_PLATED
;Layer: NPTH_Through
;EasyEDA v6.5.3, 2022-05-09 11:27:13
;baffbd41b27947a08c2bb0c717e604c5,b03e5731a7a74599b12e1065cb71c7ef,10
;Gerber Generator version 0.2
;Holesize 1 = 0.551 mm
T01C0.551
%
G05
G90
T01
X035315Y-019542
X036165Y-019542
X037015Y-019542
X037866Y-019542
X038716Y-019542
X039566Y-019542
X040416Y-019542
X041266Y-019542
X035315Y-018126
X036165Y-018126
X037015Y-018126
X037866Y-018126
X038716Y-018126
X039566Y-018126
X040416Y-018126
X041266Y-018126
X083524Y-019542
X084374Y-019542
X085224Y-019542
X086075Y-019542
X086925Y-019542
X087775Y-019542
X088625Y-019542
X089475Y-019542
X083524Y-018126
X084374Y-018126
X085224Y-018126
X086075Y-018126
X086925Y-018126
X087775Y-018126
X088625Y-018126
X089475Y-018126
X035315Y-039430
X036165Y-039430
X037015Y-039430
X037866Y-039430
X038716Y-039430
X039566Y-039430
X040416Y-039430
X041266Y-039430
X035315Y-038014
X036165Y-038014
X037015Y-038014
X037866Y-038014
X038716Y-038014
X039566Y-038014
X040416Y-038014
X041266Y-038014
X083524Y-039430
X084374Y-039430
X085224Y-039430
X086075Y-039430
X086925Y-039430
X087775Y-039430
X088625Y-039430
X089475Y-039430
X083524Y-038014
X084374Y-038014
X085224Y-038014
X086075Y-038014
X086925Y-038014
X087775Y-038014
X088625Y-038014
X089475Y-038014
X063103Y-005915
X063103Y-006765
X063103Y-007615
X063103Y-008465
X063103Y-009315
X063103Y-010165
X063103Y-011015
X063103Y-011865
X061687Y-005915
X061687Y-006765
X061687Y-007615
X061687Y-008465
X061687Y-009315
X061687Y-010165
X061687Y-011015
X061687Y-011865
X063103Y-025803
X063103Y-026653
X063103Y-027503
X063103Y-028353
X063103Y-029203
X063103Y-030053
X063103Y-030903
X063103Y-031753
X061687Y-025803
X061687Y-026653
X061687Y-027503
X061687Y-028353
X061687Y-029203
X061687Y-030053
X061687Y-030903
X061687Y-031753
X063103Y-045691
X063103Y-046541
X063103Y-047391
X063103Y-048241
X063103Y-049091
X063103Y-049941
X063103Y-050791
X063103Y-051641
X061687Y-045691
X061687Y-046541
X061687Y-047391
X061687Y-048241
X061687Y-049091
X061687Y-049941
X061687Y-050791
X061687Y-051641
M30
