G04 Layer: BottomLayer*
G04 EasyEDA v6.5.3, 2022-05-09 11:27:13*
G04 baffbd41b27947a08c2bb0c717e604c5,b03e5731a7a74599b12e1065cb71c7ef,10*
G04 Gerber Generator version 0.2*
G04 Scale: 100 percent, Rotated: No, Reflected: No *
G04 Dimensions in millimeters *
G04 leading zeros omitted , absolute positions ,4 integer and 5 decimal *
%FSLAX45Y45*%
%MOMM*%

%ADD10C,0.2540*%
%ADD12C,0.6096*%

%LPD*%
G36*
X1534668Y-1777492D02*
G01*
X1530756Y-1776730D01*
X1527505Y-1774494D01*
X1525270Y-1771243D01*
X1524508Y-1767332D01*
X1524508Y-10668D01*
X1525270Y-6756D01*
X1527505Y-3505D01*
X1530756Y-1270D01*
X1534668Y-508D01*
X6123432Y-508D01*
X6127343Y-1270D01*
X6130594Y-3505D01*
X6132830Y-6756D01*
X6133592Y-10668D01*
X6133592Y-1767332D01*
X6132830Y-1771243D01*
X6130594Y-1774494D01*
X6127343Y-1776730D01*
X6123432Y-1777492D01*
G37*

%LPC*%
G36*
X1660448Y-1747316D02*
G01*
X1717751Y-1747316D01*
X1723288Y-1746757D01*
X1728165Y-1745284D01*
X1732635Y-1742897D01*
X1736953Y-1739392D01*
X1777492Y-1698853D01*
X1780997Y-1694535D01*
X1783384Y-1690065D01*
X1784857Y-1685188D01*
X1785416Y-1679651D01*
X1785416Y-1622348D01*
X1784857Y-1616811D01*
X1783384Y-1611934D01*
X1780997Y-1607464D01*
X1777492Y-1603146D01*
X1736953Y-1562608D01*
X1732635Y-1559102D01*
X1728165Y-1556715D01*
X1723288Y-1555242D01*
X1717751Y-1554683D01*
X1660448Y-1554683D01*
X1654911Y-1555242D01*
X1650034Y-1556715D01*
X1645564Y-1559102D01*
X1641246Y-1562608D01*
X1600758Y-1603197D01*
X1597202Y-1607464D01*
X1594815Y-1611934D01*
X1593342Y-1616811D01*
X1592834Y-1622348D01*
X1592834Y-1679651D01*
X1593342Y-1685188D01*
X1594815Y-1690065D01*
X1597202Y-1694535D01*
X1600758Y-1698802D01*
X1641246Y-1739392D01*
X1645564Y-1742897D01*
X1650034Y-1745284D01*
X1654911Y-1746757D01*
G37*
G36*
X2168448Y-1747316D02*
G01*
X2225751Y-1747316D01*
X2231288Y-1746757D01*
X2236165Y-1745284D01*
X2240635Y-1742897D01*
X2244953Y-1739392D01*
X2285492Y-1698853D01*
X2288997Y-1694535D01*
X2291384Y-1690065D01*
X2292858Y-1685188D01*
X2293416Y-1679651D01*
X2293416Y-1622348D01*
X2292858Y-1616811D01*
X2291384Y-1611934D01*
X2288997Y-1607464D01*
X2285492Y-1603146D01*
X2244953Y-1562608D01*
X2240635Y-1559102D01*
X2236165Y-1556715D01*
X2231288Y-1555242D01*
X2225751Y-1554683D01*
X2168448Y-1554683D01*
X2162911Y-1555242D01*
X2158034Y-1556715D01*
X2153564Y-1559102D01*
X2149246Y-1562608D01*
X2108758Y-1603197D01*
X2105202Y-1607464D01*
X2102815Y-1611934D01*
X2101342Y-1616811D01*
X2100834Y-1622348D01*
X2100834Y-1679651D01*
X2101342Y-1685188D01*
X2102815Y-1690065D01*
X2105202Y-1694535D01*
X2108758Y-1698802D01*
X2149246Y-1739392D01*
X2153564Y-1742897D01*
X2158034Y-1745284D01*
X2162911Y-1746757D01*
G37*
G36*
X1914448Y-1747316D02*
G01*
X1971751Y-1747316D01*
X1977288Y-1746757D01*
X1982165Y-1745284D01*
X1986635Y-1742897D01*
X1990953Y-1739392D01*
X2031492Y-1698853D01*
X2034997Y-1694535D01*
X2037384Y-1690065D01*
X2038857Y-1685188D01*
X2039416Y-1679651D01*
X2039416Y-1622348D01*
X2038857Y-1616811D01*
X2037384Y-1611934D01*
X2034997Y-1607464D01*
X2031492Y-1603146D01*
X1990953Y-1562608D01*
X1986635Y-1559102D01*
X1982165Y-1556715D01*
X1977288Y-1555242D01*
X1971751Y-1554683D01*
X1914448Y-1554683D01*
X1908911Y-1555242D01*
X1904034Y-1556715D01*
X1899564Y-1559102D01*
X1895246Y-1562608D01*
X1854758Y-1603197D01*
X1851202Y-1607464D01*
X1848815Y-1611934D01*
X1847342Y-1616811D01*
X1846834Y-1622348D01*
X1846834Y-1679651D01*
X1847342Y-1685188D01*
X1848815Y-1690065D01*
X1851202Y-1694535D01*
X1854758Y-1698802D01*
X1895246Y-1739392D01*
X1899564Y-1742897D01*
X1904034Y-1745284D01*
X1908911Y-1746757D01*
G37*
G36*
X2422448Y-1747316D02*
G01*
X2479751Y-1747316D01*
X2485288Y-1746757D01*
X2490165Y-1745284D01*
X2494635Y-1742897D01*
X2498953Y-1739392D01*
X2539492Y-1698853D01*
X2542997Y-1694535D01*
X2545384Y-1690065D01*
X2546858Y-1685188D01*
X2547416Y-1679651D01*
X2547416Y-1622348D01*
X2546858Y-1616811D01*
X2545384Y-1611934D01*
X2542997Y-1607464D01*
X2539492Y-1603146D01*
X2498953Y-1562608D01*
X2494635Y-1559102D01*
X2490165Y-1556715D01*
X2485288Y-1555242D01*
X2479751Y-1554683D01*
X2422448Y-1554683D01*
X2416911Y-1555242D01*
X2412034Y-1556715D01*
X2407564Y-1559102D01*
X2403246Y-1562608D01*
X2362758Y-1603197D01*
X2359202Y-1607464D01*
X2356815Y-1611934D01*
X2355342Y-1616811D01*
X2354834Y-1622348D01*
X2354834Y-1679651D01*
X2355342Y-1685188D01*
X2356815Y-1690065D01*
X2359202Y-1694535D01*
X2362758Y-1698802D01*
X2403246Y-1739392D01*
X2407564Y-1742897D01*
X2412034Y-1745284D01*
X2416911Y-1746757D01*
G37*
G36*
X4708448Y-1747316D02*
G01*
X4765751Y-1747316D01*
X4771288Y-1746757D01*
X4776165Y-1745284D01*
X4780635Y-1742897D01*
X4784953Y-1739392D01*
X4825492Y-1698853D01*
X4828997Y-1694535D01*
X4831384Y-1690065D01*
X4832858Y-1685188D01*
X4833416Y-1679651D01*
X4833416Y-1622348D01*
X4832858Y-1616811D01*
X4831384Y-1611934D01*
X4828997Y-1607464D01*
X4825492Y-1603146D01*
X4784953Y-1562608D01*
X4780635Y-1559102D01*
X4776165Y-1556715D01*
X4771288Y-1555242D01*
X4765751Y-1554683D01*
X4708448Y-1554683D01*
X4702911Y-1555242D01*
X4698034Y-1556715D01*
X4693564Y-1559102D01*
X4689246Y-1562608D01*
X4648708Y-1603146D01*
X4645202Y-1607464D01*
X4642815Y-1611934D01*
X4641342Y-1616811D01*
X4640783Y-1622348D01*
X4640783Y-1679651D01*
X4641342Y-1685188D01*
X4642815Y-1690065D01*
X4645202Y-1694535D01*
X4648708Y-1698853D01*
X4689246Y-1739392D01*
X4693564Y-1742897D01*
X4698034Y-1745284D01*
X4702911Y-1746757D01*
G37*
G36*
X5978448Y-1747316D02*
G01*
X6035751Y-1747316D01*
X6041288Y-1746757D01*
X6046165Y-1745284D01*
X6050635Y-1742897D01*
X6054953Y-1739392D01*
X6095492Y-1698853D01*
X6098997Y-1694535D01*
X6101384Y-1690065D01*
X6102858Y-1685188D01*
X6103416Y-1679651D01*
X6103416Y-1622348D01*
X6102858Y-1616811D01*
X6101384Y-1611934D01*
X6098997Y-1607464D01*
X6095492Y-1603146D01*
X6054953Y-1562608D01*
X6050635Y-1559102D01*
X6046165Y-1556715D01*
X6041288Y-1555242D01*
X6035751Y-1554683D01*
X5978448Y-1554683D01*
X5972911Y-1555242D01*
X5968034Y-1556715D01*
X5963564Y-1559102D01*
X5959246Y-1562608D01*
X5918708Y-1603146D01*
X5915202Y-1607464D01*
X5912815Y-1611934D01*
X5911342Y-1616811D01*
X5910783Y-1622348D01*
X5910783Y-1679651D01*
X5911342Y-1685188D01*
X5912815Y-1690065D01*
X5915202Y-1694535D01*
X5918708Y-1698853D01*
X5959246Y-1739392D01*
X5963564Y-1742897D01*
X5968034Y-1745284D01*
X5972911Y-1746757D01*
G37*
G36*
X2676448Y-1747316D02*
G01*
X2733751Y-1747316D01*
X2739288Y-1746757D01*
X2744165Y-1745284D01*
X2748635Y-1742897D01*
X2752953Y-1739392D01*
X2793492Y-1698853D01*
X2796997Y-1694535D01*
X2799384Y-1690065D01*
X2800858Y-1685188D01*
X2801416Y-1679651D01*
X2801416Y-1622399D01*
X2800654Y-1615440D01*
X2800756Y-1612442D01*
X2801772Y-1609598D01*
X2803550Y-1607159D01*
X2808224Y-1602435D01*
X2813354Y-1596237D01*
X2816910Y-1589532D01*
X2819095Y-1582318D01*
X2819654Y-1576933D01*
X2820720Y-1573276D01*
X2823057Y-1570278D01*
X2826359Y-1568348D01*
X2830068Y-1567789D01*
X2833776Y-1568602D01*
X2836926Y-1570736D01*
X2864154Y-1597914D01*
X2866440Y-1601520D01*
X2867101Y-1605788D01*
X2865932Y-1609902D01*
X2864815Y-1611934D01*
X2863342Y-1616811D01*
X2862834Y-1622348D01*
X2862834Y-1679651D01*
X2863342Y-1685188D01*
X2864815Y-1690065D01*
X2867202Y-1694535D01*
X2870758Y-1698802D01*
X2911246Y-1739392D01*
X2915564Y-1742897D01*
X2920034Y-1745284D01*
X2924911Y-1746757D01*
X2930448Y-1747316D01*
X2987751Y-1747316D01*
X2993288Y-1746757D01*
X2998165Y-1745284D01*
X3002635Y-1742897D01*
X3006953Y-1739392D01*
X3047492Y-1698853D01*
X3050997Y-1694535D01*
X3053384Y-1690065D01*
X3054858Y-1685188D01*
X3055416Y-1679651D01*
X3055416Y-1622348D01*
X3054858Y-1616811D01*
X3053384Y-1611934D01*
X3050997Y-1607464D01*
X3047492Y-1603146D01*
X3036976Y-1592630D01*
X3034741Y-1589379D01*
X3033979Y-1585468D01*
X3034741Y-1581556D01*
X3036976Y-1578305D01*
X3040278Y-1576070D01*
X3044139Y-1575308D01*
X3078581Y-1575308D01*
X3082493Y-1576070D01*
X3085795Y-1578305D01*
X3114649Y-1607159D01*
X3117088Y-1610969D01*
X3117596Y-1615490D01*
X3116834Y-1622399D01*
X3116834Y-1679651D01*
X3117342Y-1685188D01*
X3118815Y-1690065D01*
X3121202Y-1694535D01*
X3124758Y-1698802D01*
X3165246Y-1739392D01*
X3169564Y-1742897D01*
X3174034Y-1745284D01*
X3178911Y-1746757D01*
X3184448Y-1747316D01*
X3241751Y-1747316D01*
X3247288Y-1746757D01*
X3252165Y-1745284D01*
X3256635Y-1742897D01*
X3260953Y-1739392D01*
X3301492Y-1698853D01*
X3304997Y-1694535D01*
X3307384Y-1690065D01*
X3308858Y-1685188D01*
X3309416Y-1679651D01*
X3309416Y-1622348D01*
X3308858Y-1616811D01*
X3307384Y-1611934D01*
X3304997Y-1607464D01*
X3301492Y-1603146D01*
X3260953Y-1562608D01*
X3256635Y-1559102D01*
X3252165Y-1556715D01*
X3247288Y-1555242D01*
X3241751Y-1554683D01*
X3184499Y-1554683D01*
X3177540Y-1555445D01*
X3174542Y-1555343D01*
X3171698Y-1554327D01*
X3169259Y-1552549D01*
X3126435Y-1509776D01*
X3120237Y-1504645D01*
X3113532Y-1501089D01*
X3106318Y-1498904D01*
X3098292Y-1498092D01*
X2957068Y-1498092D01*
X2953156Y-1497330D01*
X2949905Y-1495094D01*
X2947670Y-1491843D01*
X2946908Y-1487932D01*
X2946908Y-565708D01*
X2947670Y-561797D01*
X2949905Y-558495D01*
X2951480Y-556920D01*
X2957118Y-548894D01*
X2961233Y-539953D01*
X2963773Y-530504D01*
X2964637Y-520700D01*
X2963773Y-510895D01*
X2961233Y-501446D01*
X2957118Y-492506D01*
X2951480Y-484479D01*
X2944520Y-477520D01*
X2942590Y-476199D01*
X2939694Y-473100D01*
X2938322Y-469036D01*
X2938729Y-464820D01*
X2940862Y-461111D01*
X2944266Y-458622D01*
X2948432Y-457708D01*
X3154781Y-457708D01*
X3158693Y-458470D01*
X3161995Y-460705D01*
X3222294Y-521004D01*
X3224530Y-524306D01*
X3225292Y-528218D01*
X3225292Y-1021791D01*
X3224530Y-1025702D01*
X3222294Y-1029004D01*
X3220720Y-1030579D01*
X3215081Y-1038606D01*
X3210966Y-1047546D01*
X3208426Y-1056995D01*
X3207562Y-1066800D01*
X3208426Y-1076604D01*
X3210966Y-1086053D01*
X3215081Y-1094994D01*
X3220720Y-1103020D01*
X3227679Y-1109980D01*
X3235706Y-1115618D01*
X3244646Y-1119733D01*
X3254095Y-1122273D01*
X3263900Y-1123137D01*
X3273704Y-1122273D01*
X3283712Y-1119632D01*
X3287572Y-1119327D01*
X3291230Y-1120546D01*
X3294227Y-1123035D01*
X3296056Y-1126439D01*
X3297326Y-1140104D01*
X3299866Y-1149553D01*
X3303981Y-1158494D01*
X3309620Y-1166520D01*
X3316579Y-1173480D01*
X3324606Y-1179118D01*
X3333546Y-1183233D01*
X3342995Y-1185773D01*
X3352800Y-1186637D01*
X3362604Y-1185773D01*
X3372053Y-1183233D01*
X3377336Y-1180795D01*
X3381349Y-1179830D01*
X3385362Y-1180541D01*
X3388817Y-1182827D01*
X3425494Y-1219504D01*
X3427729Y-1222806D01*
X3428492Y-1226718D01*
X3428492Y-1550365D01*
X3427476Y-1554784D01*
X3424682Y-1558290D01*
X3419195Y-1562658D01*
X3378758Y-1603197D01*
X3375202Y-1607464D01*
X3372815Y-1611934D01*
X3371342Y-1616811D01*
X3370834Y-1622348D01*
X3370834Y-1679651D01*
X3371342Y-1685188D01*
X3372815Y-1690065D01*
X3375202Y-1694535D01*
X3378758Y-1698802D01*
X3419246Y-1739392D01*
X3423564Y-1742897D01*
X3428034Y-1745284D01*
X3432911Y-1746757D01*
X3438448Y-1747316D01*
X3495751Y-1747316D01*
X3501288Y-1746757D01*
X3506165Y-1745284D01*
X3510635Y-1742897D01*
X3514953Y-1739392D01*
X3555492Y-1698853D01*
X3558997Y-1694535D01*
X3561384Y-1690065D01*
X3562858Y-1685188D01*
X3563416Y-1679651D01*
X3563416Y-1622348D01*
X3562858Y-1616811D01*
X3561384Y-1611934D01*
X3558997Y-1607464D01*
X3555492Y-1603146D01*
X3514953Y-1562658D01*
X3509518Y-1558290D01*
X3506724Y-1554784D01*
X3505708Y-1550365D01*
X3505708Y-1248054D01*
X3506470Y-1244142D01*
X3508705Y-1240840D01*
X3511956Y-1238656D01*
X3515868Y-1237894D01*
X3519779Y-1238656D01*
X3523030Y-1240840D01*
X3679494Y-1397304D01*
X3681729Y-1400606D01*
X3682492Y-1404518D01*
X3682492Y-1550365D01*
X3681476Y-1554784D01*
X3678682Y-1558290D01*
X3673195Y-1562658D01*
X3632758Y-1603197D01*
X3629202Y-1607464D01*
X3626815Y-1611934D01*
X3625342Y-1616811D01*
X3624834Y-1622348D01*
X3624834Y-1679651D01*
X3625342Y-1685188D01*
X3626815Y-1690065D01*
X3629202Y-1694535D01*
X3632758Y-1698802D01*
X3673246Y-1739392D01*
X3677564Y-1742897D01*
X3682034Y-1745284D01*
X3686911Y-1746757D01*
X3692448Y-1747316D01*
X3749751Y-1747316D01*
X3755288Y-1746757D01*
X3760165Y-1745284D01*
X3764635Y-1742897D01*
X3768953Y-1739392D01*
X3809492Y-1698853D01*
X3812997Y-1694535D01*
X3815384Y-1690065D01*
X3816858Y-1685188D01*
X3817416Y-1679651D01*
X3817416Y-1622348D01*
X3816858Y-1616811D01*
X3815384Y-1611934D01*
X3812997Y-1607464D01*
X3809492Y-1603146D01*
X3768953Y-1562658D01*
X3763518Y-1558290D01*
X3760724Y-1554784D01*
X3759708Y-1550365D01*
X3759708Y-1514754D01*
X3760470Y-1510842D01*
X3762705Y-1507540D01*
X3765956Y-1505356D01*
X3769868Y-1504594D01*
X3773779Y-1505356D01*
X3777030Y-1507540D01*
X3876649Y-1607159D01*
X3879087Y-1610969D01*
X3879596Y-1615490D01*
X3878834Y-1622399D01*
X3878834Y-1679651D01*
X3879342Y-1685188D01*
X3880815Y-1690065D01*
X3883202Y-1694535D01*
X3886758Y-1698802D01*
X3927246Y-1739392D01*
X3931564Y-1742897D01*
X3936034Y-1745284D01*
X3940911Y-1746757D01*
X3946448Y-1747316D01*
X4003751Y-1747316D01*
X4009288Y-1746757D01*
X4014165Y-1745284D01*
X4018635Y-1742897D01*
X4022953Y-1739392D01*
X4063492Y-1698853D01*
X4066997Y-1694535D01*
X4069384Y-1690065D01*
X4070858Y-1685188D01*
X4071416Y-1679651D01*
X4071416Y-1622348D01*
X4070858Y-1616811D01*
X4069384Y-1611934D01*
X4066997Y-1607464D01*
X4063492Y-1603146D01*
X4022953Y-1562608D01*
X4018635Y-1559102D01*
X4014165Y-1556715D01*
X4009288Y-1555242D01*
X4003751Y-1554683D01*
X3946499Y-1554683D01*
X3939540Y-1555445D01*
X3936542Y-1555343D01*
X3933698Y-1554327D01*
X3931259Y-1552549D01*
X3838905Y-1460195D01*
X3836670Y-1456893D01*
X3835908Y-1452981D01*
X3835908Y-1137208D01*
X3836670Y-1133297D01*
X3838905Y-1129995D01*
X3840479Y-1128420D01*
X3846118Y-1120394D01*
X3850233Y-1111453D01*
X3852773Y-1102004D01*
X3853027Y-1099159D01*
X3854094Y-1095451D01*
X3856431Y-1092454D01*
X3859682Y-1090472D01*
X3863441Y-1089863D01*
X3867200Y-1090726D01*
X3870350Y-1092860D01*
X4187494Y-1410004D01*
X4189729Y-1413306D01*
X4190492Y-1417218D01*
X4190492Y-1550365D01*
X4189476Y-1554784D01*
X4186682Y-1558290D01*
X4181195Y-1562658D01*
X4140758Y-1603197D01*
X4137202Y-1607464D01*
X4134815Y-1611934D01*
X4133342Y-1616811D01*
X4132834Y-1622348D01*
X4132834Y-1679651D01*
X4133342Y-1685188D01*
X4134815Y-1690065D01*
X4137202Y-1694535D01*
X4140758Y-1698802D01*
X4181246Y-1739392D01*
X4185564Y-1742897D01*
X4190034Y-1745284D01*
X4194911Y-1746757D01*
X4200448Y-1747316D01*
X4257751Y-1747316D01*
X4263288Y-1746757D01*
X4268165Y-1745284D01*
X4272635Y-1742897D01*
X4276953Y-1739392D01*
X4317492Y-1698853D01*
X4320997Y-1694535D01*
X4323384Y-1690065D01*
X4324858Y-1685188D01*
X4325416Y-1679651D01*
X4325416Y-1622348D01*
X4324858Y-1616811D01*
X4323384Y-1611934D01*
X4320997Y-1607464D01*
X4317492Y-1603146D01*
X4276953Y-1562658D01*
X4271518Y-1558290D01*
X4268724Y-1554784D01*
X4267708Y-1550365D01*
X4267708Y-1451254D01*
X4268470Y-1447342D01*
X4270705Y-1444040D01*
X4273956Y-1441856D01*
X4277868Y-1441094D01*
X4281779Y-1441856D01*
X4285030Y-1444040D01*
X4412284Y-1571244D01*
X4414469Y-1574546D01*
X4415231Y-1578457D01*
X4414469Y-1582318D01*
X4412284Y-1585620D01*
X4394708Y-1603146D01*
X4391202Y-1607464D01*
X4388815Y-1611934D01*
X4387342Y-1616811D01*
X4386783Y-1622348D01*
X4386783Y-1679651D01*
X4387342Y-1685188D01*
X4388815Y-1690065D01*
X4391202Y-1694535D01*
X4394708Y-1698853D01*
X4435246Y-1739392D01*
X4439564Y-1742897D01*
X4444034Y-1745284D01*
X4448911Y-1746757D01*
X4454448Y-1747316D01*
X4511751Y-1747316D01*
X4517288Y-1746757D01*
X4522165Y-1745284D01*
X4526635Y-1742897D01*
X4530953Y-1739392D01*
X4571492Y-1698853D01*
X4574997Y-1694535D01*
X4577384Y-1690065D01*
X4578858Y-1685188D01*
X4579416Y-1679651D01*
X4579416Y-1622348D01*
X4578858Y-1616811D01*
X4577384Y-1611934D01*
X4574997Y-1607464D01*
X4571492Y-1603146D01*
X4530953Y-1562608D01*
X4526635Y-1559102D01*
X4522165Y-1556715D01*
X4517288Y-1555242D01*
X4511751Y-1554683D01*
X4509109Y-1554683D01*
X4505198Y-1553921D01*
X4501896Y-1551686D01*
X3901135Y-950976D01*
X3894937Y-945845D01*
X3888232Y-942289D01*
X3881018Y-940104D01*
X3872992Y-939292D01*
X3796029Y-939292D01*
X3792321Y-938580D01*
X3789070Y-936498D01*
X3786835Y-933450D01*
X3782618Y-924306D01*
X3778300Y-918210D01*
X3776624Y-914146D01*
X3776827Y-909726D01*
X3778859Y-905814D01*
X3782314Y-903173D01*
X3786632Y-902208D01*
X4370679Y-902208D01*
X4374591Y-902969D01*
X4377893Y-905205D01*
X4383379Y-910691D01*
X4391406Y-916330D01*
X4400346Y-920445D01*
X4409795Y-922985D01*
X4419600Y-923848D01*
X4429404Y-922985D01*
X4438853Y-920445D01*
X4447794Y-916330D01*
X4455820Y-910691D01*
X4462780Y-903732D01*
X4468418Y-895705D01*
X4472533Y-886764D01*
X4475327Y-876452D01*
X4477207Y-872744D01*
X4480407Y-870102D01*
X4484370Y-868934D01*
X4488484Y-869492D01*
X4492040Y-871626D01*
X4494428Y-875030D01*
X4495292Y-879094D01*
X4495292Y-1117092D01*
X4496104Y-1125118D01*
X4498289Y-1132332D01*
X4501845Y-1139037D01*
X4506976Y-1145235D01*
X4709464Y-1347724D01*
X4715662Y-1352854D01*
X4722368Y-1356410D01*
X4729581Y-1358595D01*
X4737608Y-1359408D01*
X4780381Y-1359408D01*
X4784293Y-1360170D01*
X4787595Y-1362405D01*
X4949494Y-1524304D01*
X4951730Y-1527606D01*
X4952492Y-1531518D01*
X4952492Y-1550365D01*
X4951476Y-1554784D01*
X4948682Y-1558290D01*
X4943246Y-1562658D01*
X4902708Y-1603146D01*
X4899202Y-1607464D01*
X4896815Y-1611934D01*
X4895342Y-1616811D01*
X4894783Y-1622348D01*
X4894783Y-1679651D01*
X4895342Y-1685188D01*
X4896815Y-1690065D01*
X4899202Y-1694535D01*
X4902708Y-1698853D01*
X4943246Y-1739392D01*
X4947564Y-1742897D01*
X4952034Y-1745284D01*
X4956911Y-1746757D01*
X4962448Y-1747316D01*
X5019751Y-1747316D01*
X5025288Y-1746757D01*
X5030165Y-1745284D01*
X5034635Y-1742897D01*
X5038953Y-1739392D01*
X5079492Y-1698853D01*
X5082997Y-1694535D01*
X5085384Y-1690065D01*
X5086858Y-1685188D01*
X5087416Y-1679651D01*
X5087416Y-1622348D01*
X5086858Y-1616811D01*
X5085384Y-1611934D01*
X5082997Y-1607464D01*
X5079492Y-1603146D01*
X5038953Y-1562658D01*
X5033518Y-1558290D01*
X5030724Y-1554784D01*
X5029708Y-1550365D01*
X5029708Y-1514754D01*
X5030470Y-1510842D01*
X5032705Y-1507540D01*
X5035956Y-1505356D01*
X5039868Y-1504594D01*
X5043779Y-1505356D01*
X5047030Y-1507540D01*
X5146649Y-1607159D01*
X5148427Y-1609598D01*
X5149443Y-1612442D01*
X5149545Y-1615440D01*
X5148783Y-1622399D01*
X5148783Y-1679651D01*
X5149342Y-1685188D01*
X5150815Y-1690065D01*
X5153202Y-1694535D01*
X5156708Y-1698853D01*
X5197246Y-1739392D01*
X5201564Y-1742897D01*
X5206034Y-1745284D01*
X5210911Y-1746757D01*
X5216448Y-1747316D01*
X5273751Y-1747316D01*
X5279288Y-1746757D01*
X5284165Y-1745284D01*
X5288635Y-1742897D01*
X5292953Y-1739392D01*
X5333492Y-1698853D01*
X5336997Y-1694535D01*
X5339384Y-1690065D01*
X5340858Y-1685188D01*
X5341416Y-1679651D01*
X5341416Y-1622348D01*
X5340858Y-1616811D01*
X5339384Y-1611934D01*
X5336997Y-1607464D01*
X5334660Y-1604619D01*
X5332831Y-1601266D01*
X5332374Y-1597507D01*
X5333339Y-1593799D01*
X5335574Y-1590751D01*
X5338775Y-1588719D01*
X5342534Y-1588008D01*
X5377281Y-1588008D01*
X5381193Y-1588770D01*
X5384495Y-1591005D01*
X5400649Y-1607159D01*
X5402427Y-1609598D01*
X5403443Y-1612442D01*
X5403545Y-1615440D01*
X5402783Y-1622399D01*
X5402783Y-1679651D01*
X5403342Y-1685188D01*
X5404815Y-1690065D01*
X5407202Y-1694535D01*
X5410708Y-1698853D01*
X5451246Y-1739392D01*
X5455564Y-1742897D01*
X5460034Y-1745284D01*
X5464911Y-1746757D01*
X5470448Y-1747316D01*
X5527751Y-1747316D01*
X5533288Y-1746757D01*
X5538165Y-1745284D01*
X5542635Y-1742897D01*
X5546953Y-1739392D01*
X5587492Y-1698853D01*
X5590997Y-1694535D01*
X5593384Y-1690065D01*
X5594858Y-1685188D01*
X5595416Y-1679651D01*
X5595416Y-1622348D01*
X5594858Y-1616811D01*
X5593384Y-1611934D01*
X5590997Y-1607464D01*
X5587492Y-1603146D01*
X5546953Y-1562608D01*
X5542635Y-1559102D01*
X5537454Y-1556308D01*
X5534101Y-1553413D01*
X5532272Y-1549349D01*
X5532374Y-1544878D01*
X5534406Y-1540916D01*
X5537911Y-1538173D01*
X5542229Y-1537208D01*
X5580481Y-1537208D01*
X5584393Y-1537970D01*
X5587695Y-1540205D01*
X5654649Y-1607159D01*
X5656427Y-1609598D01*
X5657443Y-1612442D01*
X5657545Y-1615440D01*
X5656783Y-1622399D01*
X5656783Y-1679651D01*
X5657342Y-1685188D01*
X5658815Y-1690065D01*
X5661202Y-1694535D01*
X5664708Y-1698853D01*
X5705246Y-1739392D01*
X5709564Y-1742897D01*
X5714034Y-1745284D01*
X5718911Y-1746757D01*
X5724448Y-1747316D01*
X5781751Y-1747316D01*
X5787288Y-1746757D01*
X5792165Y-1745284D01*
X5796635Y-1742897D01*
X5800953Y-1739392D01*
X5841492Y-1698853D01*
X5844997Y-1694535D01*
X5847384Y-1690065D01*
X5848858Y-1685188D01*
X5849416Y-1679651D01*
X5849416Y-1622348D01*
X5848858Y-1616811D01*
X5847384Y-1611934D01*
X5844997Y-1607464D01*
X5841492Y-1603146D01*
X5800953Y-1562608D01*
X5796635Y-1559102D01*
X5792165Y-1556715D01*
X5787288Y-1555242D01*
X5781751Y-1554683D01*
X5724499Y-1554683D01*
X5717540Y-1555445D01*
X5714542Y-1555343D01*
X5711698Y-1554327D01*
X5709259Y-1552549D01*
X5628335Y-1471676D01*
X5622137Y-1466545D01*
X5615432Y-1462989D01*
X5608218Y-1460804D01*
X5600192Y-1459992D01*
X5405018Y-1459992D01*
X5401106Y-1459230D01*
X5397804Y-1456994D01*
X5252872Y-1312062D01*
X5250688Y-1308811D01*
X5249875Y-1305052D01*
X5250535Y-1301242D01*
X5252618Y-1297940D01*
X5255717Y-1295654D01*
X5260594Y-1293418D01*
X5268620Y-1287780D01*
X5275580Y-1280820D01*
X5281218Y-1272794D01*
X5285333Y-1263853D01*
X5287873Y-1254404D01*
X5288737Y-1244600D01*
X5287873Y-1234795D01*
X5285333Y-1225346D01*
X5284673Y-1223822D01*
X5283708Y-1219555D01*
X5283708Y-227634D01*
X5284724Y-223215D01*
X5287518Y-219710D01*
X5292953Y-215341D01*
X5333492Y-174853D01*
X5336997Y-170535D01*
X5339384Y-166065D01*
X5340858Y-161188D01*
X5341416Y-155651D01*
X5341416Y-98348D01*
X5340858Y-92811D01*
X5339384Y-87934D01*
X5336997Y-83464D01*
X5333492Y-79146D01*
X5292953Y-38608D01*
X5288635Y-35102D01*
X5284165Y-32715D01*
X5279288Y-31242D01*
X5273751Y-30683D01*
X5216448Y-30683D01*
X5210911Y-31242D01*
X5206034Y-32715D01*
X5201564Y-35102D01*
X5197246Y-38608D01*
X5156708Y-79146D01*
X5153202Y-83464D01*
X5150815Y-87934D01*
X5149342Y-92811D01*
X5148783Y-98348D01*
X5148783Y-155651D01*
X5149342Y-161188D01*
X5150815Y-166065D01*
X5153202Y-170535D01*
X5156708Y-174853D01*
X5197246Y-215341D01*
X5202682Y-219710D01*
X5205476Y-223215D01*
X5206492Y-227634D01*
X5206492Y-810768D01*
X5205577Y-814933D01*
X5203088Y-818337D01*
X5199380Y-820470D01*
X5195163Y-820877D01*
X5191099Y-819505D01*
X5188000Y-816610D01*
X5186680Y-814679D01*
X5179720Y-807720D01*
X5171694Y-802081D01*
X5162753Y-797966D01*
X5153304Y-795426D01*
X5143500Y-794562D01*
X5133695Y-795426D01*
X5124246Y-797966D01*
X5115306Y-802081D01*
X5107279Y-807720D01*
X5100320Y-814679D01*
X5094681Y-822706D01*
X5090566Y-831646D01*
X5088026Y-841095D01*
X5087162Y-850900D01*
X5088026Y-860704D01*
X5090566Y-870153D01*
X5094681Y-879094D01*
X5100320Y-887120D01*
X5107279Y-894080D01*
X5113274Y-898245D01*
X5115560Y-900531D01*
X5117084Y-903376D01*
X5117592Y-906576D01*
X5117592Y-1269492D01*
X5118404Y-1277518D01*
X5120589Y-1284732D01*
X5124145Y-1291437D01*
X5129276Y-1297635D01*
X5325059Y-1493469D01*
X5327243Y-1496720D01*
X5328005Y-1500632D01*
X5327243Y-1504543D01*
X5325059Y-1507794D01*
X5321757Y-1510030D01*
X5317845Y-1510792D01*
X5252618Y-1510792D01*
X5248706Y-1510030D01*
X5245404Y-1507794D01*
X4904435Y-1166876D01*
X4898237Y-1161745D01*
X4891532Y-1158189D01*
X4884318Y-1156004D01*
X4876292Y-1155192D01*
X4782718Y-1155192D01*
X4778806Y-1154430D01*
X4775504Y-1152194D01*
X4677105Y-1053795D01*
X4674870Y-1050493D01*
X4674108Y-1046581D01*
X4674108Y-782218D01*
X4674870Y-778306D01*
X4677105Y-775004D01*
X4684725Y-767334D01*
X4687620Y-765352D01*
X4691024Y-764438D01*
X4694580Y-764743D01*
X4701895Y-766673D01*
X4711700Y-767537D01*
X4721504Y-766673D01*
X4730953Y-764133D01*
X4739894Y-760018D01*
X4747920Y-754380D01*
X4754880Y-747420D01*
X4760518Y-739394D01*
X4764633Y-730453D01*
X4767173Y-721004D01*
X4768037Y-711200D01*
X4767173Y-701395D01*
X4764633Y-691946D01*
X4760518Y-683006D01*
X4754880Y-674979D01*
X4751425Y-671525D01*
X4749241Y-668223D01*
X4748428Y-664362D01*
X4749241Y-660450D01*
X4751425Y-657148D01*
X4754880Y-653745D01*
X4760518Y-645668D01*
X4764633Y-636778D01*
X4767173Y-627278D01*
X4768037Y-617524D01*
X4767173Y-607720D01*
X4764633Y-598220D01*
X4760518Y-589330D01*
X4754880Y-581253D01*
X4753254Y-577494D01*
X4753254Y-573379D01*
X4754880Y-569620D01*
X4760518Y-561594D01*
X4764633Y-552653D01*
X4767173Y-543204D01*
X4768037Y-533400D01*
X4767173Y-523595D01*
X4764633Y-514146D01*
X4760518Y-505206D01*
X4754880Y-497179D01*
X4747920Y-490220D01*
X4739894Y-484581D01*
X4730953Y-480466D01*
X4721504Y-477926D01*
X4711700Y-477062D01*
X4701895Y-477926D01*
X4692446Y-480466D01*
X4683506Y-484581D01*
X4675479Y-490220D01*
X4668520Y-497179D01*
X4665522Y-500786D01*
X4658664Y-506476D01*
X4506976Y-658164D01*
X4501845Y-664362D01*
X4498289Y-671068D01*
X4496104Y-678281D01*
X4495292Y-686308D01*
X4495292Y-855929D01*
X4494428Y-859993D01*
X4492040Y-863396D01*
X4488484Y-865530D01*
X4484370Y-866089D01*
X4480407Y-864920D01*
X4477207Y-862279D01*
X4475327Y-858570D01*
X4472533Y-848258D01*
X4468418Y-839317D01*
X4462780Y-831291D01*
X4455820Y-824331D01*
X4447794Y-818692D01*
X4438853Y-814578D01*
X4429404Y-812038D01*
X4419600Y-811174D01*
X4409795Y-812038D01*
X4400346Y-814578D01*
X4391406Y-818692D01*
X4385056Y-823163D01*
X4382312Y-824534D01*
X4379264Y-824992D01*
X3499408Y-824992D01*
X3495497Y-824230D01*
X3492195Y-821994D01*
X3490620Y-820419D01*
X3482594Y-814781D01*
X3473653Y-810666D01*
X3464204Y-808126D01*
X3454400Y-807262D01*
X3444595Y-808126D01*
X3442309Y-808736D01*
X3438601Y-809040D01*
X3435045Y-807974D01*
X3432098Y-805688D01*
X3430168Y-802538D01*
X3429508Y-798931D01*
X3429508Y-470408D01*
X3428695Y-462381D01*
X3426510Y-455168D01*
X3422954Y-448462D01*
X3417824Y-442264D01*
X3361131Y-385521D01*
X3359099Y-382625D01*
X3358184Y-379222D01*
X3357473Y-371195D01*
X3355390Y-363423D01*
X3355187Y-359003D01*
X3356914Y-354939D01*
X3360115Y-351993D01*
X3364331Y-350672D01*
X3368700Y-351231D01*
X3372408Y-353618D01*
X3375964Y-357124D01*
X3382162Y-362254D01*
X3388868Y-365810D01*
X3396081Y-367995D01*
X3404108Y-368808D01*
X4666691Y-368808D01*
X4670602Y-369570D01*
X4673904Y-371805D01*
X4675479Y-373380D01*
X4683506Y-379018D01*
X4692446Y-383133D01*
X4701895Y-385673D01*
X4711700Y-386537D01*
X4721504Y-385673D01*
X4730953Y-383133D01*
X4739894Y-379018D01*
X4747920Y-373380D01*
X4754880Y-366420D01*
X4760518Y-358394D01*
X4764633Y-349453D01*
X4767173Y-340004D01*
X4768037Y-330200D01*
X4767173Y-320395D01*
X4764633Y-310946D01*
X4760518Y-302006D01*
X4754880Y-293979D01*
X4747920Y-287020D01*
X4739894Y-281381D01*
X4730953Y-277266D01*
X4721504Y-274726D01*
X4711700Y-273862D01*
X4701895Y-274726D01*
X4692446Y-277266D01*
X4683506Y-281381D01*
X4675479Y-287020D01*
X4673904Y-288594D01*
X4670602Y-290830D01*
X4666691Y-291592D01*
X3423818Y-291592D01*
X3419906Y-290830D01*
X3416604Y-288594D01*
X3355035Y-227075D01*
X3348837Y-221945D01*
X3342132Y-218389D01*
X3334918Y-216204D01*
X3326892Y-215392D01*
X3285439Y-215392D01*
X3281578Y-214629D01*
X3278276Y-212394D01*
X3276041Y-209143D01*
X3275279Y-205232D01*
X3276041Y-201320D01*
X3278276Y-198069D01*
X3301492Y-174853D01*
X3304997Y-170535D01*
X3307384Y-166065D01*
X3308858Y-161188D01*
X3309416Y-155651D01*
X3309416Y-98348D01*
X3308858Y-92811D01*
X3307384Y-87934D01*
X3304997Y-83464D01*
X3301492Y-79146D01*
X3260953Y-38608D01*
X3256635Y-35102D01*
X3252165Y-32715D01*
X3247288Y-31242D01*
X3241751Y-30683D01*
X3184448Y-30683D01*
X3178911Y-31242D01*
X3174034Y-32715D01*
X3169564Y-35102D01*
X3165246Y-38608D01*
X3124758Y-79197D01*
X3121202Y-83464D01*
X3118815Y-87934D01*
X3117342Y-92811D01*
X3116834Y-98348D01*
X3116834Y-155651D01*
X3117342Y-161188D01*
X3118815Y-166065D01*
X3121202Y-170535D01*
X3124758Y-174802D01*
X3147974Y-198069D01*
X3150158Y-201371D01*
X3150920Y-205232D01*
X3150158Y-209143D01*
X3147974Y-212394D01*
X3144672Y-214629D01*
X3140760Y-215392D01*
X3031439Y-215392D01*
X3027578Y-214629D01*
X3024276Y-212394D01*
X3022041Y-209143D01*
X3021279Y-205232D01*
X3022041Y-201320D01*
X3024276Y-198069D01*
X3047492Y-174853D01*
X3050997Y-170535D01*
X3053384Y-166065D01*
X3054858Y-161188D01*
X3055416Y-155651D01*
X3055416Y-98348D01*
X3054858Y-92811D01*
X3053384Y-87934D01*
X3050997Y-83464D01*
X3047492Y-79146D01*
X3006953Y-38608D01*
X3002635Y-35102D01*
X2998165Y-32715D01*
X2993288Y-31242D01*
X2987751Y-30683D01*
X2930448Y-30683D01*
X2924911Y-31242D01*
X2920034Y-32715D01*
X2915564Y-35102D01*
X2911246Y-38608D01*
X2870758Y-79197D01*
X2867202Y-83464D01*
X2864815Y-87934D01*
X2863342Y-92811D01*
X2862834Y-98348D01*
X2862834Y-155651D01*
X2863342Y-161188D01*
X2864815Y-166065D01*
X2867202Y-170535D01*
X2870758Y-174802D01*
X2893974Y-198069D01*
X2896158Y-201371D01*
X2896920Y-205232D01*
X2896158Y-209143D01*
X2893974Y-212394D01*
X2890672Y-214629D01*
X2886760Y-215392D01*
X2777439Y-215392D01*
X2773578Y-214629D01*
X2770276Y-212394D01*
X2768041Y-209143D01*
X2767279Y-205232D01*
X2768041Y-201320D01*
X2770276Y-198069D01*
X2793492Y-174853D01*
X2796997Y-170535D01*
X2799384Y-166065D01*
X2800858Y-161188D01*
X2801416Y-155651D01*
X2801416Y-98348D01*
X2800858Y-92811D01*
X2799384Y-87934D01*
X2796997Y-83464D01*
X2793492Y-79146D01*
X2752953Y-38608D01*
X2748635Y-35102D01*
X2744165Y-32715D01*
X2739288Y-31242D01*
X2733751Y-30683D01*
X2676448Y-30683D01*
X2670911Y-31242D01*
X2666034Y-32715D01*
X2661564Y-35102D01*
X2657246Y-38608D01*
X2616758Y-79197D01*
X2613202Y-83464D01*
X2610815Y-87934D01*
X2609342Y-92811D01*
X2608834Y-98348D01*
X2608834Y-155651D01*
X2609342Y-161188D01*
X2610815Y-166065D01*
X2613202Y-170535D01*
X2616758Y-174802D01*
X2639974Y-198069D01*
X2642158Y-201371D01*
X2642920Y-205232D01*
X2642158Y-209143D01*
X2639974Y-212394D01*
X2636672Y-214629D01*
X2632760Y-215392D01*
X2523439Y-215392D01*
X2519578Y-214629D01*
X2516276Y-212394D01*
X2514041Y-209143D01*
X2513279Y-205232D01*
X2514041Y-201320D01*
X2516276Y-198069D01*
X2539492Y-174853D01*
X2542997Y-170535D01*
X2545384Y-166065D01*
X2546858Y-161188D01*
X2547416Y-155651D01*
X2547416Y-98348D01*
X2546858Y-92811D01*
X2545384Y-87934D01*
X2542997Y-83464D01*
X2539492Y-79146D01*
X2498953Y-38608D01*
X2494635Y-35102D01*
X2490165Y-32715D01*
X2485288Y-31242D01*
X2479751Y-30683D01*
X2422448Y-30683D01*
X2416911Y-31242D01*
X2412034Y-32715D01*
X2407564Y-35102D01*
X2403246Y-38608D01*
X2362758Y-79197D01*
X2359202Y-83464D01*
X2356815Y-87934D01*
X2355342Y-92811D01*
X2354834Y-98348D01*
X2354834Y-142087D01*
X2354021Y-145948D01*
X2351836Y-149250D01*
X2348534Y-151485D01*
X2344674Y-152247D01*
X2340762Y-151485D01*
X2337460Y-149250D01*
X2296414Y-108204D01*
X2294178Y-104902D01*
X2293416Y-100990D01*
X2293416Y-98348D01*
X2292858Y-92811D01*
X2291384Y-87934D01*
X2288997Y-83464D01*
X2285492Y-79146D01*
X2244953Y-38608D01*
X2240635Y-35102D01*
X2236165Y-32715D01*
X2231288Y-31242D01*
X2225751Y-30683D01*
X2168448Y-30683D01*
X2162911Y-31242D01*
X2158034Y-32715D01*
X2153564Y-35102D01*
X2149246Y-38608D01*
X2108758Y-79197D01*
X2105202Y-83464D01*
X2102815Y-87934D01*
X2101342Y-92811D01*
X2100834Y-98348D01*
X2100834Y-155651D01*
X2101342Y-161188D01*
X2102815Y-166065D01*
X2105202Y-170535D01*
X2108758Y-174802D01*
X2149246Y-215392D01*
X2153564Y-218897D01*
X2158034Y-221284D01*
X2162911Y-222758D01*
X2168448Y-223316D01*
X2225751Y-223316D01*
X2231288Y-222758D01*
X2236165Y-221284D01*
X2240635Y-218897D01*
X2244953Y-215392D01*
X2262479Y-197815D01*
X2265781Y-195630D01*
X2269642Y-194868D01*
X2273554Y-195630D01*
X2276856Y-197815D01*
X2359964Y-280924D01*
X2366467Y-286258D01*
X2369058Y-289509D01*
X2370124Y-293471D01*
X2369566Y-297535D01*
X2367432Y-301091D01*
X2364028Y-303479D01*
X2360015Y-304292D01*
X2166518Y-304292D01*
X2162606Y-303530D01*
X2159304Y-301294D01*
X2038096Y-180086D01*
X2035759Y-176479D01*
X2035149Y-172212D01*
X2036318Y-168097D01*
X2037384Y-166065D01*
X2038857Y-161188D01*
X2039416Y-155651D01*
X2039416Y-98348D01*
X2038857Y-92811D01*
X2037384Y-87934D01*
X2034997Y-83464D01*
X2031492Y-79146D01*
X1990953Y-38608D01*
X1986635Y-35102D01*
X1982165Y-32715D01*
X1977288Y-31242D01*
X1971751Y-30683D01*
X1914448Y-30683D01*
X1908911Y-31242D01*
X1904034Y-32715D01*
X1899564Y-35102D01*
X1895246Y-38608D01*
X1854758Y-79197D01*
X1851202Y-83464D01*
X1848815Y-87934D01*
X1847342Y-92811D01*
X1846834Y-98348D01*
X1846834Y-155651D01*
X1847342Y-161188D01*
X1848815Y-166065D01*
X1851202Y-170535D01*
X1854758Y-174802D01*
X1895246Y-215392D01*
X1899564Y-218897D01*
X1904034Y-221284D01*
X1908911Y-222758D01*
X1914448Y-223316D01*
X1967890Y-223316D01*
X1971802Y-224078D01*
X1975104Y-226314D01*
X2118664Y-369824D01*
X2124862Y-374954D01*
X2131568Y-378510D01*
X2138781Y-380695D01*
X2146808Y-381508D01*
X2367991Y-381508D01*
X2371902Y-382270D01*
X2375204Y-384505D01*
X2376779Y-386080D01*
X2384806Y-391718D01*
X2393746Y-395833D01*
X2403195Y-398373D01*
X2413000Y-399237D01*
X2422804Y-398373D01*
X2432253Y-395833D01*
X2441194Y-391718D01*
X2449220Y-386080D01*
X2456180Y-379120D01*
X2461818Y-371094D01*
X2465933Y-362153D01*
X2468473Y-352704D01*
X2469337Y-342900D01*
X2468473Y-333095D01*
X2465933Y-323646D01*
X2461818Y-314706D01*
X2457500Y-308610D01*
X2455824Y-304546D01*
X2456027Y-300126D01*
X2458059Y-296214D01*
X2461514Y-293573D01*
X2465832Y-292608D01*
X3307181Y-292608D01*
X3311093Y-293370D01*
X3314395Y-295605D01*
X3329381Y-310591D01*
X3331768Y-314299D01*
X3332327Y-318668D01*
X3331006Y-322884D01*
X3328060Y-326085D01*
X3323996Y-327812D01*
X3319576Y-327609D01*
X3311804Y-325526D01*
X3302000Y-324662D01*
X3292195Y-325526D01*
X3282746Y-328066D01*
X3273806Y-332181D01*
X3265779Y-337820D01*
X3258820Y-344779D01*
X3253181Y-352806D01*
X3249066Y-361746D01*
X3246526Y-371195D01*
X3245662Y-381000D01*
X3246526Y-390804D01*
X3249066Y-400253D01*
X3253181Y-409194D01*
X3258820Y-417220D01*
X3265779Y-424180D01*
X3273806Y-429818D01*
X3282746Y-433933D01*
X3292195Y-436473D01*
X3300222Y-437184D01*
X3303625Y-438099D01*
X3306521Y-440131D01*
X3349294Y-482904D01*
X3351529Y-486206D01*
X3352292Y-490118D01*
X3352292Y-646531D01*
X3351631Y-650138D01*
X3349701Y-653288D01*
X3346754Y-655574D01*
X3343198Y-656640D01*
X3339490Y-656336D01*
X3337204Y-655726D01*
X3327400Y-654862D01*
X3317595Y-655726D01*
X3315309Y-656336D01*
X3311601Y-656640D01*
X3308045Y-655574D01*
X3305098Y-653288D01*
X3303168Y-650138D01*
X3302508Y-646531D01*
X3302508Y-508508D01*
X3301695Y-500481D01*
X3299510Y-493268D01*
X3295954Y-486562D01*
X3290824Y-480364D01*
X3202635Y-392176D01*
X3196437Y-387045D01*
X3189732Y-383489D01*
X3182518Y-381304D01*
X3174492Y-380492D01*
X2754630Y-380492D01*
X2750921Y-379780D01*
X2747670Y-377698D01*
X2745435Y-374650D01*
X2741218Y-365506D01*
X2735580Y-357479D01*
X2728620Y-350520D01*
X2720594Y-344881D01*
X2711653Y-340766D01*
X2702204Y-338226D01*
X2692400Y-337362D01*
X2682595Y-338226D01*
X2673146Y-340766D01*
X2664206Y-344881D01*
X2656179Y-350520D01*
X2649220Y-357479D01*
X2643581Y-365506D01*
X2639466Y-374446D01*
X2636926Y-383895D01*
X2636062Y-393700D01*
X2636926Y-403504D01*
X2639466Y-412953D01*
X2643581Y-421893D01*
X2649220Y-429920D01*
X2656179Y-436880D01*
X2664206Y-442518D01*
X2673146Y-446633D01*
X2682595Y-449173D01*
X2692603Y-450088D01*
X2696514Y-451205D01*
X2703068Y-454710D01*
X2710281Y-456895D01*
X2718308Y-457708D01*
X2868168Y-457708D01*
X2872333Y-458622D01*
X2875737Y-461111D01*
X2877870Y-464820D01*
X2878277Y-469036D01*
X2876905Y-473100D01*
X2874010Y-476199D01*
X2872079Y-477520D01*
X2865120Y-484479D01*
X2859481Y-492506D01*
X2855366Y-501446D01*
X2852826Y-510895D01*
X2851962Y-520700D01*
X2852826Y-530504D01*
X2855468Y-540512D01*
X2855772Y-544372D01*
X2854553Y-548030D01*
X2852064Y-551027D01*
X2848660Y-552856D01*
X2834995Y-554126D01*
X2825546Y-556666D01*
X2816606Y-560781D01*
X2808579Y-566420D01*
X2801620Y-573379D01*
X2795981Y-581406D01*
X2791866Y-590346D01*
X2789326Y-599795D01*
X2788462Y-609600D01*
X2789326Y-619404D01*
X2791866Y-628853D01*
X2795981Y-637794D01*
X2801620Y-645820D01*
X2803194Y-647395D01*
X2805430Y-650697D01*
X2806192Y-654608D01*
X2806192Y-1421231D01*
X2805531Y-1424838D01*
X2803601Y-1427988D01*
X2800654Y-1430274D01*
X2797098Y-1431340D01*
X2793390Y-1431036D01*
X2791104Y-1430426D01*
X2781300Y-1429562D01*
X2771495Y-1430426D01*
X2762046Y-1432966D01*
X2753106Y-1437081D01*
X2745079Y-1442720D01*
X2738120Y-1449679D01*
X2732481Y-1457706D01*
X2728366Y-1466646D01*
X2725826Y-1476095D01*
X2724962Y-1485900D01*
X2725826Y-1495704D01*
X2728366Y-1505153D01*
X2732481Y-1514094D01*
X2738120Y-1522120D01*
X2739694Y-1523695D01*
X2741930Y-1526997D01*
X2742692Y-1530908D01*
X2742692Y-1544523D01*
X2741930Y-1548434D01*
X2739694Y-1551686D01*
X2736443Y-1553921D01*
X2732532Y-1554683D01*
X2676448Y-1554683D01*
X2670911Y-1555242D01*
X2666034Y-1556715D01*
X2661564Y-1559102D01*
X2657246Y-1562608D01*
X2616758Y-1603197D01*
X2613202Y-1607464D01*
X2610815Y-1611934D01*
X2609342Y-1616811D01*
X2608834Y-1622348D01*
X2608834Y-1679651D01*
X2609342Y-1685188D01*
X2610815Y-1690065D01*
X2613202Y-1694535D01*
X2616758Y-1698802D01*
X2657246Y-1739392D01*
X2661564Y-1742897D01*
X2666034Y-1745284D01*
X2670911Y-1746757D01*
G37*
G36*
X5486400Y-1186637D02*
G01*
X5496204Y-1185773D01*
X5505653Y-1183233D01*
X5514594Y-1179118D01*
X5522620Y-1173480D01*
X5529580Y-1166520D01*
X5535218Y-1158494D01*
X5539333Y-1149553D01*
X5541873Y-1140104D01*
X5542737Y-1130300D01*
X5541873Y-1120495D01*
X5539333Y-1111046D01*
X5538673Y-1109522D01*
X5537708Y-1105255D01*
X5537708Y-227634D01*
X5538724Y-223215D01*
X5541518Y-219710D01*
X5546953Y-215341D01*
X5587492Y-174853D01*
X5590997Y-170535D01*
X5593384Y-166065D01*
X5594858Y-161188D01*
X5595416Y-155651D01*
X5595416Y-98348D01*
X5594858Y-92811D01*
X5593384Y-87934D01*
X5590997Y-83464D01*
X5587492Y-79146D01*
X5546953Y-38608D01*
X5542635Y-35102D01*
X5538165Y-32715D01*
X5533288Y-31242D01*
X5527751Y-30683D01*
X5470448Y-30683D01*
X5464911Y-31242D01*
X5460034Y-32715D01*
X5455564Y-35102D01*
X5451246Y-38608D01*
X5410708Y-79146D01*
X5407202Y-83464D01*
X5404815Y-87934D01*
X5403342Y-92811D01*
X5402783Y-98348D01*
X5402783Y-155651D01*
X5403342Y-161188D01*
X5404815Y-166065D01*
X5407202Y-170535D01*
X5410708Y-174853D01*
X5451246Y-215341D01*
X5456682Y-219710D01*
X5459476Y-223215D01*
X5460492Y-227634D01*
X5460492Y-1074623D01*
X5459984Y-1077823D01*
X5458460Y-1080668D01*
X5456174Y-1082954D01*
X5450179Y-1087120D01*
X5443220Y-1094079D01*
X5437581Y-1102106D01*
X5433466Y-1111046D01*
X5430926Y-1120495D01*
X5430062Y-1130300D01*
X5430926Y-1140104D01*
X5433466Y-1149553D01*
X5437581Y-1158494D01*
X5443220Y-1166520D01*
X5450179Y-1173480D01*
X5458206Y-1179118D01*
X5467146Y-1183233D01*
X5476595Y-1185773D01*
G37*
G36*
X5740400Y-1085037D02*
G01*
X5750204Y-1084173D01*
X5759653Y-1081633D01*
X5768594Y-1077518D01*
X5776620Y-1071880D01*
X5783580Y-1064920D01*
X5789218Y-1056894D01*
X5793333Y-1047953D01*
X5795873Y-1038504D01*
X5796737Y-1028700D01*
X5795873Y-1018895D01*
X5793333Y-1009446D01*
X5792673Y-1007922D01*
X5791708Y-1003655D01*
X5791708Y-227634D01*
X5792724Y-223215D01*
X5795518Y-219710D01*
X5800953Y-215341D01*
X5841492Y-174853D01*
X5844997Y-170535D01*
X5847384Y-166065D01*
X5848858Y-161188D01*
X5849416Y-155651D01*
X5849416Y-98348D01*
X5848858Y-92811D01*
X5847384Y-87934D01*
X5844997Y-83464D01*
X5841492Y-79146D01*
X5800953Y-38608D01*
X5796635Y-35102D01*
X5792165Y-32715D01*
X5787288Y-31242D01*
X5781751Y-30683D01*
X5724448Y-30683D01*
X5718911Y-31242D01*
X5714034Y-32715D01*
X5709564Y-35102D01*
X5705246Y-38608D01*
X5664708Y-79146D01*
X5661202Y-83464D01*
X5658815Y-87934D01*
X5657342Y-92811D01*
X5656783Y-98348D01*
X5656783Y-155651D01*
X5657342Y-161188D01*
X5658815Y-166065D01*
X5661202Y-170535D01*
X5664708Y-174853D01*
X5705246Y-215341D01*
X5710682Y-219710D01*
X5713476Y-223215D01*
X5714492Y-227634D01*
X5714492Y-973023D01*
X5713984Y-976223D01*
X5712460Y-979068D01*
X5710174Y-981354D01*
X5704179Y-985519D01*
X5697220Y-992479D01*
X5691581Y-1000506D01*
X5687466Y-1009446D01*
X5684926Y-1018895D01*
X5684062Y-1028700D01*
X5684926Y-1038504D01*
X5687466Y-1047953D01*
X5691581Y-1056894D01*
X5697220Y-1064920D01*
X5704179Y-1071880D01*
X5712206Y-1077518D01*
X5721146Y-1081633D01*
X5730595Y-1084173D01*
G37*
G36*
X1660448Y-223316D02*
G01*
X1717751Y-223316D01*
X1723288Y-222758D01*
X1728165Y-221284D01*
X1732635Y-218897D01*
X1736953Y-215392D01*
X1777492Y-174853D01*
X1780997Y-170535D01*
X1783384Y-166065D01*
X1784857Y-161188D01*
X1785416Y-155651D01*
X1785416Y-98348D01*
X1784857Y-92811D01*
X1783384Y-87934D01*
X1780997Y-83464D01*
X1777492Y-79146D01*
X1736953Y-38608D01*
X1732635Y-35102D01*
X1728165Y-32715D01*
X1723288Y-31242D01*
X1717751Y-30683D01*
X1660448Y-30683D01*
X1654911Y-31242D01*
X1650034Y-32715D01*
X1645564Y-35102D01*
X1641246Y-38608D01*
X1600758Y-79197D01*
X1597202Y-83464D01*
X1594815Y-87934D01*
X1593342Y-92811D01*
X1592834Y-98348D01*
X1592834Y-155651D01*
X1593342Y-161188D01*
X1594815Y-166065D01*
X1597202Y-170535D01*
X1600758Y-174802D01*
X1641246Y-215392D01*
X1645564Y-218897D01*
X1650034Y-221284D01*
X1654911Y-222758D01*
G37*
G36*
X3692448Y-223316D02*
G01*
X3749751Y-223316D01*
X3755288Y-222758D01*
X3760165Y-221284D01*
X3764635Y-218897D01*
X3768953Y-215392D01*
X3809492Y-174853D01*
X3812997Y-170535D01*
X3815384Y-166065D01*
X3816858Y-161188D01*
X3817416Y-155651D01*
X3817416Y-98348D01*
X3816858Y-92811D01*
X3815384Y-87934D01*
X3812997Y-83464D01*
X3809492Y-79146D01*
X3768953Y-38608D01*
X3764635Y-35102D01*
X3760165Y-32715D01*
X3755288Y-31242D01*
X3749751Y-30683D01*
X3692448Y-30683D01*
X3686911Y-31242D01*
X3682034Y-32715D01*
X3677564Y-35102D01*
X3673246Y-38608D01*
X3632758Y-79197D01*
X3629202Y-83464D01*
X3626815Y-87934D01*
X3625342Y-92811D01*
X3624834Y-98348D01*
X3624834Y-155651D01*
X3625342Y-161188D01*
X3626815Y-166065D01*
X3629202Y-170535D01*
X3632758Y-174802D01*
X3673246Y-215392D01*
X3677564Y-218897D01*
X3682034Y-221284D01*
X3686911Y-222758D01*
G37*
G36*
X3438448Y-223316D02*
G01*
X3495751Y-223316D01*
X3501288Y-222758D01*
X3506165Y-221284D01*
X3510635Y-218897D01*
X3514953Y-215392D01*
X3555492Y-174853D01*
X3558997Y-170535D01*
X3561384Y-166065D01*
X3562858Y-161188D01*
X3563416Y-155651D01*
X3563416Y-98348D01*
X3562858Y-92811D01*
X3561384Y-87934D01*
X3558997Y-83464D01*
X3555492Y-79146D01*
X3514953Y-38608D01*
X3510635Y-35102D01*
X3506165Y-32715D01*
X3501288Y-31242D01*
X3495751Y-30683D01*
X3438448Y-30683D01*
X3432911Y-31242D01*
X3428034Y-32715D01*
X3423564Y-35102D01*
X3419246Y-38608D01*
X3378758Y-79197D01*
X3375202Y-83464D01*
X3372815Y-87934D01*
X3371342Y-92811D01*
X3370834Y-98348D01*
X3370834Y-155651D01*
X3371342Y-161188D01*
X3372815Y-166065D01*
X3375202Y-170535D01*
X3378758Y-174802D01*
X3419246Y-215392D01*
X3423564Y-218897D01*
X3428034Y-221284D01*
X3432911Y-222758D01*
G37*
G36*
X4200448Y-223316D02*
G01*
X4257751Y-223316D01*
X4263288Y-222758D01*
X4268165Y-221284D01*
X4272635Y-218897D01*
X4276953Y-215392D01*
X4317492Y-174853D01*
X4320997Y-170535D01*
X4323384Y-166065D01*
X4324858Y-161188D01*
X4325416Y-155651D01*
X4325416Y-98348D01*
X4324858Y-92811D01*
X4323384Y-87934D01*
X4320997Y-83464D01*
X4317492Y-79146D01*
X4276953Y-38608D01*
X4272635Y-35102D01*
X4268165Y-32715D01*
X4263288Y-31242D01*
X4257751Y-30683D01*
X4200448Y-30683D01*
X4194911Y-31242D01*
X4190034Y-32715D01*
X4185564Y-35102D01*
X4181246Y-38608D01*
X4140758Y-79197D01*
X4137202Y-83464D01*
X4134815Y-87934D01*
X4133342Y-92811D01*
X4132834Y-98348D01*
X4132834Y-155651D01*
X4133342Y-161188D01*
X4134815Y-166065D01*
X4137202Y-170535D01*
X4140758Y-174802D01*
X4181246Y-215392D01*
X4185564Y-218897D01*
X4190034Y-221284D01*
X4194911Y-222758D01*
G37*
G36*
X3946448Y-223316D02*
G01*
X4003751Y-223316D01*
X4009288Y-222758D01*
X4014165Y-221284D01*
X4018635Y-218897D01*
X4022953Y-215392D01*
X4063492Y-174853D01*
X4066997Y-170535D01*
X4069384Y-166065D01*
X4070858Y-161188D01*
X4071416Y-155651D01*
X4071416Y-98348D01*
X4070858Y-92811D01*
X4069384Y-87934D01*
X4066997Y-83464D01*
X4063492Y-79146D01*
X4022953Y-38608D01*
X4018635Y-35102D01*
X4014165Y-32715D01*
X4009288Y-31242D01*
X4003751Y-30683D01*
X3946448Y-30683D01*
X3940911Y-31242D01*
X3936034Y-32715D01*
X3931564Y-35102D01*
X3927246Y-38608D01*
X3886758Y-79197D01*
X3883202Y-83464D01*
X3880815Y-87934D01*
X3879342Y-92811D01*
X3878834Y-98348D01*
X3878834Y-155651D01*
X3879342Y-161188D01*
X3880815Y-166065D01*
X3883202Y-170535D01*
X3886758Y-174802D01*
X3927246Y-215392D01*
X3931564Y-218897D01*
X3936034Y-221284D01*
X3940911Y-222758D01*
G37*
G36*
X4454448Y-223316D02*
G01*
X4511751Y-223316D01*
X4517288Y-222758D01*
X4522165Y-221284D01*
X4526635Y-218897D01*
X4530953Y-215392D01*
X4571492Y-174853D01*
X4574997Y-170535D01*
X4577384Y-166065D01*
X4578858Y-161188D01*
X4579416Y-155651D01*
X4579416Y-98348D01*
X4578858Y-92811D01*
X4577384Y-87934D01*
X4574997Y-83464D01*
X4571492Y-79146D01*
X4530953Y-38608D01*
X4526635Y-35102D01*
X4522165Y-32715D01*
X4517288Y-31242D01*
X4511751Y-30683D01*
X4454448Y-30683D01*
X4448911Y-31242D01*
X4444034Y-32715D01*
X4439564Y-35102D01*
X4435246Y-38608D01*
X4394708Y-79146D01*
X4391202Y-83464D01*
X4388815Y-87934D01*
X4387342Y-92811D01*
X4386783Y-98348D01*
X4386783Y-155651D01*
X4387342Y-161188D01*
X4388815Y-166065D01*
X4391202Y-170535D01*
X4394708Y-174853D01*
X4435246Y-215392D01*
X4439564Y-218897D01*
X4444034Y-221284D01*
X4448911Y-222758D01*
G37*
G36*
X4962448Y-223316D02*
G01*
X5019751Y-223316D01*
X5025288Y-222758D01*
X5030165Y-221284D01*
X5034635Y-218897D01*
X5038953Y-215392D01*
X5079492Y-174853D01*
X5082997Y-170535D01*
X5085384Y-166065D01*
X5086858Y-161188D01*
X5087416Y-155651D01*
X5087416Y-98348D01*
X5086858Y-92811D01*
X5085384Y-87934D01*
X5082997Y-83464D01*
X5079492Y-79146D01*
X5038953Y-38608D01*
X5034635Y-35102D01*
X5030165Y-32715D01*
X5025288Y-31242D01*
X5019751Y-30683D01*
X4962448Y-30683D01*
X4956911Y-31242D01*
X4952034Y-32715D01*
X4947564Y-35102D01*
X4943246Y-38608D01*
X4902708Y-79146D01*
X4899202Y-83464D01*
X4896815Y-87934D01*
X4895342Y-92811D01*
X4894783Y-98348D01*
X4894783Y-155651D01*
X4895342Y-161188D01*
X4896815Y-166065D01*
X4899202Y-170535D01*
X4902708Y-174853D01*
X4943246Y-215392D01*
X4947564Y-218897D01*
X4952034Y-221284D01*
X4956911Y-222758D01*
G37*
G36*
X4708448Y-223316D02*
G01*
X4765751Y-223316D01*
X4771288Y-222758D01*
X4776165Y-221284D01*
X4780635Y-218897D01*
X4784953Y-215392D01*
X4825492Y-174853D01*
X4828997Y-170535D01*
X4831384Y-166065D01*
X4832858Y-161188D01*
X4833416Y-155651D01*
X4833416Y-98348D01*
X4832858Y-92811D01*
X4831384Y-87934D01*
X4828997Y-83464D01*
X4825492Y-79146D01*
X4784953Y-38608D01*
X4780635Y-35102D01*
X4776165Y-32715D01*
X4771288Y-31242D01*
X4765751Y-30683D01*
X4708448Y-30683D01*
X4702911Y-31242D01*
X4698034Y-32715D01*
X4693564Y-35102D01*
X4689246Y-38608D01*
X4648708Y-79146D01*
X4645202Y-83464D01*
X4642815Y-87934D01*
X4641342Y-92811D01*
X4640783Y-98348D01*
X4640783Y-155651D01*
X4641342Y-161188D01*
X4642815Y-166065D01*
X4645202Y-170535D01*
X4648708Y-174853D01*
X4689246Y-215392D01*
X4693564Y-218897D01*
X4698034Y-221284D01*
X4702911Y-222758D01*
G37*
G36*
X5962650Y-218135D02*
G01*
X5962650Y-171450D01*
X5915964Y-171450D01*
X5918708Y-174853D01*
X5959246Y-215392D01*
G37*
G36*
X6051550Y-218135D02*
G01*
X6054953Y-215392D01*
X6095492Y-174853D01*
X6098235Y-171450D01*
X6051550Y-171450D01*
G37*
G36*
X5915964Y-82550D02*
G01*
X5962650Y-82550D01*
X5962650Y-35864D01*
X5959246Y-38608D01*
X5918708Y-79146D01*
G37*
G36*
X6051550Y-82550D02*
G01*
X6098235Y-82550D01*
X6095492Y-79146D01*
X6054953Y-38608D01*
X6051550Y-35864D01*
G37*

%LPD*%
G36*
X3474618Y-990092D02*
G01*
X3470706Y-989330D01*
X3467404Y-987094D01*
X3432505Y-952195D01*
X3430270Y-948893D01*
X3429508Y-944981D01*
X3429508Y-928268D01*
X3430168Y-924661D01*
X3432098Y-921512D01*
X3435045Y-919226D01*
X3438601Y-918159D01*
X3442309Y-918464D01*
X3444595Y-919073D01*
X3454400Y-919937D01*
X3464204Y-919073D01*
X3473653Y-916533D01*
X3482594Y-912418D01*
X3490620Y-906780D01*
X3492195Y-905205D01*
X3495497Y-902969D01*
X3499408Y-902208D01*
X3680968Y-902208D01*
X3685286Y-903173D01*
X3688740Y-905814D01*
X3690772Y-909726D01*
X3690975Y-914146D01*
X3689299Y-918210D01*
X3684981Y-924306D01*
X3680866Y-933246D01*
X3678326Y-942695D01*
X3677462Y-952500D01*
X3678326Y-962304D01*
X3680866Y-971753D01*
X3682644Y-975614D01*
X3683609Y-979576D01*
X3682949Y-983589D01*
X3680764Y-986993D01*
X3677412Y-989279D01*
X3673449Y-990092D01*
G37*

%LPD*%
G36*
X3328517Y-1077671D02*
G01*
X3324453Y-1075893D01*
X3321456Y-1072591D01*
X3320237Y-1068273D01*
X3319881Y-1062837D01*
X3320491Y-1058773D01*
X3322574Y-1055319D01*
X3325876Y-1052931D01*
X3329838Y-1052068D01*
X3333851Y-1052779D01*
X3337255Y-1055014D01*
X3341624Y-1059383D01*
X3343910Y-1062939D01*
X3344570Y-1067104D01*
X3343452Y-1071219D01*
X3340811Y-1074470D01*
X3337051Y-1076401D01*
X3332987Y-1077468D01*
G37*

%LPD*%
G36*
X3748532Y-1352905D02*
G01*
X3744620Y-1352143D01*
X3741369Y-1349959D01*
X3476040Y-1084630D01*
X3473856Y-1081379D01*
X3473094Y-1077468D01*
X3473856Y-1073556D01*
X3476040Y-1070305D01*
X3479342Y-1068070D01*
X3483254Y-1067308D01*
X3732631Y-1067308D01*
X3736238Y-1067968D01*
X3739387Y-1069898D01*
X3741674Y-1072845D01*
X3742740Y-1076401D01*
X3742436Y-1080109D01*
X3741826Y-1082395D01*
X3740962Y-1092200D01*
X3741826Y-1102004D01*
X3744366Y-1111453D01*
X3748481Y-1120394D01*
X3754120Y-1128420D01*
X3755694Y-1129995D01*
X3757929Y-1133297D01*
X3758692Y-1137208D01*
X3758692Y-1342745D01*
X3757929Y-1346657D01*
X3755694Y-1349959D01*
X3752443Y-1352143D01*
G37*

%LPD*%
D10*
X4711700Y-406400D02*
G01*
X4699000Y-406400D01*
X4673600Y-381000D01*
X3390900Y-381000D01*
X3304791Y-294896D01*
X2600708Y-294896D01*
X2489205Y-406400D01*
X1866900Y-406400D01*
X4711700Y-330200D02*
G01*
X3403600Y-330200D01*
X3327400Y-254000D01*
X2387600Y-254000D01*
X2260600Y-127000D01*
X2197100Y-127000D01*
X3797300Y-1092200D02*
G01*
X3797300Y-1473200D01*
X3975100Y-1651000D01*
X5232400Y-1244600D02*
G01*
X5245100Y-1231900D01*
X5245100Y-127000D01*
X3352800Y-1130300D02*
G01*
X3390900Y-1130300D01*
X3467100Y-1206500D01*
X3467100Y-1651000D01*
X2781300Y-1485900D02*
G01*
X2781300Y-1574800D01*
X2705100Y-1651000D01*
X4419600Y-867506D02*
G01*
X4415693Y-863600D01*
X3454400Y-863600D01*
X4711700Y-406400D02*
G01*
X4483100Y-635000D01*
X4483100Y-1143000D01*
X4724400Y-1384300D01*
X4762500Y-1384300D01*
X4711700Y-617494D02*
G01*
X4678400Y-617494D01*
X4584700Y-711200D01*
X4584700Y-1092200D01*
X4749800Y-1257300D01*
X4851400Y-1257300D01*
X5245100Y-1651000D01*
X4711700Y-711200D02*
G01*
X4686300Y-711200D01*
X4635500Y-762000D01*
X4635500Y-1066800D01*
X4762500Y-1193800D01*
X4876800Y-1193800D01*
X5232400Y-1549400D01*
X5397500Y-1549400D01*
X5499100Y-1651000D01*
X5143500Y-850900D02*
G01*
X5156200Y-863600D01*
X5156200Y-1270000D01*
X5384800Y-1498600D01*
X5600700Y-1498600D01*
X5753100Y-1651000D01*
X5740400Y-1663700D01*
X2844800Y-609600D02*
G01*
X2844800Y-1524000D01*
X2959100Y-1638300D01*
X2959100Y-1651000D01*
X3327400Y-711200D02*
G01*
X3327400Y-990600D01*
X3721100Y-1384300D01*
X3721100Y-1651000D01*
X4229100Y-1651000D02*
G01*
X4229100Y-1397000D01*
X3860800Y-1028700D01*
X3454400Y-1028700D01*
X3390900Y-965200D01*
X3390900Y-469900D01*
X3302000Y-381000D01*
X3733800Y-952500D02*
G01*
X3759200Y-977900D01*
X3873500Y-977900D01*
X4483100Y-1587500D01*
X4483100Y-1651000D01*
X3263900Y-1066800D02*
G01*
X3263900Y-508000D01*
X3175000Y-419100D01*
X2717800Y-419100D01*
X2692400Y-393700D01*
X4711700Y-533400D02*
G01*
X4686300Y-533400D01*
X4533900Y-685800D01*
X4533900Y-1117600D01*
X4737100Y-1320800D01*
X4800600Y-1320800D01*
X4991100Y-1511300D01*
X4991100Y-1651000D01*
X5486400Y-1130300D02*
G01*
X5499100Y-1117600D01*
X5499100Y-127000D01*
X5740400Y-1028700D02*
G01*
X5753100Y-1016000D01*
X5753100Y-127000D01*
X2413000Y-342900D02*
G01*
X2146300Y-342900D01*
X1943100Y-139700D01*
X1943100Y-127000D01*
X2908300Y-520700D02*
G01*
X2908300Y-1511300D01*
X2933700Y-1536700D01*
X3098800Y-1536700D01*
X3213100Y-1651000D01*
G36*
X5936691Y-156159D02*
G01*
X5977940Y-197408D01*
X6036259Y-197408D01*
X6077508Y-156159D01*
X6077508Y-97840D01*
X6036259Y-56591D01*
X5977940Y-56591D01*
X5936691Y-97840D01*
X5936691Y-156159D01*
G37*
G36*
X5682691Y-156159D02*
G01*
X5723940Y-197408D01*
X5782259Y-197408D01*
X5823508Y-156159D01*
X5823508Y-97840D01*
X5782259Y-56591D01*
X5723940Y-56591D01*
X5682691Y-97840D01*
X5682691Y-156159D01*
G37*
G36*
X5428691Y-156159D02*
G01*
X5469940Y-197408D01*
X5528259Y-197408D01*
X5569508Y-156159D01*
X5569508Y-97840D01*
X5528259Y-56591D01*
X5469940Y-56591D01*
X5428691Y-97840D01*
X5428691Y-156159D01*
G37*
G36*
X5174691Y-156159D02*
G01*
X5215940Y-197408D01*
X5274259Y-197408D01*
X5315508Y-156159D01*
X5315508Y-97840D01*
X5274259Y-56591D01*
X5215940Y-56591D01*
X5174691Y-97840D01*
X5174691Y-156159D01*
G37*
G36*
X4920691Y-156159D02*
G01*
X4961940Y-197408D01*
X5020259Y-197408D01*
X5061508Y-156159D01*
X5061508Y-97840D01*
X5020259Y-56591D01*
X4961940Y-56591D01*
X4920691Y-97840D01*
X4920691Y-156159D01*
G37*
G36*
X4666691Y-156159D02*
G01*
X4707940Y-197408D01*
X4766259Y-197408D01*
X4807508Y-156159D01*
X4807508Y-97840D01*
X4766259Y-56591D01*
X4707940Y-56591D01*
X4666691Y-97840D01*
X4666691Y-156159D01*
G37*
G36*
X4412691Y-156159D02*
G01*
X4453940Y-197408D01*
X4512259Y-197408D01*
X4553508Y-156159D01*
X4553508Y-97840D01*
X4512259Y-56591D01*
X4453940Y-56591D01*
X4412691Y-97840D01*
X4412691Y-156159D01*
G37*
G36*
X4158716Y-156159D02*
G01*
X4199940Y-197408D01*
X4258259Y-197408D01*
X4299508Y-156159D01*
X4299508Y-97840D01*
X4258259Y-56591D01*
X4199940Y-56591D01*
X4158716Y-97840D01*
X4158716Y-156159D01*
G37*
G36*
X3904716Y-156159D02*
G01*
X3945940Y-197408D01*
X4004259Y-197408D01*
X4045508Y-156159D01*
X4045508Y-97840D01*
X4004259Y-56591D01*
X3945940Y-56591D01*
X3904716Y-97840D01*
X3904716Y-156159D01*
G37*
G36*
X3650716Y-156159D02*
G01*
X3691940Y-197408D01*
X3750259Y-197408D01*
X3791508Y-156159D01*
X3791508Y-97840D01*
X3750259Y-56591D01*
X3691940Y-56591D01*
X3650716Y-97840D01*
X3650716Y-156159D01*
G37*
G36*
X3396716Y-156159D02*
G01*
X3437940Y-197408D01*
X3496259Y-197408D01*
X3537508Y-156159D01*
X3537508Y-97840D01*
X3496259Y-56591D01*
X3437940Y-56591D01*
X3396716Y-97840D01*
X3396716Y-156159D01*
G37*
G36*
X3142716Y-156159D02*
G01*
X3183940Y-197408D01*
X3242259Y-197408D01*
X3283508Y-156159D01*
X3283508Y-97840D01*
X3242259Y-56591D01*
X3183940Y-56591D01*
X3142716Y-97840D01*
X3142716Y-156159D01*
G37*
G36*
X2888716Y-156159D02*
G01*
X2929940Y-197408D01*
X2988259Y-197408D01*
X3029508Y-156159D01*
X3029508Y-97840D01*
X2988259Y-56591D01*
X2929940Y-56591D01*
X2888716Y-97840D01*
X2888716Y-156159D01*
G37*
G36*
X2634716Y-156159D02*
G01*
X2675940Y-197408D01*
X2734259Y-197408D01*
X2775508Y-156159D01*
X2775508Y-97840D01*
X2734259Y-56591D01*
X2675940Y-56591D01*
X2634716Y-97840D01*
X2634716Y-156159D01*
G37*
G36*
X2380716Y-156159D02*
G01*
X2421940Y-197408D01*
X2480259Y-197408D01*
X2521508Y-156159D01*
X2521508Y-97840D01*
X2480259Y-56591D01*
X2421940Y-56591D01*
X2380716Y-97840D01*
X2380716Y-156159D01*
G37*
G36*
X2126716Y-156159D02*
G01*
X2167940Y-197408D01*
X2226259Y-197408D01*
X2267508Y-156159D01*
X2267508Y-97840D01*
X2226259Y-56591D01*
X2167940Y-56591D01*
X2126716Y-97840D01*
X2126716Y-156159D01*
G37*
G36*
X1872716Y-156159D02*
G01*
X1913940Y-197408D01*
X1972259Y-197408D01*
X2013508Y-156159D01*
X2013508Y-97840D01*
X1972259Y-56591D01*
X1913940Y-56591D01*
X1872716Y-97840D01*
X1872716Y-156159D01*
G37*
G36*
X1618716Y-156159D02*
G01*
X1659940Y-197408D01*
X1718259Y-197408D01*
X1759508Y-156159D01*
X1759508Y-97840D01*
X1718259Y-56591D01*
X1659940Y-56591D01*
X1618716Y-97840D01*
X1618716Y-156159D01*
G37*
G36*
X1759508Y-1621840D02*
G01*
X1718259Y-1580591D01*
X1659940Y-1580591D01*
X1618716Y-1621840D01*
X1618716Y-1680159D01*
X1659940Y-1721408D01*
X1718259Y-1721408D01*
X1759508Y-1680159D01*
X1759508Y-1621840D01*
G37*
G36*
X2013508Y-1621840D02*
G01*
X1972259Y-1580591D01*
X1913940Y-1580591D01*
X1872716Y-1621840D01*
X1872716Y-1680159D01*
X1913940Y-1721408D01*
X1972259Y-1721408D01*
X2013508Y-1680159D01*
X2013508Y-1621840D01*
G37*
G36*
X2267508Y-1621840D02*
G01*
X2226259Y-1580591D01*
X2167940Y-1580591D01*
X2126716Y-1621840D01*
X2126716Y-1680159D01*
X2167940Y-1721408D01*
X2226259Y-1721408D01*
X2267508Y-1680159D01*
X2267508Y-1621840D01*
G37*
G36*
X2521508Y-1621840D02*
G01*
X2480259Y-1580591D01*
X2421940Y-1580591D01*
X2380716Y-1621840D01*
X2380716Y-1680159D01*
X2421940Y-1721408D01*
X2480259Y-1721408D01*
X2521508Y-1680159D01*
X2521508Y-1621840D01*
G37*
G36*
X2775508Y-1621840D02*
G01*
X2734259Y-1580591D01*
X2675940Y-1580591D01*
X2634716Y-1621840D01*
X2634716Y-1680159D01*
X2675940Y-1721408D01*
X2734259Y-1721408D01*
X2775508Y-1680159D01*
X2775508Y-1621840D01*
G37*
G36*
X3029508Y-1621840D02*
G01*
X2988259Y-1580591D01*
X2929940Y-1580591D01*
X2888716Y-1621840D01*
X2888716Y-1680159D01*
X2929940Y-1721408D01*
X2988259Y-1721408D01*
X3029508Y-1680159D01*
X3029508Y-1621840D01*
G37*
G36*
X3283508Y-1621840D02*
G01*
X3242259Y-1580591D01*
X3183940Y-1580591D01*
X3142716Y-1621840D01*
X3142716Y-1680159D01*
X3183940Y-1721408D01*
X3242259Y-1721408D01*
X3283508Y-1680159D01*
X3283508Y-1621840D01*
G37*
G36*
X3537508Y-1621840D02*
G01*
X3496259Y-1580591D01*
X3437940Y-1580591D01*
X3396716Y-1621840D01*
X3396716Y-1680159D01*
X3437940Y-1721408D01*
X3496259Y-1721408D01*
X3537508Y-1680159D01*
X3537508Y-1621840D01*
G37*
G36*
X3791508Y-1621840D02*
G01*
X3750259Y-1580591D01*
X3691940Y-1580591D01*
X3650716Y-1621840D01*
X3650716Y-1680159D01*
X3691940Y-1721408D01*
X3750259Y-1721408D01*
X3791508Y-1680159D01*
X3791508Y-1621840D01*
G37*
G36*
X4045508Y-1621840D02*
G01*
X4004259Y-1580591D01*
X3945940Y-1580591D01*
X3904716Y-1621840D01*
X3904716Y-1680159D01*
X3945940Y-1721408D01*
X4004259Y-1721408D01*
X4045508Y-1680159D01*
X4045508Y-1621840D01*
G37*
G36*
X4299508Y-1621840D02*
G01*
X4258259Y-1580591D01*
X4199940Y-1580591D01*
X4158716Y-1621840D01*
X4158716Y-1680159D01*
X4199940Y-1721408D01*
X4258259Y-1721408D01*
X4299508Y-1680159D01*
X4299508Y-1621840D01*
G37*
G36*
X4553508Y-1621840D02*
G01*
X4512259Y-1580591D01*
X4453940Y-1580591D01*
X4412691Y-1621840D01*
X4412691Y-1680159D01*
X4453940Y-1721408D01*
X4512259Y-1721408D01*
X4553508Y-1680159D01*
X4553508Y-1621840D01*
G37*
G36*
X4807508Y-1621840D02*
G01*
X4766259Y-1580591D01*
X4707940Y-1580591D01*
X4666691Y-1621840D01*
X4666691Y-1680159D01*
X4707940Y-1721408D01*
X4766259Y-1721408D01*
X4807508Y-1680159D01*
X4807508Y-1621840D01*
G37*
G36*
X5061508Y-1621840D02*
G01*
X5020259Y-1580591D01*
X4961940Y-1580591D01*
X4920691Y-1621840D01*
X4920691Y-1680159D01*
X4961940Y-1721408D01*
X5020259Y-1721408D01*
X5061508Y-1680159D01*
X5061508Y-1621840D01*
G37*
G36*
X5315508Y-1621840D02*
G01*
X5274259Y-1580591D01*
X5215940Y-1580591D01*
X5174691Y-1621840D01*
X5174691Y-1680159D01*
X5215940Y-1721408D01*
X5274259Y-1721408D01*
X5315508Y-1680159D01*
X5315508Y-1621840D01*
G37*
G36*
X5569508Y-1621840D02*
G01*
X5528259Y-1580591D01*
X5469940Y-1580591D01*
X5428691Y-1621840D01*
X5428691Y-1680159D01*
X5469940Y-1721408D01*
X5528259Y-1721408D01*
X5569508Y-1680159D01*
X5569508Y-1621840D01*
G37*
G36*
X5823508Y-1621840D02*
G01*
X5782259Y-1580591D01*
X5723940Y-1580591D01*
X5682691Y-1621840D01*
X5682691Y-1680159D01*
X5723940Y-1721408D01*
X5782259Y-1721408D01*
X5823508Y-1680159D01*
X5823508Y-1621840D01*
G37*
G36*
X6077508Y-1621840D02*
G01*
X6036259Y-1580591D01*
X5977940Y-1580591D01*
X5936691Y-1621840D01*
X5936691Y-1680159D01*
X5977940Y-1721408D01*
X6036259Y-1721408D01*
X6077508Y-1680159D01*
X6077508Y-1621840D01*
G37*
D12*
G01*
X2413000Y-342900D03*
G01*
X5740400Y-1028700D03*
G01*
X4711700Y-330200D03*
G01*
X4711700Y-406400D03*
G01*
X4762500Y-1384300D03*
G01*
X4711700Y-533400D03*
G01*
X4711700Y-617499D03*
G01*
X4711700Y-711200D03*
G01*
X4419600Y-867511D03*
G01*
X3454400Y-863600D03*
G01*
X2781300Y-1485900D03*
G01*
X2844800Y-609600D03*
G01*
X2908300Y-520700D03*
G01*
X3263900Y-1066800D03*
G01*
X2692400Y-393700D03*
G01*
X3352800Y-1130300D03*
G01*
X5232400Y-1244600D03*
G01*
X5486400Y-1130300D03*
G01*
X3797300Y-1092200D03*
G01*
X3327400Y-711200D03*
G01*
X3733800Y-952500D03*
G01*
X3302000Y-381000D03*
G01*
X5143500Y-850900D03*
M02*
