G04 Layer: BottomSolderMaskLayer*
G04 EasyEDA v6.5.3, 2022-05-09 11:27:13*
G04 baffbd41b27947a08c2bb0c717e604c5,b03e5731a7a74599b12e1065cb71c7ef,10*
G04 Gerber Generator version 0.2*
G04 Scale: 100 percent, Rotated: No, Reflected: No *
G04 Dimensions in millimeters *
G04 leading zeros omitted , absolute positions ,4 integer and 5 decimal *
%FSLAX45Y45*%
%MOMM*%

%ADD10C,0.0001*%

%LPD*%
G36*
X5973825Y-207518D02*
G01*
X5926581Y-160273D01*
X5926581Y-93726D01*
X5973825Y-46481D01*
X6040374Y-46481D01*
X6087618Y-93726D01*
X6087618Y-160273D01*
X6040374Y-207518D01*
G37*
G36*
X5719825Y-207518D02*
G01*
X5672581Y-160273D01*
X5672581Y-93726D01*
X5719825Y-46481D01*
X5786374Y-46481D01*
X5833618Y-93726D01*
X5833618Y-160273D01*
X5786374Y-207518D01*
G37*
G36*
X5465825Y-207518D02*
G01*
X5418581Y-160273D01*
X5418581Y-93726D01*
X5465825Y-46481D01*
X5532374Y-46481D01*
X5579618Y-93726D01*
X5579618Y-160273D01*
X5532374Y-207518D01*
G37*
G36*
X5211825Y-207518D02*
G01*
X5164581Y-160273D01*
X5164581Y-93726D01*
X5211825Y-46481D01*
X5278374Y-46481D01*
X5325618Y-93726D01*
X5325618Y-160273D01*
X5278374Y-207518D01*
G37*
G36*
X4957825Y-207518D02*
G01*
X4910581Y-160273D01*
X4910581Y-93726D01*
X4957825Y-46481D01*
X5024374Y-46481D01*
X5071618Y-93726D01*
X5071618Y-160273D01*
X5024374Y-207518D01*
G37*
G36*
X4703825Y-207518D02*
G01*
X4656581Y-160273D01*
X4656581Y-93726D01*
X4703825Y-46481D01*
X4770374Y-46481D01*
X4817618Y-93726D01*
X4817618Y-160273D01*
X4770374Y-207518D01*
G37*
G36*
X4449825Y-207518D02*
G01*
X4402581Y-160273D01*
X4402581Y-93726D01*
X4449825Y-46481D01*
X4516374Y-46481D01*
X4563618Y-93726D01*
X4563618Y-160273D01*
X4516374Y-207518D01*
G37*
G36*
X4195825Y-207518D02*
G01*
X4148581Y-160273D01*
X4148581Y-93726D01*
X4195825Y-46481D01*
X4262374Y-46481D01*
X4309618Y-93726D01*
X4309618Y-160273D01*
X4262374Y-207518D01*
G37*
G36*
X3941825Y-207518D02*
G01*
X3894581Y-160273D01*
X3894581Y-93726D01*
X3941825Y-46481D01*
X4008374Y-46481D01*
X4055618Y-93726D01*
X4055618Y-160273D01*
X4008374Y-207518D01*
G37*
G36*
X3687825Y-207518D02*
G01*
X3640581Y-160273D01*
X3640581Y-93726D01*
X3687825Y-46481D01*
X3754374Y-46481D01*
X3801618Y-93726D01*
X3801618Y-160273D01*
X3754374Y-207518D01*
G37*
G36*
X3433825Y-207518D02*
G01*
X3386581Y-160273D01*
X3386581Y-93726D01*
X3433825Y-46481D01*
X3500374Y-46481D01*
X3547618Y-93726D01*
X3547618Y-160273D01*
X3500374Y-207518D01*
G37*
G36*
X3179825Y-207518D02*
G01*
X3132581Y-160273D01*
X3132581Y-93726D01*
X3179825Y-46481D01*
X3246374Y-46481D01*
X3293618Y-93726D01*
X3293618Y-160273D01*
X3246374Y-207518D01*
G37*
G36*
X2925825Y-207518D02*
G01*
X2878581Y-160273D01*
X2878581Y-93726D01*
X2925825Y-46481D01*
X2992374Y-46481D01*
X3039618Y-93726D01*
X3039618Y-160273D01*
X2992374Y-207518D01*
G37*
G36*
X2671825Y-207518D02*
G01*
X2624581Y-160273D01*
X2624581Y-93726D01*
X2671825Y-46481D01*
X2738374Y-46481D01*
X2785618Y-93726D01*
X2785618Y-160273D01*
X2738374Y-207518D01*
G37*
G36*
X2417825Y-207518D02*
G01*
X2370581Y-160273D01*
X2370581Y-93726D01*
X2417825Y-46481D01*
X2484374Y-46481D01*
X2531618Y-93726D01*
X2531618Y-160273D01*
X2484374Y-207518D01*
G37*
G36*
X2163825Y-207518D02*
G01*
X2116581Y-160273D01*
X2116581Y-93726D01*
X2163825Y-46481D01*
X2230374Y-46481D01*
X2277618Y-93726D01*
X2277618Y-160273D01*
X2230374Y-207518D01*
G37*
G36*
X1909826Y-207518D02*
G01*
X1862581Y-160273D01*
X1862581Y-93726D01*
X1909826Y-46481D01*
X1976374Y-46481D01*
X2023618Y-93726D01*
X2023618Y-160273D01*
X1976374Y-207518D01*
G37*
G36*
X1655826Y-207518D02*
G01*
X1608581Y-160273D01*
X1608581Y-93726D01*
X1655826Y-46481D01*
X1722373Y-46481D01*
X1769618Y-93726D01*
X1769618Y-160273D01*
X1722373Y-207518D01*
G37*
G36*
X1655826Y-1731518D02*
G01*
X1608581Y-1684273D01*
X1608581Y-1617726D01*
X1655826Y-1570481D01*
X1722373Y-1570481D01*
X1769618Y-1617726D01*
X1769618Y-1684273D01*
X1722373Y-1731518D01*
G37*
G36*
X1909826Y-1731518D02*
G01*
X1862581Y-1684273D01*
X1862581Y-1617726D01*
X1909826Y-1570481D01*
X1976374Y-1570481D01*
X2023618Y-1617726D01*
X2023618Y-1684273D01*
X1976374Y-1731518D01*
G37*
G36*
X2163825Y-1731518D02*
G01*
X2116581Y-1684273D01*
X2116581Y-1617726D01*
X2163825Y-1570481D01*
X2230374Y-1570481D01*
X2277618Y-1617726D01*
X2277618Y-1684273D01*
X2230374Y-1731518D01*
G37*
G36*
X2417825Y-1731518D02*
G01*
X2370581Y-1684273D01*
X2370581Y-1617726D01*
X2417825Y-1570481D01*
X2484374Y-1570481D01*
X2531618Y-1617726D01*
X2531618Y-1684273D01*
X2484374Y-1731518D01*
G37*
G36*
X2671825Y-1731518D02*
G01*
X2624581Y-1684273D01*
X2624581Y-1617726D01*
X2671825Y-1570481D01*
X2738374Y-1570481D01*
X2785618Y-1617726D01*
X2785618Y-1684273D01*
X2738374Y-1731518D01*
G37*
G36*
X2925825Y-1731518D02*
G01*
X2878581Y-1684273D01*
X2878581Y-1617726D01*
X2925825Y-1570481D01*
X2992374Y-1570481D01*
X3039618Y-1617726D01*
X3039618Y-1684273D01*
X2992374Y-1731518D01*
G37*
G36*
X3179825Y-1731518D02*
G01*
X3132581Y-1684273D01*
X3132581Y-1617726D01*
X3179825Y-1570481D01*
X3246374Y-1570481D01*
X3293618Y-1617726D01*
X3293618Y-1684273D01*
X3246374Y-1731518D01*
G37*
G36*
X3433825Y-1731518D02*
G01*
X3386581Y-1684273D01*
X3386581Y-1617726D01*
X3433825Y-1570481D01*
X3500374Y-1570481D01*
X3547618Y-1617726D01*
X3547618Y-1684273D01*
X3500374Y-1731518D01*
G37*
G36*
X3687825Y-1731518D02*
G01*
X3640581Y-1684273D01*
X3640581Y-1617726D01*
X3687825Y-1570481D01*
X3754374Y-1570481D01*
X3801618Y-1617726D01*
X3801618Y-1684273D01*
X3754374Y-1731518D01*
G37*
G36*
X3941825Y-1731518D02*
G01*
X3894581Y-1684273D01*
X3894581Y-1617726D01*
X3941825Y-1570481D01*
X4008374Y-1570481D01*
X4055618Y-1617726D01*
X4055618Y-1684273D01*
X4008374Y-1731518D01*
G37*
G36*
X4195825Y-1731518D02*
G01*
X4148581Y-1684273D01*
X4148581Y-1617726D01*
X4195825Y-1570481D01*
X4262374Y-1570481D01*
X4309618Y-1617726D01*
X4309618Y-1684273D01*
X4262374Y-1731518D01*
G37*
G36*
X4449825Y-1731518D02*
G01*
X4402581Y-1684273D01*
X4402581Y-1617726D01*
X4449825Y-1570481D01*
X4516374Y-1570481D01*
X4563618Y-1617726D01*
X4563618Y-1684273D01*
X4516374Y-1731518D01*
G37*
G36*
X4703825Y-1731518D02*
G01*
X4656581Y-1684273D01*
X4656581Y-1617726D01*
X4703825Y-1570481D01*
X4770374Y-1570481D01*
X4817618Y-1617726D01*
X4817618Y-1684273D01*
X4770374Y-1731518D01*
G37*
G36*
X4957825Y-1731518D02*
G01*
X4910581Y-1684273D01*
X4910581Y-1617726D01*
X4957825Y-1570481D01*
X5024374Y-1570481D01*
X5071618Y-1617726D01*
X5071618Y-1684273D01*
X5024374Y-1731518D01*
G37*
G36*
X5211825Y-1731518D02*
G01*
X5164581Y-1684273D01*
X5164581Y-1617726D01*
X5211825Y-1570481D01*
X5278374Y-1570481D01*
X5325618Y-1617726D01*
X5325618Y-1684273D01*
X5278374Y-1731518D01*
G37*
G36*
X5465825Y-1731518D02*
G01*
X5418581Y-1684273D01*
X5418581Y-1617726D01*
X5465825Y-1570481D01*
X5532374Y-1570481D01*
X5579618Y-1617726D01*
X5579618Y-1684273D01*
X5532374Y-1731518D01*
G37*
G36*
X5719825Y-1731518D02*
G01*
X5672581Y-1684273D01*
X5672581Y-1617726D01*
X5719825Y-1570481D01*
X5786374Y-1570481D01*
X5833618Y-1617726D01*
X5833618Y-1684273D01*
X5786374Y-1731518D01*
G37*
G36*
X5973825Y-1731518D02*
G01*
X5926581Y-1684273D01*
X5926581Y-1617726D01*
X5973825Y-1570481D01*
X6040374Y-1570481D01*
X6087618Y-1617726D01*
X6087618Y-1684273D01*
X6040374Y-1731518D01*
G37*
M02*
