G04 Layer: TopLayer*
G04 EasyEDA v6.5.3, 2022-05-09 11:27:13*
G04 baffbd41b27947a08c2bb0c717e604c5,b03e5731a7a74599b12e1065cb71c7ef,10*
G04 Gerber Generator version 0.2*
G04 Scale: 100 percent, Rotated: No, Reflected: No *
G04 Dimensions in millimeters *
G04 leading zeros omitted , absolute positions ,4 integer and 5 decimal *
%FSLAX45Y45*%
%MOMM*%

%ADD10C,0.2540*%
%ADD11C,0.2800*%
%ADD12C,0.6096*%
%ADD13R,1.2000X1.4000*%

%LPD*%
G36*
X1534668Y-1777492D02*
G01*
X1530756Y-1776730D01*
X1527505Y-1774494D01*
X1525270Y-1771243D01*
X1524508Y-1767332D01*
X1524508Y-10668D01*
X1525270Y-6756D01*
X1527505Y-3505D01*
X1530756Y-1270D01*
X1534668Y-508D01*
X6123432Y-508D01*
X6127343Y-1270D01*
X6130594Y-3505D01*
X6132830Y-6756D01*
X6133592Y-10668D01*
X6133592Y-1767332D01*
X6132830Y-1771243D01*
X6130594Y-1774494D01*
X6127343Y-1776730D01*
X6123432Y-1777492D01*
G37*

%LPC*%
G36*
X5724448Y-1747316D02*
G01*
X5781751Y-1747316D01*
X5787288Y-1746757D01*
X5792165Y-1745284D01*
X5796635Y-1742897D01*
X5800953Y-1739392D01*
X5841492Y-1698853D01*
X5844997Y-1694535D01*
X5847384Y-1690065D01*
X5848858Y-1685188D01*
X5849416Y-1679651D01*
X5849416Y-1622348D01*
X5848858Y-1616811D01*
X5847384Y-1611934D01*
X5844997Y-1607464D01*
X5841492Y-1603146D01*
X5800953Y-1562608D01*
X5796635Y-1559102D01*
X5792165Y-1556715D01*
X5787288Y-1555242D01*
X5781751Y-1554683D01*
X5724448Y-1554683D01*
X5718911Y-1555242D01*
X5714034Y-1556715D01*
X5709564Y-1559102D01*
X5705246Y-1562608D01*
X5664708Y-1603146D01*
X5661202Y-1607464D01*
X5658815Y-1611934D01*
X5657342Y-1616811D01*
X5656783Y-1622348D01*
X5656783Y-1679651D01*
X5657342Y-1685188D01*
X5658815Y-1690065D01*
X5661202Y-1694535D01*
X5664708Y-1698853D01*
X5705246Y-1739392D01*
X5709564Y-1742897D01*
X5714034Y-1745284D01*
X5718911Y-1746757D01*
G37*
G36*
X5216448Y-1747316D02*
G01*
X5273751Y-1747316D01*
X5279288Y-1746757D01*
X5284165Y-1745284D01*
X5288635Y-1742897D01*
X5292953Y-1739392D01*
X5333492Y-1698853D01*
X5336997Y-1694535D01*
X5339384Y-1690065D01*
X5340858Y-1685188D01*
X5341416Y-1679651D01*
X5341416Y-1622348D01*
X5340858Y-1616811D01*
X5339384Y-1611934D01*
X5336997Y-1607464D01*
X5333492Y-1603146D01*
X5292953Y-1562608D01*
X5288635Y-1559102D01*
X5284165Y-1556715D01*
X5279288Y-1555242D01*
X5273751Y-1554683D01*
X5216448Y-1554683D01*
X5210911Y-1555242D01*
X5206034Y-1556715D01*
X5201564Y-1559102D01*
X5197246Y-1562608D01*
X5156708Y-1603146D01*
X5153202Y-1607464D01*
X5150815Y-1611934D01*
X5149342Y-1616811D01*
X5148783Y-1622348D01*
X5148783Y-1679651D01*
X5149342Y-1685188D01*
X5150815Y-1690065D01*
X5153202Y-1694535D01*
X5156708Y-1698853D01*
X5197246Y-1739392D01*
X5201564Y-1742897D01*
X5206034Y-1745284D01*
X5210911Y-1746757D01*
G37*
G36*
X5470448Y-1747316D02*
G01*
X5527751Y-1747316D01*
X5533288Y-1746757D01*
X5538165Y-1745284D01*
X5542635Y-1742897D01*
X5546953Y-1739392D01*
X5587492Y-1698853D01*
X5590997Y-1694535D01*
X5593384Y-1690065D01*
X5594858Y-1685188D01*
X5595416Y-1679651D01*
X5595416Y-1622348D01*
X5594858Y-1616811D01*
X5593384Y-1611934D01*
X5590997Y-1607464D01*
X5587492Y-1603146D01*
X5546953Y-1562608D01*
X5542635Y-1559102D01*
X5538165Y-1556715D01*
X5533288Y-1555242D01*
X5527751Y-1554683D01*
X5470448Y-1554683D01*
X5464911Y-1555242D01*
X5460034Y-1556715D01*
X5455564Y-1559102D01*
X5451246Y-1562608D01*
X5410708Y-1603146D01*
X5407202Y-1607464D01*
X5404815Y-1611934D01*
X5403342Y-1616811D01*
X5402783Y-1622348D01*
X5402783Y-1679651D01*
X5403342Y-1685188D01*
X5404815Y-1690065D01*
X5407202Y-1694535D01*
X5410708Y-1698853D01*
X5451246Y-1739392D01*
X5455564Y-1742897D01*
X5460034Y-1745284D01*
X5464911Y-1746757D01*
G37*
G36*
X1660448Y-1747316D02*
G01*
X1717751Y-1747316D01*
X1723288Y-1746757D01*
X1728165Y-1745284D01*
X1732635Y-1742897D01*
X1736953Y-1739392D01*
X1777492Y-1698853D01*
X1780997Y-1694535D01*
X1783384Y-1690065D01*
X1784857Y-1685188D01*
X1785416Y-1679651D01*
X1785416Y-1622348D01*
X1784857Y-1616811D01*
X1783384Y-1611934D01*
X1780997Y-1607464D01*
X1777492Y-1603146D01*
X1736953Y-1562658D01*
X1731518Y-1558290D01*
X1728724Y-1554784D01*
X1727707Y-1550365D01*
X1727707Y-1509268D01*
X1728368Y-1505610D01*
X1730349Y-1502460D01*
X1733296Y-1500174D01*
X1736902Y-1499158D01*
X1744929Y-1498346D01*
X1750314Y-1496466D01*
X1755190Y-1493418D01*
X1759305Y-1489303D01*
X1762404Y-1484426D01*
X1764284Y-1478940D01*
X1764995Y-1472641D01*
X1764995Y-1443685D01*
X1764436Y-1438097D01*
X1762963Y-1433220D01*
X1761693Y-1430883D01*
X1760575Y-1427581D01*
X1760677Y-1424076D01*
X1762556Y-1419758D01*
X1764334Y-1414475D01*
X1764995Y-1408328D01*
X1764995Y-1359458D01*
X1764284Y-1353159D01*
X1762404Y-1347673D01*
X1759305Y-1342796D01*
X1755190Y-1338681D01*
X1750314Y-1335633D01*
X1744929Y-1333754D01*
X1736902Y-1332941D01*
X1733296Y-1331925D01*
X1730349Y-1329639D01*
X1728368Y-1326489D01*
X1727707Y-1322832D01*
X1727707Y-1226718D01*
X1728470Y-1222806D01*
X1730705Y-1219504D01*
X1887169Y-1063040D01*
X1890420Y-1060856D01*
X1894332Y-1060094D01*
X1898243Y-1060856D01*
X1901494Y-1063040D01*
X1903730Y-1066342D01*
X1904492Y-1070254D01*
X1904492Y-1550365D01*
X1903475Y-1554784D01*
X1900682Y-1558290D01*
X1895195Y-1562658D01*
X1854758Y-1603197D01*
X1851202Y-1607464D01*
X1848815Y-1611934D01*
X1847342Y-1616811D01*
X1846834Y-1622348D01*
X1846834Y-1679651D01*
X1847342Y-1685188D01*
X1848815Y-1690065D01*
X1851202Y-1694535D01*
X1854758Y-1698802D01*
X1895246Y-1739392D01*
X1899564Y-1742897D01*
X1904034Y-1745284D01*
X1908911Y-1746757D01*
X1914448Y-1747316D01*
X1971751Y-1747316D01*
X1977288Y-1746757D01*
X1982165Y-1745284D01*
X1986635Y-1742897D01*
X1990953Y-1739392D01*
X2031492Y-1698853D01*
X2034997Y-1694535D01*
X2037384Y-1690065D01*
X2038857Y-1685188D01*
X2039416Y-1679651D01*
X2039416Y-1622348D01*
X2038857Y-1616811D01*
X2037384Y-1611934D01*
X2034997Y-1607464D01*
X2031492Y-1603146D01*
X1990953Y-1562658D01*
X1985518Y-1558290D01*
X1982724Y-1554784D01*
X1981707Y-1550365D01*
X1981707Y-1036218D01*
X1982470Y-1032306D01*
X1984705Y-1029004D01*
X2054656Y-959053D01*
X2057958Y-956818D01*
X2061870Y-956056D01*
X2901797Y-956056D01*
X2905709Y-956818D01*
X2909011Y-959053D01*
X2911195Y-962304D01*
X2911957Y-966216D01*
X2911195Y-970127D01*
X2909011Y-973378D01*
X2565095Y-1317294D01*
X2561793Y-1319530D01*
X2557881Y-1320292D01*
X2509875Y-1320292D01*
X2506167Y-1319580D01*
X2502966Y-1317599D01*
X2500731Y-1314551D01*
X2499766Y-1310944D01*
X2500172Y-1307185D01*
X2501341Y-1303172D01*
X2502154Y-1295146D01*
X2502154Y-1266393D01*
X2502916Y-1262481D01*
X2505151Y-1259179D01*
X2508402Y-1256995D01*
X2512314Y-1256233D01*
X2542997Y-1256233D01*
X2549296Y-1255471D01*
X2554782Y-1253591D01*
X2559659Y-1250492D01*
X2563774Y-1246428D01*
X2566822Y-1241501D01*
X2568752Y-1236065D01*
X2569464Y-1229715D01*
X2569464Y-1030884D01*
X2568752Y-1024534D01*
X2566822Y-1019098D01*
X2563774Y-1014171D01*
X2559659Y-1010107D01*
X2554782Y-1007008D01*
X2549296Y-1005128D01*
X2542997Y-1004417D01*
X2384094Y-1004417D01*
X2377795Y-1005128D01*
X2372309Y-1007008D01*
X2367432Y-1010107D01*
X2363317Y-1014171D01*
X2360269Y-1019098D01*
X2358339Y-1024534D01*
X2357628Y-1030884D01*
X2357628Y-1229715D01*
X2358339Y-1236065D01*
X2360269Y-1241501D01*
X2363317Y-1246428D01*
X2367432Y-1250492D01*
X2372309Y-1253591D01*
X2377795Y-1255471D01*
X2384094Y-1256233D01*
X2414778Y-1256233D01*
X2418689Y-1256995D01*
X2421940Y-1259179D01*
X2424176Y-1262481D01*
X2424938Y-1266393D01*
X2424938Y-1275435D01*
X2424176Y-1279347D01*
X2421940Y-1282649D01*
X2387295Y-1317294D01*
X2383993Y-1319530D01*
X2380081Y-1320292D01*
X2197608Y-1320292D01*
X2189581Y-1321104D01*
X2182368Y-1323289D01*
X2175662Y-1326845D01*
X2170988Y-1330706D01*
X2167991Y-1332382D01*
X2164537Y-1332992D01*
X2147671Y-1332992D01*
X2141372Y-1333703D01*
X2135886Y-1335633D01*
X2131009Y-1338681D01*
X2126894Y-1342796D01*
X2123795Y-1347673D01*
X2121916Y-1353159D01*
X2121204Y-1359458D01*
X2121204Y-1408328D01*
X2121865Y-1414475D01*
X2123643Y-1419758D01*
X2125522Y-1424076D01*
X2125624Y-1427581D01*
X2124506Y-1430883D01*
X2123236Y-1433220D01*
X2121763Y-1438097D01*
X2121204Y-1443685D01*
X2121204Y-1472641D01*
X2121916Y-1478940D01*
X2123795Y-1484426D01*
X2126894Y-1489303D01*
X2131009Y-1493418D01*
X2135886Y-1496466D01*
X2141270Y-1498346D01*
X2149297Y-1499158D01*
X2152904Y-1500174D01*
X2155850Y-1502460D01*
X2157831Y-1505610D01*
X2158492Y-1509268D01*
X2158492Y-1550365D01*
X2157476Y-1554784D01*
X2154682Y-1558290D01*
X2149195Y-1562658D01*
X2108758Y-1603197D01*
X2105202Y-1607464D01*
X2102815Y-1611934D01*
X2101342Y-1616811D01*
X2100834Y-1622348D01*
X2100834Y-1679651D01*
X2101342Y-1685188D01*
X2102815Y-1690065D01*
X2105202Y-1694535D01*
X2108758Y-1698802D01*
X2149246Y-1739392D01*
X2153564Y-1742897D01*
X2158034Y-1745284D01*
X2162911Y-1746757D01*
X2168448Y-1747316D01*
X2225751Y-1747316D01*
X2231288Y-1746757D01*
X2236165Y-1745284D01*
X2240635Y-1742897D01*
X2244953Y-1739392D01*
X2285492Y-1698853D01*
X2288997Y-1694535D01*
X2291384Y-1690065D01*
X2292858Y-1685188D01*
X2293416Y-1679651D01*
X2293416Y-1622348D01*
X2292858Y-1616811D01*
X2291384Y-1611934D01*
X2288997Y-1607464D01*
X2285492Y-1603146D01*
X2244953Y-1562658D01*
X2239518Y-1558290D01*
X2236724Y-1554784D01*
X2235708Y-1550365D01*
X2235708Y-1509268D01*
X2236368Y-1505610D01*
X2238349Y-1502460D01*
X2241296Y-1500174D01*
X2244902Y-1499158D01*
X2252929Y-1498346D01*
X2258314Y-1496466D01*
X2263190Y-1493418D01*
X2267305Y-1489303D01*
X2270404Y-1484426D01*
X2272284Y-1478940D01*
X2272995Y-1472641D01*
X2272995Y-1443685D01*
X2272436Y-1438097D01*
X2270963Y-1433220D01*
X2269693Y-1430883D01*
X2268575Y-1427581D01*
X2268677Y-1424076D01*
X2270556Y-1419758D01*
X2272334Y-1414526D01*
X2273046Y-1406702D01*
X2274062Y-1403146D01*
X2276348Y-1400149D01*
X2279497Y-1398168D01*
X2283155Y-1397508D01*
X2577592Y-1397508D01*
X2585618Y-1396695D01*
X2592832Y-1394510D01*
X2599537Y-1390954D01*
X2605735Y-1385824D01*
X2865069Y-1126540D01*
X2868320Y-1124356D01*
X2872232Y-1123594D01*
X2876143Y-1124356D01*
X2879394Y-1126540D01*
X2881630Y-1129842D01*
X2882392Y-1133754D01*
X2882392Y-1376781D01*
X2881630Y-1380693D01*
X2879394Y-1383995D01*
X2825394Y-1437995D01*
X2822498Y-1440027D01*
X2819095Y-1440942D01*
X2815590Y-1440637D01*
X2812389Y-1439164D01*
X2809494Y-1437081D01*
X2800553Y-1432966D01*
X2791104Y-1430426D01*
X2781300Y-1429562D01*
X2771495Y-1430426D01*
X2762046Y-1432966D01*
X2753106Y-1437081D01*
X2745079Y-1442720D01*
X2738120Y-1449679D01*
X2732481Y-1457706D01*
X2728366Y-1466646D01*
X2725826Y-1476095D01*
X2724962Y-1485900D01*
X2725826Y-1495704D01*
X2726436Y-1497990D01*
X2726740Y-1501698D01*
X2725674Y-1505254D01*
X2723388Y-1508201D01*
X2720238Y-1510131D01*
X2716631Y-1510792D01*
X2553208Y-1510792D01*
X2545181Y-1511604D01*
X2537968Y-1513789D01*
X2531262Y-1517345D01*
X2525064Y-1522476D01*
X2494940Y-1552549D01*
X2492502Y-1554327D01*
X2489657Y-1555343D01*
X2486660Y-1555445D01*
X2479700Y-1554683D01*
X2422448Y-1554683D01*
X2416911Y-1555242D01*
X2412034Y-1556715D01*
X2407564Y-1559102D01*
X2403246Y-1562608D01*
X2362758Y-1603197D01*
X2359202Y-1607464D01*
X2356815Y-1611934D01*
X2355342Y-1616811D01*
X2354834Y-1622348D01*
X2354834Y-1679651D01*
X2355342Y-1685188D01*
X2356815Y-1690065D01*
X2359202Y-1694535D01*
X2362758Y-1698802D01*
X2403246Y-1739392D01*
X2407564Y-1742897D01*
X2412034Y-1745284D01*
X2416911Y-1746757D01*
X2422448Y-1747316D01*
X2479751Y-1747316D01*
X2485288Y-1746757D01*
X2490165Y-1745284D01*
X2494635Y-1742897D01*
X2498953Y-1739392D01*
X2539492Y-1698853D01*
X2542997Y-1694535D01*
X2545384Y-1690065D01*
X2546858Y-1685188D01*
X2547416Y-1679651D01*
X2547416Y-1622399D01*
X2546654Y-1615440D01*
X2546756Y-1612442D01*
X2547772Y-1609598D01*
X2549550Y-1607159D01*
X2565704Y-1591005D01*
X2569006Y-1588770D01*
X2572918Y-1588008D01*
X2607716Y-1588008D01*
X2611424Y-1588719D01*
X2614676Y-1590751D01*
X2616911Y-1593799D01*
X2617825Y-1597507D01*
X2617368Y-1601266D01*
X2615539Y-1604619D01*
X2613202Y-1607464D01*
X2610815Y-1611934D01*
X2609342Y-1616811D01*
X2608834Y-1622348D01*
X2608834Y-1679651D01*
X2609342Y-1685188D01*
X2610815Y-1690065D01*
X2613202Y-1694535D01*
X2616758Y-1698802D01*
X2657246Y-1739392D01*
X2661564Y-1742897D01*
X2666034Y-1745284D01*
X2670911Y-1746757D01*
X2676448Y-1747316D01*
X2733751Y-1747316D01*
X2739288Y-1746757D01*
X2744165Y-1745284D01*
X2748635Y-1742897D01*
X2752953Y-1739392D01*
X2793492Y-1698853D01*
X2796997Y-1694535D01*
X2799384Y-1690065D01*
X2800858Y-1685188D01*
X2801416Y-1679651D01*
X2801416Y-1622348D01*
X2800858Y-1616811D01*
X2799384Y-1611934D01*
X2796997Y-1607464D01*
X2794660Y-1604619D01*
X2792831Y-1601266D01*
X2792374Y-1597507D01*
X2793339Y-1593799D01*
X2795574Y-1590751D01*
X2798775Y-1588719D01*
X2802534Y-1588008D01*
X2861716Y-1588008D01*
X2865424Y-1588719D01*
X2868676Y-1590751D01*
X2870911Y-1593799D01*
X2871825Y-1597507D01*
X2871368Y-1601266D01*
X2869539Y-1604619D01*
X2867202Y-1607464D01*
X2864815Y-1611934D01*
X2863342Y-1616811D01*
X2862834Y-1622348D01*
X2862834Y-1679651D01*
X2863342Y-1685188D01*
X2864815Y-1690065D01*
X2867202Y-1694535D01*
X2870758Y-1698802D01*
X2911246Y-1739392D01*
X2915564Y-1742897D01*
X2920034Y-1745284D01*
X2924911Y-1746757D01*
X2930448Y-1747316D01*
X2987751Y-1747316D01*
X2993288Y-1746757D01*
X2998165Y-1745284D01*
X3002635Y-1742897D01*
X3006953Y-1739392D01*
X3047492Y-1698853D01*
X3050997Y-1694535D01*
X3053384Y-1690065D01*
X3054858Y-1685188D01*
X3055416Y-1679651D01*
X3055416Y-1622348D01*
X3054858Y-1616811D01*
X3053384Y-1611934D01*
X3050997Y-1607464D01*
X3048660Y-1604619D01*
X3046831Y-1601266D01*
X3046374Y-1597507D01*
X3047339Y-1593799D01*
X3049574Y-1590751D01*
X3052775Y-1588719D01*
X3056534Y-1588008D01*
X3115716Y-1588008D01*
X3119424Y-1588719D01*
X3122676Y-1590751D01*
X3124911Y-1593799D01*
X3125825Y-1597507D01*
X3125368Y-1601266D01*
X3123539Y-1604619D01*
X3121202Y-1607464D01*
X3118815Y-1611934D01*
X3117342Y-1616811D01*
X3116834Y-1622348D01*
X3116834Y-1679651D01*
X3117342Y-1685188D01*
X3118815Y-1690065D01*
X3121202Y-1694535D01*
X3124758Y-1698802D01*
X3165246Y-1739392D01*
X3169564Y-1742897D01*
X3174034Y-1745284D01*
X3178911Y-1746757D01*
X3184448Y-1747316D01*
X3241751Y-1747316D01*
X3247288Y-1746757D01*
X3252165Y-1745284D01*
X3256635Y-1742897D01*
X3260953Y-1739392D01*
X3301492Y-1698853D01*
X3304997Y-1694535D01*
X3307384Y-1690065D01*
X3308858Y-1685188D01*
X3309416Y-1679651D01*
X3309416Y-1622348D01*
X3308858Y-1616811D01*
X3307384Y-1611934D01*
X3304997Y-1607464D01*
X3302660Y-1604619D01*
X3300831Y-1601266D01*
X3300374Y-1597507D01*
X3301339Y-1593799D01*
X3303574Y-1590751D01*
X3306775Y-1588719D01*
X3310534Y-1588008D01*
X3369716Y-1588008D01*
X3373424Y-1588719D01*
X3376676Y-1590751D01*
X3378911Y-1593799D01*
X3379825Y-1597507D01*
X3379368Y-1601266D01*
X3377539Y-1604619D01*
X3375202Y-1607464D01*
X3372815Y-1611934D01*
X3371342Y-1616811D01*
X3370834Y-1622348D01*
X3370834Y-1679651D01*
X3371342Y-1685188D01*
X3372815Y-1690065D01*
X3375202Y-1694535D01*
X3378758Y-1698802D01*
X3419246Y-1739392D01*
X3423564Y-1742897D01*
X3428034Y-1745284D01*
X3432911Y-1746757D01*
X3438448Y-1747316D01*
X3495751Y-1747316D01*
X3501288Y-1746757D01*
X3506165Y-1745284D01*
X3510635Y-1742897D01*
X3514953Y-1739392D01*
X3555492Y-1698853D01*
X3558997Y-1694535D01*
X3561384Y-1690065D01*
X3562858Y-1685188D01*
X3563416Y-1679651D01*
X3563416Y-1622348D01*
X3562858Y-1616811D01*
X3561384Y-1611934D01*
X3558997Y-1607464D01*
X3556660Y-1604619D01*
X3554831Y-1601266D01*
X3554374Y-1597507D01*
X3555339Y-1593799D01*
X3557574Y-1590751D01*
X3560775Y-1588719D01*
X3564534Y-1588008D01*
X3623716Y-1588008D01*
X3627424Y-1588719D01*
X3630676Y-1590751D01*
X3632911Y-1593799D01*
X3633825Y-1597507D01*
X3633368Y-1601266D01*
X3631539Y-1604619D01*
X3629202Y-1607464D01*
X3626815Y-1611934D01*
X3625342Y-1616811D01*
X3624834Y-1622348D01*
X3624834Y-1679651D01*
X3625342Y-1685188D01*
X3626815Y-1690065D01*
X3629202Y-1694535D01*
X3632758Y-1698802D01*
X3673246Y-1739392D01*
X3677564Y-1742897D01*
X3682034Y-1745284D01*
X3686911Y-1746757D01*
X3692448Y-1747316D01*
X3749751Y-1747316D01*
X3755288Y-1746757D01*
X3760165Y-1745284D01*
X3764635Y-1742897D01*
X3768953Y-1739392D01*
X3809492Y-1698853D01*
X3812997Y-1694535D01*
X3815384Y-1690065D01*
X3816858Y-1685188D01*
X3817416Y-1679651D01*
X3817416Y-1622348D01*
X3816858Y-1616811D01*
X3815384Y-1611934D01*
X3812997Y-1607464D01*
X3810660Y-1604619D01*
X3808831Y-1601266D01*
X3808374Y-1597507D01*
X3809339Y-1593799D01*
X3811574Y-1590751D01*
X3814775Y-1588719D01*
X3818534Y-1588008D01*
X3877716Y-1588008D01*
X3881424Y-1588719D01*
X3884676Y-1590751D01*
X3886911Y-1593799D01*
X3887825Y-1597507D01*
X3887368Y-1601266D01*
X3885539Y-1604619D01*
X3883202Y-1607464D01*
X3880815Y-1611934D01*
X3879342Y-1616811D01*
X3878834Y-1622348D01*
X3878834Y-1679651D01*
X3879342Y-1685188D01*
X3880815Y-1690065D01*
X3883202Y-1694535D01*
X3886758Y-1698802D01*
X3927246Y-1739392D01*
X3931564Y-1742897D01*
X3936034Y-1745284D01*
X3940911Y-1746757D01*
X3946448Y-1747316D01*
X4003751Y-1747316D01*
X4009288Y-1746757D01*
X4014165Y-1745284D01*
X4018635Y-1742897D01*
X4022953Y-1739392D01*
X4063492Y-1698853D01*
X4066997Y-1694535D01*
X4069384Y-1690065D01*
X4070858Y-1685188D01*
X4071416Y-1679651D01*
X4071416Y-1622348D01*
X4070858Y-1616811D01*
X4069384Y-1611934D01*
X4066997Y-1607464D01*
X4064660Y-1604619D01*
X4062831Y-1601266D01*
X4062374Y-1597507D01*
X4063339Y-1593799D01*
X4065574Y-1590751D01*
X4068775Y-1588719D01*
X4072534Y-1588008D01*
X4131716Y-1588008D01*
X4135424Y-1588719D01*
X4138676Y-1590751D01*
X4140911Y-1593799D01*
X4141825Y-1597507D01*
X4141368Y-1601266D01*
X4139539Y-1604619D01*
X4137202Y-1607464D01*
X4134815Y-1611934D01*
X4133342Y-1616811D01*
X4132834Y-1622348D01*
X4132834Y-1679651D01*
X4133342Y-1685188D01*
X4134815Y-1690065D01*
X4137202Y-1694535D01*
X4140758Y-1698802D01*
X4181246Y-1739392D01*
X4185564Y-1742897D01*
X4190034Y-1745284D01*
X4194911Y-1746757D01*
X4200448Y-1747316D01*
X4257751Y-1747316D01*
X4263288Y-1746757D01*
X4268165Y-1745284D01*
X4272635Y-1742897D01*
X4276953Y-1739392D01*
X4317492Y-1698853D01*
X4320997Y-1694535D01*
X4323384Y-1690065D01*
X4324858Y-1685188D01*
X4325416Y-1679651D01*
X4325416Y-1622348D01*
X4324858Y-1616811D01*
X4323384Y-1611934D01*
X4320997Y-1607464D01*
X4318660Y-1604619D01*
X4316831Y-1601266D01*
X4316374Y-1597507D01*
X4317339Y-1593799D01*
X4319574Y-1590751D01*
X4322775Y-1588719D01*
X4326534Y-1588008D01*
X4385665Y-1588008D01*
X4389424Y-1588719D01*
X4392625Y-1590751D01*
X4394860Y-1593799D01*
X4395825Y-1597507D01*
X4395368Y-1601266D01*
X4393539Y-1604619D01*
X4391202Y-1607464D01*
X4388815Y-1611934D01*
X4387342Y-1616811D01*
X4386783Y-1622348D01*
X4386783Y-1679651D01*
X4387342Y-1685188D01*
X4388815Y-1690065D01*
X4391202Y-1694535D01*
X4394708Y-1698853D01*
X4435246Y-1739392D01*
X4439564Y-1742897D01*
X4444034Y-1745284D01*
X4448911Y-1746757D01*
X4454448Y-1747316D01*
X4511751Y-1747316D01*
X4517288Y-1746757D01*
X4522165Y-1745284D01*
X4526635Y-1742897D01*
X4530953Y-1739392D01*
X4571492Y-1698853D01*
X4574997Y-1694535D01*
X4577384Y-1690065D01*
X4578858Y-1685188D01*
X4579416Y-1679651D01*
X4579416Y-1622348D01*
X4578858Y-1616811D01*
X4577384Y-1611934D01*
X4574997Y-1607464D01*
X4572660Y-1604619D01*
X4570831Y-1601266D01*
X4570374Y-1597507D01*
X4571339Y-1593799D01*
X4573574Y-1590751D01*
X4576775Y-1588719D01*
X4580534Y-1588008D01*
X4639665Y-1588008D01*
X4643424Y-1588719D01*
X4646625Y-1590751D01*
X4648860Y-1593799D01*
X4649825Y-1597507D01*
X4649368Y-1601266D01*
X4647539Y-1604619D01*
X4645202Y-1607464D01*
X4642815Y-1611934D01*
X4641342Y-1616811D01*
X4640783Y-1622348D01*
X4640783Y-1679651D01*
X4641342Y-1685188D01*
X4642815Y-1690065D01*
X4645202Y-1694535D01*
X4648708Y-1698853D01*
X4689246Y-1739392D01*
X4693564Y-1742897D01*
X4698034Y-1745284D01*
X4702911Y-1746757D01*
X4708448Y-1747316D01*
X4765751Y-1747316D01*
X4771288Y-1746757D01*
X4776165Y-1745284D01*
X4780635Y-1742897D01*
X4784953Y-1739392D01*
X4825492Y-1698853D01*
X4828997Y-1694535D01*
X4831384Y-1690065D01*
X4832858Y-1685188D01*
X4833416Y-1679651D01*
X4833416Y-1622348D01*
X4832858Y-1616811D01*
X4831384Y-1611934D01*
X4828997Y-1607464D01*
X4826660Y-1604619D01*
X4824831Y-1601266D01*
X4824374Y-1597507D01*
X4825339Y-1593799D01*
X4827574Y-1590751D01*
X4830775Y-1588719D01*
X4834534Y-1588008D01*
X4893665Y-1588008D01*
X4897424Y-1588719D01*
X4900625Y-1590751D01*
X4902860Y-1593799D01*
X4903825Y-1597507D01*
X4903368Y-1601266D01*
X4901539Y-1604619D01*
X4899202Y-1607464D01*
X4896815Y-1611934D01*
X4895342Y-1616811D01*
X4894783Y-1622348D01*
X4894783Y-1679651D01*
X4895342Y-1685188D01*
X4896815Y-1690065D01*
X4899202Y-1694535D01*
X4902708Y-1698853D01*
X4943246Y-1739392D01*
X4947564Y-1742897D01*
X4952034Y-1745284D01*
X4956911Y-1746757D01*
X4962448Y-1747316D01*
X5019751Y-1747316D01*
X5025288Y-1746757D01*
X5030165Y-1745284D01*
X5034635Y-1742897D01*
X5038953Y-1739392D01*
X5079492Y-1698853D01*
X5082997Y-1694535D01*
X5085384Y-1690065D01*
X5086858Y-1685188D01*
X5087416Y-1679651D01*
X5087416Y-1622348D01*
X5086858Y-1616811D01*
X5085384Y-1611934D01*
X5082997Y-1607464D01*
X5080660Y-1604619D01*
X5078831Y-1601266D01*
X5078374Y-1597507D01*
X5079339Y-1593799D01*
X5081574Y-1590751D01*
X5084775Y-1588719D01*
X5088534Y-1588008D01*
X5104892Y-1588008D01*
X5112918Y-1587195D01*
X5120132Y-1585010D01*
X5126837Y-1581454D01*
X5133035Y-1576324D01*
X5157724Y-1551635D01*
X5162854Y-1545437D01*
X5166410Y-1538732D01*
X5168595Y-1531518D01*
X5169408Y-1523492D01*
X5169408Y-1346708D01*
X5168595Y-1338681D01*
X5166410Y-1331468D01*
X5162854Y-1324762D01*
X5161178Y-1322730D01*
X5159349Y-1319377D01*
X5158892Y-1315618D01*
X5159857Y-1311910D01*
X5162092Y-1308862D01*
X5165293Y-1306830D01*
X5169001Y-1306118D01*
X5208981Y-1306118D01*
X5217007Y-1305306D01*
X5224272Y-1303121D01*
X5228996Y-1301089D01*
X5242204Y-1300073D01*
X5251653Y-1297533D01*
X5260594Y-1293418D01*
X5268620Y-1287780D01*
X5275580Y-1280820D01*
X5281218Y-1272794D01*
X5285333Y-1263853D01*
X5287873Y-1254404D01*
X5288737Y-1244600D01*
X5287873Y-1234795D01*
X5285333Y-1225346D01*
X5283098Y-1220470D01*
X5282133Y-1216507D01*
X5282793Y-1212494D01*
X5284978Y-1209090D01*
X5288330Y-1206804D01*
X5292293Y-1205992D01*
X5448808Y-1205992D01*
X5456834Y-1205179D01*
X5464048Y-1202994D01*
X5470753Y-1199438D01*
X5476951Y-1194308D01*
X5481878Y-1189431D01*
X5484774Y-1187399D01*
X5488178Y-1186484D01*
X5496204Y-1185773D01*
X5505653Y-1183233D01*
X5514594Y-1179118D01*
X5522620Y-1173480D01*
X5529580Y-1166520D01*
X5535218Y-1158494D01*
X5539333Y-1149553D01*
X5541873Y-1140104D01*
X5542737Y-1130300D01*
X5541873Y-1120495D01*
X5541162Y-1115212D01*
X5542229Y-1111656D01*
X5544464Y-1108710D01*
X5547614Y-1106779D01*
X5551271Y-1106119D01*
X5701080Y-1106119D01*
X5709107Y-1105306D01*
X5716371Y-1103122D01*
X5723026Y-1099566D01*
X5729224Y-1094435D01*
X5735878Y-1087831D01*
X5738774Y-1085799D01*
X5742178Y-1084884D01*
X5750204Y-1084173D01*
X5759653Y-1081633D01*
X5768594Y-1077518D01*
X5776620Y-1071880D01*
X5783580Y-1064920D01*
X5789218Y-1056894D01*
X5793333Y-1047953D01*
X5795873Y-1038504D01*
X5796737Y-1028700D01*
X5795619Y-1015187D01*
X5796635Y-1011682D01*
X5798921Y-1008735D01*
X5802071Y-1006805D01*
X5805728Y-1006094D01*
X5849518Y-1006094D01*
X5853379Y-1006906D01*
X5856681Y-1009091D01*
X5965494Y-1117904D01*
X5967730Y-1121206D01*
X5968492Y-1125118D01*
X5968492Y-1550365D01*
X5967476Y-1554784D01*
X5964682Y-1558290D01*
X5959246Y-1562658D01*
X5918708Y-1603146D01*
X5915202Y-1607464D01*
X5912815Y-1611934D01*
X5911342Y-1616811D01*
X5910783Y-1622348D01*
X5910783Y-1679651D01*
X5911342Y-1685188D01*
X5912815Y-1690065D01*
X5915202Y-1694535D01*
X5918708Y-1698853D01*
X5959246Y-1739392D01*
X5963564Y-1742897D01*
X5968034Y-1745284D01*
X5972911Y-1746757D01*
X5978448Y-1747316D01*
X6035751Y-1747316D01*
X6041288Y-1746757D01*
X6046165Y-1745284D01*
X6050635Y-1742897D01*
X6054953Y-1739392D01*
X6095492Y-1698853D01*
X6098997Y-1694535D01*
X6101384Y-1690065D01*
X6102858Y-1685188D01*
X6103416Y-1679651D01*
X6103416Y-1622348D01*
X6102858Y-1616811D01*
X6101384Y-1611934D01*
X6098997Y-1607464D01*
X6095492Y-1603146D01*
X6054953Y-1562658D01*
X6049518Y-1558290D01*
X6046724Y-1554784D01*
X6045708Y-1550365D01*
X6045708Y-1105408D01*
X6044895Y-1097381D01*
X6042710Y-1090168D01*
X6039154Y-1083462D01*
X6034024Y-1077264D01*
X5897372Y-940562D01*
X5891123Y-935431D01*
X5884468Y-931875D01*
X5877204Y-929690D01*
X5869228Y-928878D01*
X5114340Y-928878D01*
X5110226Y-928014D01*
X5106822Y-925576D01*
X5104688Y-921918D01*
X5103622Y-911148D01*
X5104130Y-906932D01*
X5106263Y-903274D01*
X5109718Y-900836D01*
X5113883Y-900023D01*
X5118049Y-900937D01*
X5124246Y-903833D01*
X5133695Y-906373D01*
X5143500Y-907237D01*
X5153304Y-906373D01*
X5162753Y-903833D01*
X5171694Y-899718D01*
X5179720Y-894080D01*
X5186680Y-887120D01*
X5192318Y-879094D01*
X5196433Y-870153D01*
X5198973Y-860704D01*
X5199837Y-850900D01*
X5198973Y-841095D01*
X5196433Y-831646D01*
X5192318Y-822706D01*
X5186680Y-814679D01*
X5179720Y-807720D01*
X5171694Y-802081D01*
X5162753Y-797966D01*
X5153304Y-795426D01*
X5145278Y-794715D01*
X5141874Y-793800D01*
X5131511Y-785418D01*
X5124856Y-781862D01*
X5117642Y-779678D01*
X5113324Y-779272D01*
X5109514Y-778103D01*
X5106466Y-775614D01*
X5104587Y-772109D01*
X5103469Y-759714D01*
X5101234Y-752246D01*
X5098542Y-747268D01*
X5097526Y-744169D01*
X5097526Y-740867D01*
X5098542Y-737717D01*
X5101234Y-732739D01*
X5103469Y-725271D01*
X5104231Y-717499D01*
X5103469Y-709726D01*
X5101234Y-702259D01*
X5098592Y-697280D01*
X5097526Y-694131D01*
X5097526Y-690829D01*
X5098592Y-687730D01*
X5101234Y-682752D01*
X5103469Y-675284D01*
X5104231Y-667512D01*
X5103469Y-659739D01*
X5101234Y-652272D01*
X5098542Y-647293D01*
X5097526Y-644144D01*
X5097526Y-640842D01*
X5098542Y-637692D01*
X5101234Y-632764D01*
X5103469Y-625246D01*
X5104231Y-617474D01*
X5103469Y-609701D01*
X5101234Y-602234D01*
X5098592Y-597306D01*
X5097526Y-594156D01*
X5097526Y-590854D01*
X5098592Y-587705D01*
X5101234Y-582777D01*
X5103469Y-575259D01*
X5104231Y-567486D01*
X5103469Y-559714D01*
X5101234Y-552246D01*
X5098542Y-547268D01*
X5097526Y-544169D01*
X5097526Y-540867D01*
X5098542Y-537718D01*
X5101234Y-532739D01*
X5103469Y-525272D01*
X5104231Y-517499D01*
X5103469Y-509727D01*
X5101234Y-502259D01*
X5098592Y-497281D01*
X5097526Y-494131D01*
X5097526Y-490829D01*
X5098592Y-487730D01*
X5101234Y-482752D01*
X5103469Y-475284D01*
X5104231Y-467512D01*
X5103469Y-459740D01*
X5101234Y-452272D01*
X5098542Y-447293D01*
X5097526Y-444144D01*
X5097526Y-440842D01*
X5098542Y-437692D01*
X5101234Y-432765D01*
X5101793Y-430834D01*
X5081676Y-430834D01*
X5078730Y-430428D01*
X5072176Y-428396D01*
X5063896Y-427583D01*
X4922875Y-427583D01*
X4911191Y-429006D01*
X4691532Y-429006D01*
X4687620Y-428243D01*
X4684318Y-426008D01*
X4677105Y-418795D01*
X4674870Y-415493D01*
X4674108Y-411581D01*
X4674108Y-390550D01*
X4674920Y-386588D01*
X4677206Y-383235D01*
X4680610Y-381050D01*
X4684623Y-380390D01*
X4688586Y-381355D01*
X4692446Y-383133D01*
X4701895Y-385673D01*
X4711700Y-386537D01*
X4721504Y-385673D01*
X4730953Y-383133D01*
X4739894Y-379018D01*
X4747920Y-373380D01*
X4749495Y-371805D01*
X4752797Y-369570D01*
X4756708Y-368808D01*
X4812792Y-368808D01*
X4820818Y-367995D01*
X4828032Y-365810D01*
X4834737Y-362254D01*
X4839411Y-358394D01*
X4842408Y-356717D01*
X4845862Y-356108D01*
X4911496Y-356108D01*
X4922875Y-357428D01*
X5063896Y-357428D01*
X5072176Y-356565D01*
X5078730Y-354584D01*
X5081676Y-354177D01*
X5101793Y-354177D01*
X5101234Y-352247D01*
X5098542Y-347268D01*
X5097526Y-344170D01*
X5097526Y-340868D01*
X5098542Y-337718D01*
X5101234Y-332740D01*
X5103469Y-325272D01*
X5104231Y-317500D01*
X5103469Y-309727D01*
X5101234Y-302260D01*
X5097526Y-295351D01*
X5092598Y-289306D01*
X5086553Y-284378D01*
X5079644Y-280670D01*
X5072176Y-278384D01*
X5063896Y-277571D01*
X4922875Y-277571D01*
X4911496Y-278892D01*
X4867554Y-278892D01*
X4863642Y-278130D01*
X4860340Y-275894D01*
X4858156Y-272592D01*
X4857394Y-268732D01*
X4858156Y-264820D01*
X4860340Y-261518D01*
X4917694Y-204165D01*
X4920996Y-201980D01*
X4924907Y-201218D01*
X4928768Y-201980D01*
X4932070Y-204165D01*
X4943246Y-215392D01*
X4947564Y-218897D01*
X4952034Y-221284D01*
X4956911Y-222758D01*
X4962448Y-223316D01*
X5019751Y-223316D01*
X5025288Y-222758D01*
X5030165Y-221284D01*
X5034635Y-218897D01*
X5038953Y-215392D01*
X5079492Y-174853D01*
X5082997Y-170535D01*
X5085384Y-166065D01*
X5086858Y-161188D01*
X5087416Y-155651D01*
X5087416Y-98348D01*
X5086858Y-92811D01*
X5085384Y-87934D01*
X5082997Y-83464D01*
X5079492Y-79146D01*
X5038953Y-38608D01*
X5034635Y-35102D01*
X5030165Y-32715D01*
X5025288Y-31242D01*
X5019751Y-30683D01*
X4962448Y-30683D01*
X4956911Y-31242D01*
X4952034Y-32715D01*
X4947564Y-35102D01*
X4943246Y-38608D01*
X4902708Y-79146D01*
X4899202Y-83464D01*
X4896815Y-87934D01*
X4895342Y-92811D01*
X4894783Y-98348D01*
X4894783Y-113690D01*
X4894021Y-117602D01*
X4891786Y-120904D01*
X4850739Y-161950D01*
X4847488Y-164134D01*
X4843576Y-164896D01*
X4839665Y-164134D01*
X4836414Y-161950D01*
X4834178Y-158648D01*
X4833416Y-154736D01*
X4833416Y-98348D01*
X4832858Y-92811D01*
X4831384Y-87934D01*
X4828997Y-83464D01*
X4825492Y-79146D01*
X4784953Y-38608D01*
X4780635Y-35102D01*
X4776165Y-32715D01*
X4771288Y-31242D01*
X4765751Y-30683D01*
X4708448Y-30683D01*
X4702911Y-31242D01*
X4698034Y-32715D01*
X4693564Y-35102D01*
X4689246Y-38608D01*
X4648708Y-79146D01*
X4645202Y-83464D01*
X4642815Y-87934D01*
X4641342Y-92811D01*
X4640783Y-98348D01*
X4640783Y-151790D01*
X4640021Y-155702D01*
X4637786Y-159004D01*
X4335830Y-460959D01*
X4332579Y-463143D01*
X4328668Y-463905D01*
X4324756Y-463143D01*
X4321505Y-460959D01*
X4319270Y-457657D01*
X4318508Y-453745D01*
X4318508Y-439318D01*
X4319270Y-435406D01*
X4321505Y-432104D01*
X4510024Y-243535D01*
X4515154Y-237337D01*
X4518710Y-230632D01*
X4520234Y-225704D01*
X4522114Y-222199D01*
X4526635Y-218897D01*
X4530953Y-215392D01*
X4571492Y-174853D01*
X4574997Y-170535D01*
X4577384Y-166065D01*
X4578858Y-161188D01*
X4579416Y-155651D01*
X4579416Y-98348D01*
X4578858Y-92811D01*
X4577384Y-87934D01*
X4574997Y-83464D01*
X4571492Y-79146D01*
X4530953Y-38608D01*
X4526635Y-35102D01*
X4522165Y-32715D01*
X4517288Y-31242D01*
X4511751Y-30683D01*
X4454448Y-30683D01*
X4448911Y-31242D01*
X4444034Y-32715D01*
X4439564Y-35102D01*
X4435246Y-38608D01*
X4394708Y-79146D01*
X4391202Y-83464D01*
X4388815Y-87934D01*
X4387342Y-92811D01*
X4386783Y-98348D01*
X4386783Y-155651D01*
X4387342Y-161188D01*
X4388815Y-166065D01*
X4391202Y-170535D01*
X4394708Y-174853D01*
X4424984Y-205079D01*
X4427169Y-208381D01*
X4427931Y-212242D01*
X4427169Y-216154D01*
X4424984Y-219456D01*
X4285030Y-359359D01*
X4281779Y-361543D01*
X4277868Y-362305D01*
X4273956Y-361543D01*
X4270705Y-359359D01*
X4268470Y-356057D01*
X4267708Y-352145D01*
X4267708Y-227634D01*
X4268724Y-223215D01*
X4271518Y-219710D01*
X4276953Y-215341D01*
X4317492Y-174853D01*
X4320997Y-170535D01*
X4323384Y-166065D01*
X4324858Y-161188D01*
X4325416Y-155651D01*
X4325416Y-98348D01*
X4324858Y-92811D01*
X4323384Y-87934D01*
X4320997Y-83464D01*
X4317492Y-79146D01*
X4276953Y-38608D01*
X4272635Y-35102D01*
X4268165Y-32715D01*
X4263288Y-31242D01*
X4257751Y-30683D01*
X4200448Y-30683D01*
X4194911Y-31242D01*
X4190034Y-32715D01*
X4185564Y-35102D01*
X4181246Y-38608D01*
X4140758Y-79197D01*
X4137202Y-83464D01*
X4134815Y-87934D01*
X4133342Y-92811D01*
X4132834Y-98348D01*
X4132834Y-155651D01*
X4133342Y-161188D01*
X4134815Y-166065D01*
X4137202Y-170535D01*
X4140758Y-174802D01*
X4181195Y-215341D01*
X4186682Y-219710D01*
X4189476Y-223215D01*
X4190492Y-227634D01*
X4190492Y-263245D01*
X4189729Y-267157D01*
X4187494Y-270459D01*
X4184243Y-272643D01*
X4180332Y-273405D01*
X4176420Y-272643D01*
X4173169Y-270459D01*
X4073550Y-170840D01*
X4071772Y-168402D01*
X4070756Y-165557D01*
X4070654Y-162560D01*
X4071416Y-155600D01*
X4071416Y-98348D01*
X4070858Y-92811D01*
X4069384Y-87934D01*
X4066997Y-83464D01*
X4063492Y-79146D01*
X4022953Y-38608D01*
X4018635Y-35102D01*
X4014165Y-32715D01*
X4009288Y-31242D01*
X4003751Y-30683D01*
X3946448Y-30683D01*
X3940911Y-31242D01*
X3936034Y-32715D01*
X3931564Y-35102D01*
X3927246Y-38608D01*
X3886758Y-79197D01*
X3883202Y-83464D01*
X3880815Y-87934D01*
X3879342Y-92811D01*
X3878834Y-98348D01*
X3878834Y-155651D01*
X3879342Y-161188D01*
X3880612Y-165303D01*
X3880967Y-169265D01*
X3879799Y-173075D01*
X3877259Y-176123D01*
X3873754Y-178003D01*
X3869740Y-178358D01*
X3860241Y-177292D01*
X3825697Y-177292D01*
X3821988Y-176580D01*
X3818788Y-174599D01*
X3816553Y-171551D01*
X3815537Y-167944D01*
X3815943Y-164185D01*
X3816858Y-161188D01*
X3817416Y-155651D01*
X3817416Y-98348D01*
X3816858Y-92811D01*
X3815384Y-87934D01*
X3812997Y-83464D01*
X3809492Y-79146D01*
X3768953Y-38608D01*
X3764635Y-35102D01*
X3760165Y-32715D01*
X3755288Y-31242D01*
X3749751Y-30683D01*
X3692448Y-30683D01*
X3686911Y-31242D01*
X3682034Y-32715D01*
X3677564Y-35102D01*
X3673246Y-38608D01*
X3632758Y-79197D01*
X3629202Y-83464D01*
X3626815Y-87934D01*
X3625342Y-92811D01*
X3624834Y-98348D01*
X3624834Y-155651D01*
X3625342Y-161188D01*
X3626815Y-166065D01*
X3629202Y-170535D01*
X3632758Y-174802D01*
X3673246Y-215392D01*
X3677564Y-218897D01*
X3682746Y-221691D01*
X3686098Y-224586D01*
X3687927Y-228650D01*
X3687826Y-233121D01*
X3685794Y-237083D01*
X3682288Y-239826D01*
X3677970Y-240792D01*
X3639718Y-240792D01*
X3635806Y-240029D01*
X3632504Y-237794D01*
X3565550Y-170840D01*
X3563772Y-168402D01*
X3562756Y-165557D01*
X3562654Y-162560D01*
X3563416Y-155600D01*
X3563416Y-98348D01*
X3562858Y-92811D01*
X3561384Y-87934D01*
X3558997Y-83464D01*
X3555492Y-79146D01*
X3514953Y-38608D01*
X3510635Y-35102D01*
X3506165Y-32715D01*
X3501288Y-31242D01*
X3495751Y-30683D01*
X3438448Y-30683D01*
X3432911Y-31242D01*
X3428034Y-32715D01*
X3423564Y-35102D01*
X3419246Y-38608D01*
X3378758Y-79197D01*
X3375202Y-83464D01*
X3372815Y-87934D01*
X3371342Y-92811D01*
X3370834Y-98348D01*
X3370834Y-155651D01*
X3371087Y-158343D01*
X3370579Y-162661D01*
X3368294Y-166370D01*
X3364687Y-168757D01*
X3360369Y-169468D01*
X3356152Y-168300D01*
X3354832Y-167589D01*
X3347618Y-165404D01*
X3339592Y-164592D01*
X3319576Y-164592D01*
X3315665Y-163830D01*
X3312414Y-161594D01*
X3310178Y-158343D01*
X3309416Y-154432D01*
X3309416Y-98348D01*
X3308858Y-92811D01*
X3307384Y-87934D01*
X3304997Y-83464D01*
X3301492Y-79146D01*
X3260953Y-38608D01*
X3256635Y-35102D01*
X3252165Y-32715D01*
X3247288Y-31242D01*
X3241751Y-30683D01*
X3184448Y-30683D01*
X3178911Y-31242D01*
X3174034Y-32715D01*
X3169564Y-35102D01*
X3165246Y-38608D01*
X3124758Y-79197D01*
X3121202Y-83464D01*
X3118815Y-87934D01*
X3117342Y-92811D01*
X3116834Y-98348D01*
X3116834Y-155651D01*
X3117342Y-161188D01*
X3118815Y-166065D01*
X3121202Y-170535D01*
X3124758Y-174802D01*
X3149244Y-199339D01*
X3151428Y-202641D01*
X3152190Y-206502D01*
X3151428Y-210413D01*
X3149244Y-213664D01*
X3145942Y-215900D01*
X3142030Y-216662D01*
X3107588Y-216662D01*
X3103676Y-215900D01*
X3100374Y-213664D01*
X3057550Y-170840D01*
X3055772Y-168402D01*
X3054756Y-165557D01*
X3054654Y-162560D01*
X3055416Y-155600D01*
X3055416Y-98348D01*
X3054858Y-92811D01*
X3053384Y-87934D01*
X3050997Y-83464D01*
X3047492Y-79146D01*
X3006953Y-38608D01*
X3002635Y-35102D01*
X2998165Y-32715D01*
X2993288Y-31242D01*
X2987751Y-30683D01*
X2930448Y-30683D01*
X2924911Y-31242D01*
X2920034Y-32715D01*
X2915564Y-35102D01*
X2911246Y-38608D01*
X2870758Y-79197D01*
X2867202Y-83464D01*
X2864815Y-87934D01*
X2863342Y-92811D01*
X2862834Y-98348D01*
X2862834Y-155651D01*
X2863342Y-161188D01*
X2864815Y-166065D01*
X2867202Y-170535D01*
X2870758Y-174802D01*
X2911246Y-215392D01*
X2915564Y-218897D01*
X2920034Y-221284D01*
X2924911Y-222758D01*
X2930448Y-223316D01*
X2987700Y-223316D01*
X2994660Y-222554D01*
X2997657Y-222656D01*
X3000502Y-223672D01*
X3002940Y-225450D01*
X3037738Y-260248D01*
X3039922Y-263550D01*
X3040735Y-267411D01*
X3039922Y-271322D01*
X3037738Y-274624D01*
X3034436Y-276809D01*
X3030575Y-277571D01*
X3002889Y-277571D01*
X2994406Y-278434D01*
X2982468Y-281889D01*
X2975813Y-285445D01*
X2969971Y-290220D01*
X2965145Y-296062D01*
X2961589Y-302717D01*
X2959404Y-309981D01*
X2958236Y-321919D01*
X2956102Y-325577D01*
X2952699Y-328015D01*
X2948584Y-328879D01*
X2800705Y-328879D01*
X2796844Y-328117D01*
X2793542Y-325932D01*
X2746705Y-279095D01*
X2744470Y-275793D01*
X2743708Y-271881D01*
X2743708Y-227634D01*
X2744724Y-223215D01*
X2747518Y-219710D01*
X2752953Y-215341D01*
X2793492Y-174853D01*
X2796997Y-170535D01*
X2799384Y-166065D01*
X2800858Y-161188D01*
X2801416Y-155651D01*
X2801416Y-98348D01*
X2800858Y-92811D01*
X2799384Y-87934D01*
X2796997Y-83464D01*
X2793492Y-79146D01*
X2752953Y-38608D01*
X2748635Y-35102D01*
X2744165Y-32715D01*
X2739288Y-31242D01*
X2733751Y-30683D01*
X2676448Y-30683D01*
X2670911Y-31242D01*
X2666034Y-32715D01*
X2661564Y-35102D01*
X2657246Y-38608D01*
X2616758Y-79197D01*
X2613202Y-83464D01*
X2610815Y-87934D01*
X2609342Y-92811D01*
X2608834Y-98348D01*
X2608834Y-155651D01*
X2609342Y-161188D01*
X2610815Y-166065D01*
X2613202Y-170535D01*
X2616758Y-174802D01*
X2657195Y-215341D01*
X2662682Y-219710D01*
X2665476Y-223215D01*
X2666492Y-227634D01*
X2666492Y-288645D01*
X2665730Y-292557D01*
X2663494Y-295859D01*
X2660243Y-298043D01*
X2656332Y-298805D01*
X2652420Y-298043D01*
X2649169Y-295859D01*
X2540863Y-187553D01*
X2538780Y-184505D01*
X2537917Y-180898D01*
X2538425Y-177190D01*
X2540203Y-173939D01*
X2542997Y-170535D01*
X2545384Y-166065D01*
X2546858Y-161188D01*
X2547416Y-155651D01*
X2547416Y-98348D01*
X2546858Y-92811D01*
X2545384Y-87934D01*
X2542997Y-83464D01*
X2539492Y-79146D01*
X2498953Y-38608D01*
X2494635Y-35102D01*
X2490165Y-32715D01*
X2485288Y-31242D01*
X2479751Y-30683D01*
X2422448Y-30683D01*
X2416911Y-31242D01*
X2412034Y-32715D01*
X2407564Y-35102D01*
X2403246Y-38608D01*
X2362758Y-79197D01*
X2359202Y-83464D01*
X2356815Y-87934D01*
X2355342Y-92811D01*
X2354834Y-98348D01*
X2354834Y-155651D01*
X2355342Y-161188D01*
X2356815Y-166065D01*
X2359202Y-170535D01*
X2362758Y-174802D01*
X2373274Y-185369D01*
X2375458Y-188671D01*
X2376220Y-192532D01*
X2375458Y-196443D01*
X2373274Y-199694D01*
X2369972Y-201930D01*
X2366060Y-202692D01*
X2282139Y-202692D01*
X2278278Y-201930D01*
X2274976Y-199694D01*
X2272741Y-196443D01*
X2271979Y-192532D01*
X2272741Y-188620D01*
X2274976Y-185369D01*
X2285492Y-174853D01*
X2288997Y-170535D01*
X2291384Y-166065D01*
X2292858Y-161188D01*
X2293416Y-155651D01*
X2293416Y-98348D01*
X2292858Y-92811D01*
X2291384Y-87934D01*
X2288997Y-83464D01*
X2285492Y-79146D01*
X2244953Y-38608D01*
X2240635Y-35102D01*
X2236165Y-32715D01*
X2231288Y-31242D01*
X2225751Y-30683D01*
X2168448Y-30683D01*
X2162911Y-31242D01*
X2158034Y-32715D01*
X2153564Y-35102D01*
X2149246Y-38608D01*
X2108758Y-79197D01*
X2105202Y-83464D01*
X2102815Y-87934D01*
X2101342Y-92811D01*
X2100834Y-98348D01*
X2100834Y-155651D01*
X2101342Y-161188D01*
X2102815Y-166065D01*
X2105202Y-170535D01*
X2108758Y-174802D01*
X2119274Y-185369D01*
X2121458Y-188671D01*
X2122220Y-192532D01*
X2121458Y-196443D01*
X2119274Y-199694D01*
X2115972Y-201930D01*
X2112060Y-202692D01*
X2028139Y-202692D01*
X2024278Y-201930D01*
X2020976Y-199694D01*
X2018741Y-196443D01*
X2017979Y-192532D01*
X2018741Y-188620D01*
X2020976Y-185369D01*
X2031492Y-174853D01*
X2034997Y-170535D01*
X2037384Y-166065D01*
X2038857Y-161188D01*
X2039416Y-155651D01*
X2039416Y-98348D01*
X2038857Y-92811D01*
X2037384Y-87934D01*
X2034997Y-83464D01*
X2031492Y-79146D01*
X1990953Y-38608D01*
X1986635Y-35102D01*
X1982165Y-32715D01*
X1977288Y-31242D01*
X1971751Y-30683D01*
X1914448Y-30683D01*
X1908911Y-31242D01*
X1904034Y-32715D01*
X1899564Y-35102D01*
X1895246Y-38608D01*
X1854758Y-79197D01*
X1851202Y-83464D01*
X1848815Y-87934D01*
X1847342Y-92811D01*
X1846834Y-98348D01*
X1846834Y-155651D01*
X1847342Y-161188D01*
X1848815Y-166065D01*
X1851202Y-170535D01*
X1854758Y-174802D01*
X1865274Y-185369D01*
X1867458Y-188671D01*
X1868220Y-192532D01*
X1867458Y-196443D01*
X1865274Y-199694D01*
X1861972Y-201930D01*
X1858060Y-202692D01*
X1823618Y-202692D01*
X1819706Y-201930D01*
X1816404Y-199694D01*
X1787550Y-170840D01*
X1785772Y-168402D01*
X1784756Y-165557D01*
X1784654Y-162560D01*
X1785416Y-155600D01*
X1785416Y-98348D01*
X1784857Y-92811D01*
X1783384Y-87934D01*
X1780997Y-83464D01*
X1777492Y-79146D01*
X1736953Y-38608D01*
X1732635Y-35102D01*
X1728165Y-32715D01*
X1723288Y-31242D01*
X1717751Y-30683D01*
X1660448Y-30683D01*
X1654911Y-31242D01*
X1650034Y-32715D01*
X1645564Y-35102D01*
X1641246Y-38608D01*
X1600758Y-79197D01*
X1597202Y-83464D01*
X1594815Y-87934D01*
X1593342Y-92811D01*
X1592834Y-98348D01*
X1592834Y-155651D01*
X1593342Y-161188D01*
X1594815Y-166065D01*
X1597202Y-170535D01*
X1600758Y-174802D01*
X1641246Y-215392D01*
X1645564Y-218897D01*
X1650034Y-221284D01*
X1654911Y-222758D01*
X1660448Y-223316D01*
X1717700Y-223316D01*
X1724660Y-222554D01*
X1727657Y-222656D01*
X1730502Y-223672D01*
X1732940Y-225450D01*
X1775764Y-268224D01*
X1781962Y-273354D01*
X1788668Y-276910D01*
X1795881Y-279095D01*
X1803907Y-279908D01*
X2372868Y-279908D01*
X2377033Y-280822D01*
X2380437Y-283311D01*
X2382570Y-287020D01*
X2382977Y-291236D01*
X2381605Y-295300D01*
X2378710Y-298399D01*
X2376779Y-299720D01*
X2369820Y-306679D01*
X2364181Y-314706D01*
X2360066Y-323646D01*
X2357526Y-333095D01*
X2356662Y-342900D01*
X2357526Y-352704D01*
X2360066Y-362153D01*
X2364181Y-371094D01*
X2369820Y-379120D01*
X2376779Y-386080D01*
X2380386Y-389077D01*
X2386076Y-395935D01*
X2391359Y-401269D01*
X2393543Y-404520D01*
X2394305Y-408432D01*
X2393543Y-412343D01*
X2391359Y-415594D01*
X2388057Y-417830D01*
X2384145Y-418592D01*
X2293162Y-418592D01*
X2289302Y-417830D01*
X2286000Y-415594D01*
X2283764Y-412343D01*
X2283002Y-408432D01*
X2283002Y-387756D01*
X2282291Y-381457D01*
X2280361Y-375970D01*
X2277313Y-371094D01*
X2273198Y-366979D01*
X2268321Y-363931D01*
X2262835Y-362000D01*
X2256536Y-361289D01*
X2137664Y-361289D01*
X2131364Y-362000D01*
X2125878Y-363931D01*
X2121001Y-366979D01*
X2116886Y-371094D01*
X2113788Y-375970D01*
X2111908Y-381457D01*
X2111197Y-387756D01*
X2111197Y-526643D01*
X2111908Y-532942D01*
X2113788Y-538429D01*
X2116886Y-543306D01*
X2121001Y-547420D01*
X2125878Y-550468D01*
X2131364Y-552399D01*
X2137664Y-553110D01*
X2256536Y-553110D01*
X2262835Y-552399D01*
X2268321Y-550468D01*
X2273198Y-547420D01*
X2277313Y-543306D01*
X2280361Y-538429D01*
X2282291Y-532942D01*
X2283002Y-526643D01*
X2283002Y-505968D01*
X2283764Y-502056D01*
X2286000Y-498805D01*
X2289302Y-496570D01*
X2293162Y-495808D01*
X2392781Y-495808D01*
X2396693Y-496570D01*
X2399995Y-498805D01*
X2762707Y-861517D01*
X2764891Y-864768D01*
X2765653Y-868680D01*
X2764891Y-872591D01*
X2762707Y-875842D01*
X2759405Y-878078D01*
X2755493Y-878840D01*
X2095906Y-878840D01*
X2091994Y-878078D01*
X2088692Y-875842D01*
X2086508Y-872591D01*
X2085746Y-868680D01*
X2086508Y-864768D01*
X2088692Y-861517D01*
X2140102Y-810107D01*
X2143404Y-807872D01*
X2147316Y-807110D01*
X2253640Y-807110D01*
X2259939Y-806399D01*
X2265426Y-804468D01*
X2270302Y-801420D01*
X2274417Y-797306D01*
X2277465Y-792429D01*
X2279396Y-786942D01*
X2280107Y-780643D01*
X2280107Y-641756D01*
X2279396Y-635457D01*
X2277465Y-629970D01*
X2274417Y-625094D01*
X2270302Y-620979D01*
X2265426Y-617931D01*
X2259939Y-616000D01*
X2253640Y-615289D01*
X2134768Y-615289D01*
X2128469Y-616000D01*
X2122982Y-617931D01*
X2118106Y-620979D01*
X2113991Y-625094D01*
X2110892Y-629970D01*
X2109012Y-635457D01*
X2108301Y-641756D01*
X2108301Y-728522D01*
X2107539Y-732383D01*
X2105304Y-735685D01*
X1662175Y-1178864D01*
X1657045Y-1185062D01*
X1653489Y-1191768D01*
X1651304Y-1198981D01*
X1650492Y-1207008D01*
X1650492Y-1322832D01*
X1649831Y-1326489D01*
X1647850Y-1329639D01*
X1644904Y-1331925D01*
X1641297Y-1332941D01*
X1633270Y-1333754D01*
X1627886Y-1335633D01*
X1623009Y-1338681D01*
X1618894Y-1342796D01*
X1615795Y-1347673D01*
X1613916Y-1353159D01*
X1613204Y-1359458D01*
X1613204Y-1408328D01*
X1613865Y-1414475D01*
X1615643Y-1419758D01*
X1617522Y-1424076D01*
X1617624Y-1427581D01*
X1616506Y-1430883D01*
X1615236Y-1433220D01*
X1613763Y-1438097D01*
X1613204Y-1443685D01*
X1613204Y-1472641D01*
X1613916Y-1478940D01*
X1615795Y-1484426D01*
X1618894Y-1489303D01*
X1623009Y-1493418D01*
X1627886Y-1496466D01*
X1633270Y-1498346D01*
X1641297Y-1499158D01*
X1644904Y-1500174D01*
X1647850Y-1502460D01*
X1649831Y-1505610D01*
X1650492Y-1509268D01*
X1650492Y-1550365D01*
X1649475Y-1554784D01*
X1646682Y-1558290D01*
X1641195Y-1562658D01*
X1600758Y-1603197D01*
X1597202Y-1607464D01*
X1594815Y-1611934D01*
X1593342Y-1616811D01*
X1592834Y-1622348D01*
X1592834Y-1679651D01*
X1593342Y-1685188D01*
X1594815Y-1690065D01*
X1597202Y-1694535D01*
X1600758Y-1698802D01*
X1641246Y-1739392D01*
X1645564Y-1742897D01*
X1650034Y-1745284D01*
X1654911Y-1746757D01*
G37*
G36*
X2064105Y-1256233D02*
G01*
X2097227Y-1256233D01*
X2097227Y-1186637D01*
X2037638Y-1186637D01*
X2037638Y-1229715D01*
X2038350Y-1236065D01*
X2040280Y-1241501D01*
X2043328Y-1246428D01*
X2047443Y-1250492D01*
X2052320Y-1253591D01*
X2057806Y-1255471D01*
G37*
G36*
X2189937Y-1256233D02*
G01*
X2223008Y-1256233D01*
X2229307Y-1255471D01*
X2234793Y-1253591D01*
X2239670Y-1250492D01*
X2243785Y-1246428D01*
X2246833Y-1241501D01*
X2248763Y-1236065D01*
X2249474Y-1229715D01*
X2249474Y-1186637D01*
X2189937Y-1186637D01*
G37*
G36*
X2189937Y-1073962D02*
G01*
X2249474Y-1073962D01*
X2249474Y-1030884D01*
X2248763Y-1024534D01*
X2246833Y-1019098D01*
X2243785Y-1014171D01*
X2239670Y-1010107D01*
X2234793Y-1007008D01*
X2229307Y-1005128D01*
X2223008Y-1004417D01*
X2189937Y-1004417D01*
G37*
G36*
X2037638Y-1073962D02*
G01*
X2097227Y-1073962D01*
X2097227Y-1004417D01*
X2064105Y-1004417D01*
X2057806Y-1005128D01*
X2052320Y-1007008D01*
X2047443Y-1010107D01*
X2043328Y-1014171D01*
X2040280Y-1019098D01*
X2038350Y-1024534D01*
X2037638Y-1030884D01*
G37*
G36*
X1794764Y-807110D02*
G01*
X1913636Y-807110D01*
X1919935Y-806399D01*
X1925421Y-804468D01*
X1930298Y-801420D01*
X1934413Y-797306D01*
X1937512Y-792429D01*
X1939391Y-786942D01*
X1940102Y-780643D01*
X1940102Y-641756D01*
X1939391Y-635457D01*
X1937512Y-629970D01*
X1934413Y-625094D01*
X1930298Y-620979D01*
X1925421Y-617931D01*
X1919935Y-616000D01*
X1913636Y-615289D01*
X1905711Y-615289D01*
X1901850Y-614527D01*
X1898548Y-612343D01*
X1896313Y-609041D01*
X1895551Y-605129D01*
X1895500Y-563270D01*
X1896262Y-559409D01*
X1898446Y-556107D01*
X1901748Y-553872D01*
X1905660Y-553110D01*
X1916531Y-553110D01*
X1922830Y-552399D01*
X1928317Y-550468D01*
X1933193Y-547420D01*
X1937308Y-543306D01*
X1940407Y-538429D01*
X1942287Y-532942D01*
X1942998Y-526643D01*
X1942998Y-387756D01*
X1942287Y-381457D01*
X1940407Y-375970D01*
X1937308Y-371094D01*
X1933193Y-366979D01*
X1928317Y-363931D01*
X1922830Y-362000D01*
X1916531Y-361289D01*
X1797659Y-361289D01*
X1791360Y-362000D01*
X1785874Y-363931D01*
X1780997Y-366979D01*
X1776882Y-371094D01*
X1773834Y-375970D01*
X1771904Y-381457D01*
X1771192Y-387756D01*
X1771192Y-526643D01*
X1771904Y-532942D01*
X1773834Y-538429D01*
X1776882Y-543306D01*
X1780997Y-547420D01*
X1785874Y-550468D01*
X1791360Y-552399D01*
X1797659Y-553110D01*
X1808124Y-553110D01*
X1811985Y-553872D01*
X1815287Y-556056D01*
X1817522Y-559358D01*
X1818284Y-563270D01*
X1818335Y-605129D01*
X1817573Y-608990D01*
X1815388Y-612292D01*
X1812086Y-614527D01*
X1808175Y-615289D01*
X1794764Y-615289D01*
X1788464Y-616000D01*
X1782978Y-617931D01*
X1778101Y-620979D01*
X1773986Y-625094D01*
X1770938Y-629970D01*
X1769008Y-635457D01*
X1768297Y-641756D01*
X1768297Y-780643D01*
X1769008Y-786942D01*
X1770938Y-792429D01*
X1773986Y-797306D01*
X1778101Y-801420D01*
X1782978Y-804468D01*
X1788464Y-806399D01*
G37*
G36*
X5042255Y-404164D02*
G01*
X5101793Y-404164D01*
X5101234Y-402234D01*
X5098592Y-397306D01*
X5097526Y-394157D01*
X5097526Y-390855D01*
X5098592Y-387705D01*
X5101234Y-382778D01*
X5101793Y-380847D01*
X5042255Y-380847D01*
G37*
G36*
X4884978Y-404164D02*
G01*
X4944567Y-404164D01*
X4944567Y-380847D01*
X4884978Y-380847D01*
X4885588Y-382778D01*
X4888230Y-387705D01*
X4889296Y-390855D01*
X4889296Y-394157D01*
X4888230Y-397306D01*
X4885588Y-402234D01*
G37*
G36*
X5216448Y-223316D02*
G01*
X5273751Y-223316D01*
X5279288Y-222758D01*
X5284165Y-221284D01*
X5288635Y-218897D01*
X5292953Y-215392D01*
X5333492Y-174853D01*
X5336997Y-170535D01*
X5339384Y-166065D01*
X5340858Y-161188D01*
X5341416Y-155651D01*
X5341416Y-98348D01*
X5340858Y-92811D01*
X5339384Y-87934D01*
X5336997Y-83464D01*
X5333492Y-79146D01*
X5292953Y-38608D01*
X5288635Y-35102D01*
X5284165Y-32715D01*
X5279288Y-31242D01*
X5273751Y-30683D01*
X5216448Y-30683D01*
X5210911Y-31242D01*
X5206034Y-32715D01*
X5201564Y-35102D01*
X5197246Y-38608D01*
X5156708Y-79146D01*
X5153202Y-83464D01*
X5150815Y-87934D01*
X5149342Y-92811D01*
X5148783Y-98348D01*
X5148783Y-155651D01*
X5149342Y-161188D01*
X5150815Y-166065D01*
X5153202Y-170535D01*
X5156708Y-174853D01*
X5197246Y-215392D01*
X5201564Y-218897D01*
X5206034Y-221284D01*
X5210911Y-222758D01*
G37*
G36*
X5470448Y-223316D02*
G01*
X5527751Y-223316D01*
X5533288Y-222758D01*
X5538165Y-221284D01*
X5542635Y-218897D01*
X5546953Y-215392D01*
X5587492Y-174853D01*
X5590997Y-170535D01*
X5593384Y-166065D01*
X5594858Y-161188D01*
X5595416Y-155651D01*
X5595416Y-98348D01*
X5594858Y-92811D01*
X5593384Y-87934D01*
X5590997Y-83464D01*
X5587492Y-79146D01*
X5546953Y-38608D01*
X5542635Y-35102D01*
X5538165Y-32715D01*
X5533288Y-31242D01*
X5527751Y-30683D01*
X5470448Y-30683D01*
X5464911Y-31242D01*
X5460034Y-32715D01*
X5455564Y-35102D01*
X5451246Y-38608D01*
X5410708Y-79146D01*
X5407202Y-83464D01*
X5404815Y-87934D01*
X5403342Y-92811D01*
X5402783Y-98348D01*
X5402783Y-155651D01*
X5403342Y-161188D01*
X5404815Y-166065D01*
X5407202Y-170535D01*
X5410708Y-174853D01*
X5451246Y-215392D01*
X5455564Y-218897D01*
X5460034Y-221284D01*
X5464911Y-222758D01*
G37*
G36*
X5724448Y-223316D02*
G01*
X5781751Y-223316D01*
X5787288Y-222758D01*
X5792165Y-221284D01*
X5796635Y-218897D01*
X5800953Y-215392D01*
X5841492Y-174853D01*
X5844997Y-170535D01*
X5847384Y-166065D01*
X5848858Y-161188D01*
X5849416Y-155651D01*
X5849416Y-98348D01*
X5848858Y-92811D01*
X5847384Y-87934D01*
X5844997Y-83464D01*
X5841492Y-79146D01*
X5800953Y-38608D01*
X5796635Y-35102D01*
X5792165Y-32715D01*
X5787288Y-31242D01*
X5781751Y-30683D01*
X5724448Y-30683D01*
X5718911Y-31242D01*
X5714034Y-32715D01*
X5709564Y-35102D01*
X5705246Y-38608D01*
X5664708Y-79146D01*
X5661202Y-83464D01*
X5658815Y-87934D01*
X5657342Y-92811D01*
X5656783Y-98348D01*
X5656783Y-155651D01*
X5657342Y-161188D01*
X5658815Y-166065D01*
X5661202Y-170535D01*
X5664708Y-174853D01*
X5705246Y-215392D01*
X5709564Y-218897D01*
X5714034Y-221284D01*
X5718911Y-222758D01*
G37*
G36*
X5962650Y-218135D02*
G01*
X5962650Y-171450D01*
X5915964Y-171450D01*
X5918708Y-174853D01*
X5959246Y-215392D01*
G37*
G36*
X6051550Y-218135D02*
G01*
X6054953Y-215392D01*
X6095492Y-174853D01*
X6098235Y-171450D01*
X6051550Y-171450D01*
G37*
G36*
X5915964Y-82550D02*
G01*
X5962650Y-82550D01*
X5962650Y-35864D01*
X5959246Y-38608D01*
X5918708Y-79146D01*
G37*
G36*
X6051550Y-82550D02*
G01*
X6098235Y-82550D01*
X6095492Y-79146D01*
X6054953Y-38608D01*
X6051550Y-35864D01*
G37*

%LPD*%
G36*
X3487318Y-291592D02*
G01*
X3483406Y-290830D01*
X3480104Y-288594D01*
X3432149Y-240639D01*
X3429965Y-237388D01*
X3429203Y-233476D01*
X3429965Y-229565D01*
X3432149Y-226314D01*
X3435451Y-224078D01*
X3439363Y-223316D01*
X3495700Y-223316D01*
X3502660Y-222554D01*
X3505657Y-222656D01*
X3508501Y-223672D01*
X3510940Y-225450D01*
X3559759Y-274269D01*
X3561943Y-277520D01*
X3562705Y-281432D01*
X3561943Y-285343D01*
X3559759Y-288594D01*
X3556457Y-290830D01*
X3552545Y-291592D01*
G37*

%LPD*%
G36*
X4105910Y-402183D02*
G01*
X4101998Y-401421D01*
X4098696Y-399237D01*
X3940149Y-240639D01*
X3937965Y-237388D01*
X3937203Y-233476D01*
X3937965Y-229565D01*
X3940149Y-226314D01*
X3943451Y-224078D01*
X3947363Y-223316D01*
X4003700Y-223316D01*
X4010660Y-222554D01*
X4013657Y-222656D01*
X4016501Y-223672D01*
X4018940Y-225450D01*
X4113072Y-319582D01*
X4115308Y-322884D01*
X4116070Y-326796D01*
X4116070Y-392023D01*
X4115308Y-395935D01*
X4113072Y-399237D01*
X4109770Y-401421D01*
G37*

%LPD*%
G36*
X3194354Y-478790D02*
G01*
X3190240Y-477926D01*
X3186836Y-475437D01*
X3184702Y-471830D01*
X3183483Y-459740D01*
X3181248Y-452272D01*
X3178556Y-447293D01*
X3177540Y-444144D01*
X3177540Y-440842D01*
X3178556Y-437692D01*
X3181248Y-432765D01*
X3183483Y-425246D01*
X3184245Y-417474D01*
X3183483Y-409701D01*
X3181248Y-402234D01*
X3178606Y-397306D01*
X3177540Y-394157D01*
X3177540Y-390855D01*
X3178606Y-387705D01*
X3181248Y-382778D01*
X3183483Y-375259D01*
X3184702Y-363067D01*
X3186836Y-359460D01*
X3190240Y-356971D01*
X3194354Y-356108D01*
X3218281Y-356108D01*
X3222193Y-356870D01*
X3225495Y-359054D01*
X3242868Y-376478D01*
X3244900Y-379374D01*
X3245815Y-382778D01*
X3246526Y-390804D01*
X3249066Y-400253D01*
X3253181Y-409194D01*
X3258820Y-417220D01*
X3265779Y-424180D01*
X3273806Y-429818D01*
X3282746Y-433933D01*
X3292195Y-436473D01*
X3302000Y-437337D01*
X3305708Y-437032D01*
X3309772Y-437489D01*
X3313328Y-439572D01*
X3315817Y-442874D01*
X3316732Y-446836D01*
X3316020Y-450900D01*
X3313785Y-454355D01*
X3292297Y-475792D01*
X3288995Y-478028D01*
X3285083Y-478790D01*
G37*

%LPD*%
G36*
X2796032Y-552805D02*
G01*
X2792120Y-552043D01*
X2788869Y-549859D01*
X2703576Y-464616D01*
X2701290Y-461060D01*
X2700629Y-456895D01*
X2701747Y-452780D01*
X2704388Y-449529D01*
X2708148Y-447598D01*
X2711653Y-446633D01*
X2720594Y-442518D01*
X2728620Y-436880D01*
X2735580Y-429920D01*
X2741218Y-421893D01*
X2745333Y-412953D01*
X2746908Y-407212D01*
X2748432Y-403910D01*
X2751074Y-401370D01*
X2754426Y-399948D01*
X2758033Y-399745D01*
X2761488Y-400862D01*
X2765755Y-403148D01*
X2772968Y-405333D01*
X2780995Y-406095D01*
X2805176Y-406095D01*
X2808935Y-406806D01*
X2812135Y-408838D01*
X2814370Y-411937D01*
X2815336Y-415594D01*
X2814878Y-419404D01*
X2809189Y-429768D01*
X2807004Y-436981D01*
X2806192Y-445008D01*
X2806192Y-542645D01*
X2805430Y-546557D01*
X2803194Y-549859D01*
X2799943Y-552043D01*
G37*

%LPD*%
G36*
X4767834Y-578866D02*
G01*
X4763516Y-577951D01*
X4760061Y-575259D01*
X4758029Y-571398D01*
X4757826Y-567029D01*
X4759452Y-562965D01*
X4761179Y-560476D01*
X4763414Y-558139D01*
X4766310Y-556615D01*
X4769510Y-556107D01*
X4872431Y-556107D01*
X4876546Y-556971D01*
X4880000Y-559460D01*
X4882083Y-563067D01*
X4882540Y-567740D01*
X4882083Y-571906D01*
X4879949Y-575564D01*
X4876546Y-578002D01*
X4872431Y-578866D01*
G37*

%LPD*%
G36*
X2719832Y-616305D02*
G01*
X2715920Y-615543D01*
X2712669Y-613359D01*
X2469134Y-369874D01*
X2467152Y-366979D01*
X2466238Y-363575D01*
X2466898Y-358648D01*
X2468829Y-354888D01*
X2472080Y-352247D01*
X2476195Y-351129D01*
X2480360Y-351790D01*
X2483916Y-354076D01*
X2726994Y-597204D01*
X2729230Y-600506D01*
X2729992Y-604418D01*
X2729992Y-606145D01*
X2729230Y-610057D01*
X2726994Y-613359D01*
X2723743Y-615543D01*
G37*

%LPD*%
G36*
X4762906Y-678891D02*
G01*
X4758994Y-678078D01*
X4755692Y-675894D01*
X4753254Y-673404D01*
X4751070Y-670102D01*
X4750308Y-666242D01*
X4751070Y-662330D01*
X4753305Y-659079D01*
X4756556Y-656894D01*
X4760468Y-656082D01*
X4872431Y-656082D01*
X4876546Y-656996D01*
X4880000Y-659434D01*
X4882083Y-663092D01*
X4882540Y-667715D01*
X4882083Y-671931D01*
X4879949Y-675538D01*
X4876546Y-678027D01*
X4872431Y-678891D01*
G37*

%LPD*%
G36*
X2874772Y-678942D02*
G01*
X2870911Y-678180D01*
X2867660Y-676046D01*
X2865424Y-672846D01*
X2864612Y-669036D01*
X2865272Y-665175D01*
X2867304Y-661873D01*
X2870454Y-659587D01*
X2872994Y-658418D01*
X2881020Y-652780D01*
X2887980Y-645820D01*
X2893618Y-637794D01*
X2897733Y-628853D01*
X2900273Y-619404D01*
X2901137Y-609600D01*
X2900273Y-599795D01*
X2897632Y-589788D01*
X2897327Y-585927D01*
X2898546Y-582269D01*
X2901035Y-579272D01*
X2904439Y-577443D01*
X2918104Y-576173D01*
X2927553Y-573633D01*
X2936494Y-569518D01*
X2943606Y-564489D01*
X2947060Y-562965D01*
X2950870Y-562762D01*
X2954477Y-564032D01*
X2957372Y-566521D01*
X2959150Y-569874D01*
X2961589Y-577900D01*
X2965653Y-585673D01*
X2966720Y-588822D01*
X2966669Y-592074D01*
X2965602Y-595172D01*
X2961589Y-602742D01*
X2959404Y-609955D01*
X2958642Y-617474D01*
X2959404Y-624992D01*
X2961589Y-632256D01*
X2964484Y-637692D01*
X2965551Y-640842D01*
X2965551Y-644144D01*
X2964484Y-647293D01*
X2961589Y-652729D01*
X2959404Y-659993D01*
X2958236Y-671982D01*
X2956102Y-675589D01*
X2952699Y-678078D01*
X2948584Y-678942D01*
G37*

%LPD*%
G36*
X3194354Y-778916D02*
G01*
X3190240Y-778002D01*
X3186836Y-775563D01*
X3184702Y-771906D01*
X3183483Y-759714D01*
X3181248Y-752246D01*
X3178556Y-747268D01*
X3177540Y-744169D01*
X3177540Y-740867D01*
X3178556Y-737717D01*
X3181248Y-732739D01*
X3183483Y-725271D01*
X3184702Y-713079D01*
X3186836Y-709472D01*
X3190240Y-706983D01*
X3194354Y-706120D01*
X3261309Y-706120D01*
X3264966Y-706831D01*
X3268167Y-708761D01*
X3270402Y-711758D01*
X3271418Y-715365D01*
X3271926Y-721004D01*
X3274466Y-730453D01*
X3278581Y-739394D01*
X3284220Y-747420D01*
X3291179Y-754380D01*
X3299815Y-760425D01*
X3302711Y-763524D01*
X3304082Y-767537D01*
X3303676Y-771804D01*
X3301593Y-775462D01*
X3298139Y-778002D01*
X3293973Y-778916D01*
G37*

%LPD*%
G36*
X4464558Y-828903D02*
G01*
X4460697Y-828141D01*
X4457395Y-825906D01*
X4455820Y-824331D01*
X4447794Y-818692D01*
X4438853Y-814578D01*
X4429404Y-812038D01*
X4419600Y-811174D01*
X4409795Y-812038D01*
X4400346Y-814578D01*
X4396486Y-816356D01*
X4392523Y-817321D01*
X4388510Y-816660D01*
X4385106Y-814476D01*
X4382820Y-811123D01*
X4382008Y-807161D01*
X4382008Y-528218D01*
X4382770Y-524306D01*
X4385005Y-521004D01*
X4579569Y-326440D01*
X4582820Y-324256D01*
X4586732Y-323494D01*
X4590643Y-324256D01*
X4593894Y-326440D01*
X4596130Y-329742D01*
X4596892Y-333654D01*
X4596892Y-431292D01*
X4597704Y-439318D01*
X4599889Y-446532D01*
X4603445Y-453237D01*
X4608576Y-459435D01*
X4643678Y-494538D01*
X4649876Y-499668D01*
X4653940Y-501802D01*
X4657344Y-504748D01*
X4659122Y-508914D01*
X4658918Y-513435D01*
X4656226Y-523595D01*
X4655362Y-533400D01*
X4656226Y-543204D01*
X4658766Y-552653D01*
X4662881Y-561594D01*
X4668520Y-569620D01*
X4670145Y-573379D01*
X4670145Y-577494D01*
X4668520Y-581253D01*
X4662881Y-589330D01*
X4658766Y-598220D01*
X4656226Y-607720D01*
X4655362Y-617524D01*
X4656226Y-627278D01*
X4658766Y-636778D01*
X4662881Y-645668D01*
X4668520Y-653745D01*
X4671974Y-657148D01*
X4674158Y-660450D01*
X4674971Y-664362D01*
X4674158Y-668223D01*
X4671974Y-671525D01*
X4668520Y-674979D01*
X4662881Y-683006D01*
X4658766Y-691946D01*
X4656226Y-701395D01*
X4655362Y-711200D01*
X4656226Y-721004D01*
X4658766Y-730453D01*
X4662881Y-739394D01*
X4668520Y-747420D01*
X4675479Y-754380D01*
X4683506Y-760018D01*
X4692446Y-764133D01*
X4701895Y-766673D01*
X4711700Y-767537D01*
X4721504Y-766673D01*
X4730953Y-764133D01*
X4739894Y-760018D01*
X4742840Y-757936D01*
X4745583Y-756564D01*
X4748631Y-756107D01*
X4872431Y-756107D01*
X4876546Y-756970D01*
X4880000Y-759460D01*
X4882083Y-763066D01*
X4883302Y-775258D01*
X4885588Y-782777D01*
X4888230Y-787704D01*
X4889296Y-790854D01*
X4889296Y-794156D01*
X4888230Y-797306D01*
X4885588Y-802233D01*
X4883302Y-809701D01*
X4882083Y-821944D01*
X4880000Y-825550D01*
X4876546Y-828040D01*
X4872431Y-828903D01*
G37*

%LPD*%
G36*
X2843530Y-828903D02*
G01*
X2839618Y-828141D01*
X2836316Y-825906D01*
X2833928Y-823518D01*
X2831744Y-820267D01*
X2830931Y-816356D01*
X2831744Y-812444D01*
X2833928Y-809193D01*
X2837230Y-806958D01*
X2841091Y-806196D01*
X2952445Y-806196D01*
X2956560Y-807059D01*
X2959963Y-809548D01*
X2962097Y-813155D01*
X2962554Y-817727D01*
X2962097Y-821944D01*
X2960014Y-825550D01*
X2956560Y-828040D01*
X2952445Y-828903D01*
G37*

%LPD*%
G36*
X3194354Y-928928D02*
G01*
X3190595Y-928166D01*
X3187395Y-926134D01*
X3185160Y-923036D01*
X3184194Y-919327D01*
X3183839Y-912977D01*
X3184398Y-908913D01*
X3186582Y-905408D01*
X3189935Y-903020D01*
X3193948Y-902208D01*
X3409391Y-902208D01*
X3413302Y-902969D01*
X3416604Y-905205D01*
X3418179Y-906780D01*
X3423412Y-910437D01*
X3426307Y-913536D01*
X3427679Y-917549D01*
X3427272Y-921816D01*
X3425139Y-925474D01*
X3421735Y-928014D01*
X3417570Y-928928D01*
G37*

%LPD*%
G36*
X5114340Y-1028903D02*
G01*
X5110429Y-1028141D01*
X5107127Y-1025906D01*
X5104942Y-1022603D01*
X5104180Y-1018743D01*
X5104180Y-1016253D01*
X5104942Y-1012393D01*
X5107178Y-1009091D01*
X5110480Y-1006906D01*
X5114340Y-1006094D01*
X5675071Y-1006094D01*
X5679338Y-1007059D01*
X5682792Y-1009650D01*
X5684875Y-1013460D01*
X5685129Y-1017778D01*
X5684774Y-1020267D01*
X5683605Y-1023670D01*
X5681370Y-1026464D01*
X5678271Y-1028242D01*
X5674715Y-1028903D01*
G37*

%LPD*%
G36*
X3857751Y-1074724D02*
G01*
X3853942Y-1074064D01*
X3850640Y-1071981D01*
X3848354Y-1068882D01*
X3846118Y-1064006D01*
X3840479Y-1055979D01*
X3838905Y-1054404D01*
X3836670Y-1051102D01*
X3835908Y-1047191D01*
X3835908Y-821690D01*
X3835095Y-813663D01*
X3832910Y-806450D01*
X3829354Y-799744D01*
X3824224Y-793546D01*
X3566871Y-536143D01*
X3560673Y-531063D01*
X3553968Y-527507D01*
X3546754Y-525322D01*
X3538728Y-524510D01*
X3377336Y-524510D01*
X3373424Y-523748D01*
X3370122Y-521512D01*
X3367938Y-518210D01*
X3367176Y-514350D01*
X3367938Y-510438D01*
X3370122Y-507187D01*
X3405124Y-472135D01*
X3410254Y-465937D01*
X3413810Y-459232D01*
X3415995Y-452018D01*
X3416808Y-443992D01*
X3416808Y-359054D01*
X3417570Y-355142D01*
X3419805Y-351840D01*
X3423056Y-349656D01*
X3426968Y-348894D01*
X3430879Y-349656D01*
X3434130Y-351840D01*
X3439464Y-357124D01*
X3445662Y-362254D01*
X3452368Y-365810D01*
X3459581Y-367995D01*
X3467608Y-368808D01*
X3815181Y-368808D01*
X3819093Y-369570D01*
X3822395Y-371805D01*
X3968800Y-518210D01*
X3971036Y-521512D01*
X3971798Y-525424D01*
X3971798Y-960475D01*
X3971036Y-964387D01*
X3968800Y-967689D01*
X3864762Y-1071727D01*
X3861511Y-1073912D01*
G37*

%LPD*%
G36*
X3194761Y-1077417D02*
G01*
X3191052Y-1076858D01*
X3187750Y-1074928D01*
X3185414Y-1071930D01*
X3184347Y-1068273D01*
X3183483Y-1059738D01*
X3181248Y-1052271D01*
X3178556Y-1047292D01*
X3177540Y-1044143D01*
X3177540Y-1040841D01*
X3178556Y-1037691D01*
X3181248Y-1032764D01*
X3183483Y-1025245D01*
X3184702Y-1013104D01*
X3186836Y-1009446D01*
X3190240Y-1007008D01*
X3194354Y-1006144D01*
X3220669Y-1006144D01*
X3224530Y-1006906D01*
X3227832Y-1009091D01*
X3230067Y-1012393D01*
X3230829Y-1016304D01*
X3230067Y-1020165D01*
X3227832Y-1023467D01*
X3220720Y-1030579D01*
X3215081Y-1038606D01*
X3210966Y-1047546D01*
X3208426Y-1056995D01*
X3207715Y-1065022D01*
X3206800Y-1068425D01*
X3204768Y-1071321D01*
X3201619Y-1074470D01*
X3198469Y-1076604D01*
G37*

%LPD*%
G36*
X5114340Y-1128776D02*
G01*
X5110480Y-1128014D01*
X5107178Y-1125829D01*
X5104993Y-1122527D01*
X5104180Y-1118666D01*
X5104180Y-1116330D01*
X5104942Y-1112418D01*
X5107127Y-1109116D01*
X5110429Y-1106881D01*
X5114340Y-1106119D01*
X5421528Y-1106119D01*
X5425186Y-1106779D01*
X5428335Y-1108710D01*
X5430570Y-1111656D01*
X5431637Y-1115212D01*
X5431332Y-1118920D01*
X5430723Y-1121257D01*
X5428691Y-1125169D01*
X5425186Y-1127810D01*
X5420918Y-1128776D01*
G37*

%LPD*%
G36*
X3406901Y-1178814D02*
G01*
X3402584Y-1177848D01*
X3399078Y-1175207D01*
X3397046Y-1171295D01*
X3396894Y-1166876D01*
X3398570Y-1162812D01*
X3401618Y-1158494D01*
X3405733Y-1149553D01*
X3408273Y-1140104D01*
X3409137Y-1130300D01*
X3408273Y-1120495D01*
X3405733Y-1111046D01*
X3401618Y-1102106D01*
X3395979Y-1094079D01*
X3389020Y-1087120D01*
X3380994Y-1081481D01*
X3372053Y-1077366D01*
X3362604Y-1074826D01*
X3352800Y-1073962D01*
X3342995Y-1074826D01*
X3332987Y-1077468D01*
X3329127Y-1077772D01*
X3325469Y-1076553D01*
X3322472Y-1074064D01*
X3320643Y-1070660D01*
X3319373Y-1056995D01*
X3316833Y-1047546D01*
X3312718Y-1038606D01*
X3307079Y-1030579D01*
X3299968Y-1023467D01*
X3297732Y-1020165D01*
X3296970Y-1016304D01*
X3297732Y-1012393D01*
X3299968Y-1009091D01*
X3303270Y-1006906D01*
X3307130Y-1006144D01*
X3464306Y-1006144D01*
X3472332Y-1005332D01*
X3479546Y-1003147D01*
X3486200Y-999591D01*
X3492449Y-994460D01*
X3557524Y-929335D01*
X3562654Y-923137D01*
X3566210Y-916432D01*
X3568395Y-909218D01*
X3569208Y-901192D01*
X3569208Y-813308D01*
X3568395Y-805281D01*
X3566210Y-798068D01*
X3562654Y-791362D01*
X3557524Y-785164D01*
X3532835Y-760476D01*
X3526637Y-755345D01*
X3519932Y-751789D01*
X3512718Y-749604D01*
X3504692Y-748792D01*
X3429508Y-748792D01*
X3421481Y-749604D01*
X3414268Y-751789D01*
X3407562Y-755345D01*
X3401364Y-760476D01*
X3385870Y-775919D01*
X3382568Y-778103D01*
X3378708Y-778916D01*
X3360826Y-778916D01*
X3356660Y-778002D01*
X3353206Y-775462D01*
X3351123Y-771804D01*
X3350717Y-767537D01*
X3352088Y-763524D01*
X3354984Y-760425D01*
X3363620Y-754380D01*
X3370579Y-747420D01*
X3376218Y-739394D01*
X3380333Y-730453D01*
X3382873Y-721004D01*
X3383737Y-711200D01*
X3382873Y-701395D01*
X3380333Y-691946D01*
X3376218Y-683006D01*
X3370579Y-674979D01*
X3369056Y-673455D01*
X3366820Y-670153D01*
X3366058Y-666242D01*
X3366820Y-662381D01*
X3369056Y-659079D01*
X3372307Y-656894D01*
X3376218Y-656082D01*
X3505606Y-656082D01*
X3509467Y-656894D01*
X3512769Y-659079D01*
X3692194Y-838504D01*
X3694429Y-841806D01*
X3695192Y-845718D01*
X3695192Y-907491D01*
X3694429Y-911402D01*
X3692194Y-914704D01*
X3690620Y-916279D01*
X3684981Y-924306D01*
X3680866Y-933246D01*
X3678326Y-942695D01*
X3677462Y-952500D01*
X3678326Y-962304D01*
X3680866Y-971753D01*
X3684981Y-980694D01*
X3690620Y-988720D01*
X3697579Y-995680D01*
X3705606Y-1001318D01*
X3714546Y-1005433D01*
X3723995Y-1007973D01*
X3733800Y-1008837D01*
X3743604Y-1007973D01*
X3745890Y-1007364D01*
X3749598Y-1007059D01*
X3753154Y-1008126D01*
X3756101Y-1010412D01*
X3758031Y-1013561D01*
X3758692Y-1017168D01*
X3758692Y-1047191D01*
X3757929Y-1051102D01*
X3755694Y-1054404D01*
X3754120Y-1055979D01*
X3748481Y-1064006D01*
X3744366Y-1072946D01*
X3741826Y-1082395D01*
X3740962Y-1092200D01*
X3741826Y-1102004D01*
X3744366Y-1111453D01*
X3748481Y-1120394D01*
X3754120Y-1128420D01*
X3761079Y-1135380D01*
X3769106Y-1141018D01*
X3773982Y-1143254D01*
X3777081Y-1145540D01*
X3779164Y-1148842D01*
X3779824Y-1152652D01*
X3779012Y-1156411D01*
X3776827Y-1159662D01*
X3760673Y-1175816D01*
X3757371Y-1178052D01*
X3753459Y-1178814D01*
G37*

%LPD*%
G36*
X5114340Y-1228902D02*
G01*
X5110480Y-1228140D01*
X5107178Y-1225956D01*
X5104942Y-1222654D01*
X5104180Y-1218793D01*
X5104180Y-1216202D01*
X5104942Y-1212291D01*
X5107127Y-1208989D01*
X5110429Y-1206754D01*
X5114340Y-1205992D01*
X5172506Y-1205992D01*
X5176469Y-1206804D01*
X5179822Y-1209090D01*
X5182006Y-1212494D01*
X5182666Y-1216507D01*
X5181701Y-1220470D01*
X5180533Y-1223010D01*
X5178298Y-1226108D01*
X5175046Y-1228191D01*
X5171287Y-1228902D01*
G37*

%LPD*%
G36*
X5082946Y-1430782D02*
G01*
X5079187Y-1430426D01*
X5072227Y-1428394D01*
X5063896Y-1427581D01*
X4922875Y-1427581D01*
X4911140Y-1429004D01*
X4624730Y-1429004D01*
X4620818Y-1428242D01*
X4617516Y-1426006D01*
X4385005Y-1193495D01*
X4382770Y-1190193D01*
X4382008Y-1186281D01*
X4382008Y-927862D01*
X4382820Y-923899D01*
X4385106Y-920546D01*
X4388510Y-918362D01*
X4392523Y-917702D01*
X4396486Y-918667D01*
X4400346Y-920445D01*
X4409795Y-922985D01*
X4419600Y-923848D01*
X4429404Y-922985D01*
X4438853Y-920445D01*
X4447794Y-916330D01*
X4455820Y-910691D01*
X4457395Y-909066D01*
X4460697Y-906881D01*
X4464608Y-906119D01*
X4872431Y-906119D01*
X4876546Y-906983D01*
X4879949Y-909472D01*
X4882083Y-913079D01*
X4883302Y-925271D01*
X4885588Y-932738D01*
X4886502Y-934516D01*
X4887671Y-938326D01*
X4887264Y-942238D01*
X4881575Y-952753D01*
X4879390Y-959967D01*
X4878628Y-967486D01*
X4879390Y-975004D01*
X4881575Y-982268D01*
X4887264Y-992733D01*
X4887671Y-996696D01*
X4886502Y-1000506D01*
X4885588Y-1002233D01*
X4883302Y-1009700D01*
X4882540Y-1017473D01*
X4883302Y-1025245D01*
X4885588Y-1032764D01*
X4886502Y-1034491D01*
X4887671Y-1038301D01*
X4887264Y-1042263D01*
X4881575Y-1052728D01*
X4879390Y-1059992D01*
X4878628Y-1067511D01*
X4879390Y-1075029D01*
X4881575Y-1082243D01*
X4887264Y-1092758D01*
X4887671Y-1096670D01*
X4886502Y-1100480D01*
X4885588Y-1102258D01*
X4883302Y-1109726D01*
X4882540Y-1117498D01*
X4883302Y-1125270D01*
X4885588Y-1132738D01*
X4886452Y-1134414D01*
X4887620Y-1138224D01*
X4887214Y-1142187D01*
X4881575Y-1152652D01*
X4879390Y-1159865D01*
X4878628Y-1167384D01*
X4879390Y-1174902D01*
X4881575Y-1182116D01*
X4887315Y-1192682D01*
X4887671Y-1196644D01*
X4886553Y-1200404D01*
X4885588Y-1202232D01*
X4883302Y-1209700D01*
X4882540Y-1217472D01*
X4883302Y-1225245D01*
X4885588Y-1232763D01*
X4886502Y-1234490D01*
X4887671Y-1238300D01*
X4887264Y-1242263D01*
X4881575Y-1252728D01*
X4879390Y-1259992D01*
X4878628Y-1267510D01*
X4879390Y-1275029D01*
X4881575Y-1282242D01*
X4884470Y-1287678D01*
X4885537Y-1290828D01*
X4885537Y-1294130D01*
X4884470Y-1297279D01*
X4881575Y-1302766D01*
X4879340Y-1309979D01*
X4878628Y-1317498D01*
X4879340Y-1325016D01*
X4881575Y-1332280D01*
X4887264Y-1342745D01*
X4887671Y-1346708D01*
X4886502Y-1350518D01*
X4884978Y-1354175D01*
X4904333Y-1354175D01*
X4907026Y-1354531D01*
X4914493Y-1356563D01*
X4922875Y-1357426D01*
X5063896Y-1357426D01*
X5075428Y-1356106D01*
X5082235Y-1356258D01*
X5086197Y-1357122D01*
X5089499Y-1359509D01*
X5091582Y-1362964D01*
X5092192Y-1367028D01*
X5091938Y-1371295D01*
X5090972Y-1375003D01*
X5088737Y-1378102D01*
X5085537Y-1380134D01*
X5081778Y-1380845D01*
X5042255Y-1380845D01*
X5042255Y-1404162D01*
X5082032Y-1404162D01*
X5085943Y-1404924D01*
X5089194Y-1407109D01*
X5091430Y-1410411D01*
X5092192Y-1414322D01*
X5092192Y-1420672D01*
X5091480Y-1424381D01*
X5089550Y-1427530D01*
X5086553Y-1429816D01*
G37*

%LPC*%
G36*
X4884978Y-1404162D02*
G01*
X4944567Y-1404162D01*
X4944567Y-1380845D01*
X4884978Y-1380845D01*
X4885588Y-1382776D01*
X4888230Y-1387703D01*
X4889296Y-1390853D01*
X4889296Y-1394155D01*
X4888230Y-1397304D01*
X4885588Y-1402232D01*
G37*

%LPD*%
G36*
X2886354Y-1510792D02*
G01*
X2882442Y-1510030D01*
X2879140Y-1507794D01*
X2876956Y-1504543D01*
X2876194Y-1500632D01*
X2876956Y-1496720D01*
X2879140Y-1493469D01*
X2944622Y-1427988D01*
X2948127Y-1425702D01*
X2952191Y-1424990D01*
X2956255Y-1426006D01*
X2959557Y-1428546D01*
X2964484Y-1437792D01*
X2965551Y-1440942D01*
X2965551Y-1444244D01*
X2964484Y-1447393D01*
X2961589Y-1452880D01*
X2959404Y-1460093D01*
X2958642Y-1467612D01*
X2959404Y-1475130D01*
X2961589Y-1482344D01*
X2965145Y-1489049D01*
X2969361Y-1494180D01*
X2971190Y-1497533D01*
X2971647Y-1501292D01*
X2970682Y-1505000D01*
X2968447Y-1508048D01*
X2965246Y-1510080D01*
X2961538Y-1510792D01*
G37*

%LPD*%
G36*
X3940454Y-1510792D02*
G01*
X3936542Y-1510030D01*
X3933240Y-1507794D01*
X3931056Y-1504543D01*
X3930294Y-1500632D01*
X3931056Y-1496720D01*
X3933240Y-1493469D01*
X4287469Y-1139240D01*
X4290720Y-1137056D01*
X4294632Y-1136294D01*
X4298543Y-1137056D01*
X4301794Y-1139240D01*
X4304030Y-1142542D01*
X4304792Y-1146454D01*
X4304792Y-1205992D01*
X4305604Y-1214018D01*
X4307789Y-1221232D01*
X4311345Y-1227937D01*
X4316476Y-1234135D01*
X4575759Y-1493469D01*
X4577943Y-1496720D01*
X4578705Y-1500632D01*
X4577943Y-1504543D01*
X4575759Y-1507794D01*
X4572457Y-1510030D01*
X4568545Y-1510792D01*
G37*

%LPD*%
D10*
X3073400Y-717550D02*
G01*
X2838450Y-717550D01*
X2768600Y-647700D01*
X2768600Y-584200D01*
X2425700Y-241300D01*
X1803400Y-241300D01*
X1689100Y-127000D01*
X2997200Y-1067562D02*
G01*
X2958338Y-1067562D01*
X2921000Y-1104900D01*
X2921000Y-1397000D01*
X2832100Y-1485900D01*
X2781300Y-1485900D01*
X3302000Y-381000D02*
G01*
X3238494Y-317494D01*
X2997212Y-317494D01*
X2997212Y-617494D02*
G01*
X3525799Y-617494D01*
X3733800Y-825494D01*
X3733800Y-952500D01*
X2997212Y-667506D02*
G01*
X3283706Y-667506D01*
X3327400Y-711200D01*
X2997200Y-1267457D02*
G01*
X3799842Y-1267457D01*
X4051300Y-1016000D01*
X4051300Y-469900D01*
X3860800Y-279400D01*
X3619500Y-279400D01*
X3467100Y-127000D01*
X4917193Y-1267508D02*
G01*
X5209491Y-1267508D01*
X5232400Y-1244600D01*
X2997212Y-1167505D02*
G01*
X3315594Y-1167505D01*
X3352800Y-1130300D01*
X2692400Y-393700D02*
G01*
X2451100Y-152400D01*
X2451100Y-127000D01*
X2997212Y-1117493D02*
G01*
X3213206Y-1117493D01*
X3263900Y-1066800D01*
X3454400Y-863600D02*
G01*
X3001119Y-863600D01*
X2997212Y-867506D01*
X2997212Y-367507D02*
G01*
X2780507Y-367507D01*
X2705100Y-292100D01*
X2705100Y-127000D01*
X4917193Y-867506D02*
G01*
X4419600Y-867506D01*
X4917193Y-717494D02*
G01*
X4717994Y-717494D01*
X4711700Y-711200D01*
X4917193Y-617494D02*
G01*
X4711700Y-617494D01*
X4917193Y-517494D02*
G01*
X4727605Y-517494D01*
X4711700Y-533400D01*
X4762500Y-1384300D02*
G01*
X4779294Y-1367505D01*
X4917193Y-1367505D01*
X4917193Y-417494D02*
G01*
X4906101Y-406400D01*
X4711700Y-406400D01*
X4917193Y-317494D02*
G01*
X4826000Y-317494D01*
X4813294Y-330200D01*
X4711700Y-330200D01*
X4917193Y-367507D02*
G01*
X5766595Y-367507D01*
X6007100Y-127000D01*
X4917193Y-1067506D02*
G01*
X5701593Y-1067506D01*
X5740400Y-1028700D01*
X4917193Y-967506D02*
G01*
X5869706Y-967506D01*
X6007100Y-1104900D01*
X6007100Y-1651000D01*
X4917180Y-1317500D02*
G01*
X5102100Y-1317500D01*
X5130800Y-1346200D01*
X5130800Y-1524000D01*
X5105400Y-1549400D01*
X2552700Y-1549400D01*
X2451100Y-1651000D01*
X2997200Y-517400D02*
G01*
X3305299Y-517400D01*
X3378200Y-444500D01*
X3378200Y-342900D01*
X3288035Y-255270D01*
X3087370Y-255270D01*
X2959100Y-127000D01*
X4229100Y-127000D02*
G01*
X4229100Y-1066800D01*
X3878323Y-1417576D01*
X2997200Y-1417576D01*
X3975100Y-127000D02*
G01*
X4154672Y-306572D01*
X4154672Y-419862D01*
X4154672Y-1056896D01*
X3844030Y-1367538D01*
X2997200Y-1367538D01*
X4483100Y-127000D02*
G01*
X4483100Y-215900D01*
X4279900Y-419100D01*
X4279900Y-1092200D01*
X3904493Y-1467612D01*
X2997200Y-1467612D01*
X2997212Y-417494D02*
G01*
X2871812Y-417494D01*
X2844800Y-444505D01*
X2844800Y-609600D01*
X2997212Y-467507D02*
G01*
X2936092Y-467507D01*
X2908300Y-495300D01*
X2908300Y-520700D01*
X2997200Y-563115D02*
G01*
X3539230Y-563115D01*
X3797300Y-821184D01*
X3797300Y-1092200D01*
X4993386Y-817498D02*
G01*
X5110099Y-817498D01*
X5143500Y-850900D01*
X4991100Y-368302D02*
G01*
X4991100Y-418289D01*
X4991100Y-1371600D02*
G01*
X4991100Y-1421587D01*
X3073400Y-817498D02*
G01*
X3398900Y-817498D01*
X3429000Y-787400D01*
X3505200Y-787400D01*
X3530600Y-812800D01*
X3530600Y-901700D01*
X3464788Y-967511D01*
X3073400Y-967511D01*
X4917180Y-1467612D02*
G01*
X4604506Y-1467612D01*
X4343400Y-1206500D01*
X4343400Y-508000D01*
X4724400Y-127000D01*
X4737100Y-127000D01*
X2997200Y-1317500D02*
G01*
X3825999Y-1317500D01*
X4102100Y-1041400D01*
X4102100Y-457200D01*
X3860800Y-215900D01*
X3771900Y-215900D01*
X3721100Y-165100D01*
X3721100Y-127000D01*
X3213100Y-127000D02*
G01*
X3213100Y-177800D01*
X3238500Y-203200D01*
X3340100Y-203200D01*
X3467100Y-330200D01*
X3835400Y-330200D01*
X4010408Y-505203D01*
X4010408Y-980696D01*
X3773672Y-1217419D01*
X2997200Y-1217419D01*
X4991100Y-127000D02*
G01*
X4940300Y-127000D01*
X4800600Y-266700D01*
X4673600Y-266700D01*
X4635500Y-304800D01*
X4635500Y-431800D01*
X4671319Y-467611D01*
X4917180Y-467611D01*
X4917186Y-1167384D02*
G01*
X5449315Y-1167384D01*
X5486400Y-1130300D01*
X1689100Y-1473200D02*
G01*
X1689100Y-1651000D01*
X2197100Y-1473200D02*
G01*
X2197100Y-1655061D01*
X2197100Y-457200D02*
G01*
X2412994Y-457200D01*
X2823306Y-867514D01*
X3073400Y-867514D01*
X1856739Y-457200D02*
G01*
X1857095Y-708304D01*
X1854200Y-711200D01*
X1854200Y-711200D01*
X1854200Y-711200D01*
X3073400Y-767587D02*
G01*
X2812288Y-767587D01*
X2413000Y-368300D01*
X2413000Y-342900D01*
X2194306Y-711200D02*
G01*
X2184400Y-711200D01*
X1689100Y-1206500D01*
X1689100Y-1375155D01*
X3073400Y-917447D02*
G01*
X2041652Y-917447D01*
X1943100Y-1016000D01*
X1943100Y-1651000D01*
X2197100Y-1358900D02*
G01*
X2578100Y-1358900D01*
X2969513Y-967486D01*
X3073400Y-967486D01*
X2197100Y-1358900D02*
G01*
X2400300Y-1358900D01*
X2463545Y-1295654D01*
X2463545Y-1130300D01*
D11*
X3002401Y-317500D02*
G01*
X3144400Y-317500D01*
X3002401Y-367512D02*
G01*
X3144400Y-367512D01*
X3002401Y-417499D02*
G01*
X3144400Y-417499D01*
X3002401Y-467512D02*
G01*
X3144400Y-467512D01*
X3002401Y-517499D02*
G01*
X3144400Y-517499D01*
X3002401Y-567512D02*
G01*
X3144400Y-567512D01*
X3002401Y-617499D02*
G01*
X3144400Y-617499D01*
X3002401Y-667512D02*
G01*
X3144400Y-667512D01*
X3002401Y-717499D02*
G01*
X3144400Y-717499D01*
X3002401Y-767511D02*
G01*
X3144400Y-767511D01*
X3002401Y-817498D02*
G01*
X3144400Y-817498D01*
X3002401Y-867511D02*
G01*
X3144400Y-867511D01*
X3002401Y-917498D02*
G01*
X3144400Y-917498D01*
X3002401Y-967511D02*
G01*
X3144400Y-967511D01*
X3002401Y-1017498D02*
G01*
X3144400Y-1017498D01*
X3002401Y-1067511D02*
G01*
X3144400Y-1067511D01*
X3002401Y-1117498D02*
G01*
X3144400Y-1117498D01*
X3002401Y-1167511D02*
G01*
X3144400Y-1167511D01*
X3002401Y-1217498D02*
G01*
X3144400Y-1217498D01*
X3002401Y-1267510D02*
G01*
X3144400Y-1267510D01*
X3002401Y-1317497D02*
G01*
X3144400Y-1317497D01*
X3002401Y-1367510D02*
G01*
X3144400Y-1367510D01*
X3002401Y-1417497D02*
G01*
X3144400Y-1417497D01*
X3002401Y-1467510D02*
G01*
X3144400Y-1467510D01*
X4922387Y-317500D02*
G01*
X5064386Y-317500D01*
X4922387Y-367512D02*
G01*
X5064386Y-367512D01*
X4922387Y-417499D02*
G01*
X5064386Y-417499D01*
X4922387Y-467512D02*
G01*
X5064386Y-467512D01*
X4922387Y-517499D02*
G01*
X5064386Y-517499D01*
X4922387Y-567512D02*
G01*
X5064386Y-567512D01*
X4922387Y-617499D02*
G01*
X5064386Y-617499D01*
X4922387Y-667512D02*
G01*
X5064386Y-667512D01*
X4922387Y-717499D02*
G01*
X5064386Y-717499D01*
X4922387Y-767511D02*
G01*
X5064386Y-767511D01*
X4922387Y-817498D02*
G01*
X5064386Y-817498D01*
X4922387Y-867511D02*
G01*
X5064386Y-867511D01*
X4922387Y-917498D02*
G01*
X5064386Y-917498D01*
X4922387Y-967511D02*
G01*
X5064386Y-967511D01*
X4922387Y-1017498D02*
G01*
X5064386Y-1017498D01*
X4922387Y-1067511D02*
G01*
X5064386Y-1067511D01*
X4922387Y-1117498D02*
G01*
X5064386Y-1117498D01*
X4922387Y-1167511D02*
G01*
X5064386Y-1167511D01*
X4922387Y-1217498D02*
G01*
X5064386Y-1217498D01*
X4922387Y-1267510D02*
G01*
X5064386Y-1267510D01*
X4922387Y-1317497D02*
G01*
X5064386Y-1317497D01*
X4922387Y-1367510D02*
G01*
X5064386Y-1367510D01*
X4922387Y-1417497D02*
G01*
X5064386Y-1417497D01*
X4922387Y-1467510D02*
G01*
X5064386Y-1467510D01*
D13*
G01*
X1854200Y-711200D03*
G01*
X2194204Y-711200D03*
G36*
X2137097Y-387200D02*
G01*
X2257097Y-387200D01*
X2257097Y-527199D01*
X2137097Y-527199D01*
G37*
G36*
X1797098Y-387200D02*
G01*
X1917098Y-387200D01*
X1917098Y-527199D01*
X1797098Y-527199D01*
G37*
G36*
X2197100Y-1473200D02*
G01*
X2147100Y-1473200D01*
X2147100Y-1443200D01*
X2197100Y-1423200D01*
X2247099Y-1443200D01*
X2247099Y-1473200D01*
G37*
G36*
X2197100Y-1358900D02*
G01*
X2247099Y-1358900D01*
X2247099Y-1408899D01*
X2197100Y-1388899D01*
X2147100Y-1408899D01*
X2147100Y-1358900D01*
G37*
G36*
X1689100Y-1473200D02*
G01*
X1639100Y-1473200D01*
X1639100Y-1443200D01*
X1689100Y-1423200D01*
X1739099Y-1443200D01*
X1739099Y-1473200D01*
G37*
G36*
X1689100Y-1358900D02*
G01*
X1739099Y-1358900D01*
X1739099Y-1408899D01*
X1689100Y-1388899D01*
X1639100Y-1408899D01*
X1639100Y-1358900D01*
G37*
G36*
X2383546Y-1030300D02*
G01*
X2543566Y-1030300D01*
X2543566Y-1230299D01*
X2383546Y-1230299D01*
G37*
G36*
X2063546Y-1030300D02*
G01*
X2223566Y-1030300D01*
X2223566Y-1230299D01*
X2063546Y-1230299D01*
G37*
G36*
X5936691Y-156159D02*
G01*
X5977940Y-197408D01*
X6036259Y-197408D01*
X6077508Y-156159D01*
X6077508Y-97840D01*
X6036259Y-56591D01*
X5977940Y-56591D01*
X5936691Y-97840D01*
X5936691Y-156159D01*
G37*
G36*
X5682691Y-156159D02*
G01*
X5723940Y-197408D01*
X5782259Y-197408D01*
X5823508Y-156159D01*
X5823508Y-97840D01*
X5782259Y-56591D01*
X5723940Y-56591D01*
X5682691Y-97840D01*
X5682691Y-156159D01*
G37*
G36*
X5428691Y-156159D02*
G01*
X5469940Y-197408D01*
X5528259Y-197408D01*
X5569508Y-156159D01*
X5569508Y-97840D01*
X5528259Y-56591D01*
X5469940Y-56591D01*
X5428691Y-97840D01*
X5428691Y-156159D01*
G37*
G36*
X5174691Y-156159D02*
G01*
X5215940Y-197408D01*
X5274259Y-197408D01*
X5315508Y-156159D01*
X5315508Y-97840D01*
X5274259Y-56591D01*
X5215940Y-56591D01*
X5174691Y-97840D01*
X5174691Y-156159D01*
G37*
G36*
X4920691Y-156159D02*
G01*
X4961940Y-197408D01*
X5020259Y-197408D01*
X5061508Y-156159D01*
X5061508Y-97840D01*
X5020259Y-56591D01*
X4961940Y-56591D01*
X4920691Y-97840D01*
X4920691Y-156159D01*
G37*
G36*
X4666691Y-156159D02*
G01*
X4707940Y-197408D01*
X4766259Y-197408D01*
X4807508Y-156159D01*
X4807508Y-97840D01*
X4766259Y-56591D01*
X4707940Y-56591D01*
X4666691Y-97840D01*
X4666691Y-156159D01*
G37*
G36*
X4412691Y-156159D02*
G01*
X4453940Y-197408D01*
X4512259Y-197408D01*
X4553508Y-156159D01*
X4553508Y-97840D01*
X4512259Y-56591D01*
X4453940Y-56591D01*
X4412691Y-97840D01*
X4412691Y-156159D01*
G37*
G36*
X4158716Y-156159D02*
G01*
X4199940Y-197408D01*
X4258259Y-197408D01*
X4299508Y-156159D01*
X4299508Y-97840D01*
X4258259Y-56591D01*
X4199940Y-56591D01*
X4158716Y-97840D01*
X4158716Y-156159D01*
G37*
G36*
X3904716Y-156159D02*
G01*
X3945940Y-197408D01*
X4004259Y-197408D01*
X4045508Y-156159D01*
X4045508Y-97840D01*
X4004259Y-56591D01*
X3945940Y-56591D01*
X3904716Y-97840D01*
X3904716Y-156159D01*
G37*
G36*
X3650716Y-156159D02*
G01*
X3691940Y-197408D01*
X3750259Y-197408D01*
X3791508Y-156159D01*
X3791508Y-97840D01*
X3750259Y-56591D01*
X3691940Y-56591D01*
X3650716Y-97840D01*
X3650716Y-156159D01*
G37*
G36*
X3396716Y-156159D02*
G01*
X3437940Y-197408D01*
X3496259Y-197408D01*
X3537508Y-156159D01*
X3537508Y-97840D01*
X3496259Y-56591D01*
X3437940Y-56591D01*
X3396716Y-97840D01*
X3396716Y-156159D01*
G37*
G36*
X3142716Y-156159D02*
G01*
X3183940Y-197408D01*
X3242259Y-197408D01*
X3283508Y-156159D01*
X3283508Y-97840D01*
X3242259Y-56591D01*
X3183940Y-56591D01*
X3142716Y-97840D01*
X3142716Y-156159D01*
G37*
G36*
X2888716Y-156159D02*
G01*
X2929940Y-197408D01*
X2988259Y-197408D01*
X3029508Y-156159D01*
X3029508Y-97840D01*
X2988259Y-56591D01*
X2929940Y-56591D01*
X2888716Y-97840D01*
X2888716Y-156159D01*
G37*
G36*
X2634716Y-156159D02*
G01*
X2675940Y-197408D01*
X2734259Y-197408D01*
X2775508Y-156159D01*
X2775508Y-97840D01*
X2734259Y-56591D01*
X2675940Y-56591D01*
X2634716Y-97840D01*
X2634716Y-156159D01*
G37*
G36*
X2380716Y-156159D02*
G01*
X2421940Y-197408D01*
X2480259Y-197408D01*
X2521508Y-156159D01*
X2521508Y-97840D01*
X2480259Y-56591D01*
X2421940Y-56591D01*
X2380716Y-97840D01*
X2380716Y-156159D01*
G37*
G36*
X2126716Y-156159D02*
G01*
X2167940Y-197408D01*
X2226259Y-197408D01*
X2267508Y-156159D01*
X2267508Y-97840D01*
X2226259Y-56591D01*
X2167940Y-56591D01*
X2126716Y-97840D01*
X2126716Y-156159D01*
G37*
G36*
X1872716Y-156159D02*
G01*
X1913940Y-197408D01*
X1972259Y-197408D01*
X2013508Y-156159D01*
X2013508Y-97840D01*
X1972259Y-56591D01*
X1913940Y-56591D01*
X1872716Y-97840D01*
X1872716Y-156159D01*
G37*
G36*
X1618716Y-156159D02*
G01*
X1659940Y-197408D01*
X1718259Y-197408D01*
X1759508Y-156159D01*
X1759508Y-97840D01*
X1718259Y-56591D01*
X1659940Y-56591D01*
X1618716Y-97840D01*
X1618716Y-156159D01*
G37*
G36*
X1759508Y-1621840D02*
G01*
X1718259Y-1580591D01*
X1659940Y-1580591D01*
X1618716Y-1621840D01*
X1618716Y-1680159D01*
X1659940Y-1721408D01*
X1718259Y-1721408D01*
X1759508Y-1680159D01*
X1759508Y-1621840D01*
G37*
G36*
X2013508Y-1621840D02*
G01*
X1972259Y-1580591D01*
X1913940Y-1580591D01*
X1872716Y-1621840D01*
X1872716Y-1680159D01*
X1913940Y-1721408D01*
X1972259Y-1721408D01*
X2013508Y-1680159D01*
X2013508Y-1621840D01*
G37*
G36*
X2267508Y-1621840D02*
G01*
X2226259Y-1580591D01*
X2167940Y-1580591D01*
X2126716Y-1621840D01*
X2126716Y-1680159D01*
X2167940Y-1721408D01*
X2226259Y-1721408D01*
X2267508Y-1680159D01*
X2267508Y-1621840D01*
G37*
G36*
X2521508Y-1621840D02*
G01*
X2480259Y-1580591D01*
X2421940Y-1580591D01*
X2380716Y-1621840D01*
X2380716Y-1680159D01*
X2421940Y-1721408D01*
X2480259Y-1721408D01*
X2521508Y-1680159D01*
X2521508Y-1621840D01*
G37*
G36*
X2775508Y-1621840D02*
G01*
X2734259Y-1580591D01*
X2675940Y-1580591D01*
X2634716Y-1621840D01*
X2634716Y-1680159D01*
X2675940Y-1721408D01*
X2734259Y-1721408D01*
X2775508Y-1680159D01*
X2775508Y-1621840D01*
G37*
G36*
X3029508Y-1621840D02*
G01*
X2988259Y-1580591D01*
X2929940Y-1580591D01*
X2888716Y-1621840D01*
X2888716Y-1680159D01*
X2929940Y-1721408D01*
X2988259Y-1721408D01*
X3029508Y-1680159D01*
X3029508Y-1621840D01*
G37*
G36*
X3283508Y-1621840D02*
G01*
X3242259Y-1580591D01*
X3183940Y-1580591D01*
X3142716Y-1621840D01*
X3142716Y-1680159D01*
X3183940Y-1721408D01*
X3242259Y-1721408D01*
X3283508Y-1680159D01*
X3283508Y-1621840D01*
G37*
G36*
X3537508Y-1621840D02*
G01*
X3496259Y-1580591D01*
X3437940Y-1580591D01*
X3396716Y-1621840D01*
X3396716Y-1680159D01*
X3437940Y-1721408D01*
X3496259Y-1721408D01*
X3537508Y-1680159D01*
X3537508Y-1621840D01*
G37*
G36*
X3791508Y-1621840D02*
G01*
X3750259Y-1580591D01*
X3691940Y-1580591D01*
X3650716Y-1621840D01*
X3650716Y-1680159D01*
X3691940Y-1721408D01*
X3750259Y-1721408D01*
X3791508Y-1680159D01*
X3791508Y-1621840D01*
G37*
G36*
X4045508Y-1621840D02*
G01*
X4004259Y-1580591D01*
X3945940Y-1580591D01*
X3904716Y-1621840D01*
X3904716Y-1680159D01*
X3945940Y-1721408D01*
X4004259Y-1721408D01*
X4045508Y-1680159D01*
X4045508Y-1621840D01*
G37*
G36*
X4299508Y-1621840D02*
G01*
X4258259Y-1580591D01*
X4199940Y-1580591D01*
X4158716Y-1621840D01*
X4158716Y-1680159D01*
X4199940Y-1721408D01*
X4258259Y-1721408D01*
X4299508Y-1680159D01*
X4299508Y-1621840D01*
G37*
G36*
X4553508Y-1621840D02*
G01*
X4512259Y-1580591D01*
X4453940Y-1580591D01*
X4412691Y-1621840D01*
X4412691Y-1680159D01*
X4453940Y-1721408D01*
X4512259Y-1721408D01*
X4553508Y-1680159D01*
X4553508Y-1621840D01*
G37*
G36*
X4807508Y-1621840D02*
G01*
X4766259Y-1580591D01*
X4707940Y-1580591D01*
X4666691Y-1621840D01*
X4666691Y-1680159D01*
X4707940Y-1721408D01*
X4766259Y-1721408D01*
X4807508Y-1680159D01*
X4807508Y-1621840D01*
G37*
G36*
X5061508Y-1621840D02*
G01*
X5020259Y-1580591D01*
X4961940Y-1580591D01*
X4920691Y-1621840D01*
X4920691Y-1680159D01*
X4961940Y-1721408D01*
X5020259Y-1721408D01*
X5061508Y-1680159D01*
X5061508Y-1621840D01*
G37*
G36*
X5315508Y-1621840D02*
G01*
X5274259Y-1580591D01*
X5215940Y-1580591D01*
X5174691Y-1621840D01*
X5174691Y-1680159D01*
X5215940Y-1721408D01*
X5274259Y-1721408D01*
X5315508Y-1680159D01*
X5315508Y-1621840D01*
G37*
G36*
X5569508Y-1621840D02*
G01*
X5528259Y-1580591D01*
X5469940Y-1580591D01*
X5428691Y-1621840D01*
X5428691Y-1680159D01*
X5469940Y-1721408D01*
X5528259Y-1721408D01*
X5569508Y-1680159D01*
X5569508Y-1621840D01*
G37*
G36*
X5823508Y-1621840D02*
G01*
X5782259Y-1580591D01*
X5723940Y-1580591D01*
X5682691Y-1621840D01*
X5682691Y-1680159D01*
X5723940Y-1721408D01*
X5782259Y-1721408D01*
X5823508Y-1680159D01*
X5823508Y-1621840D01*
G37*
G36*
X6077508Y-1621840D02*
G01*
X6036259Y-1580591D01*
X5977940Y-1580591D01*
X5936691Y-1621840D01*
X5936691Y-1680159D01*
X5977940Y-1721408D01*
X6036259Y-1721408D01*
X6077508Y-1680159D01*
X6077508Y-1621840D01*
G37*
D12*
G01*
X2413000Y-342900D03*
G01*
X5740400Y-1028700D03*
G01*
X4711700Y-330200D03*
G01*
X4711700Y-406400D03*
G01*
X4762500Y-1384300D03*
G01*
X4711700Y-533400D03*
G01*
X4711700Y-617499D03*
G01*
X4711700Y-711200D03*
G01*
X4419600Y-867511D03*
G01*
X3454400Y-863600D03*
G01*
X2781300Y-1485900D03*
G01*
X2844800Y-609600D03*
G01*
X2908300Y-520700D03*
G01*
X3263900Y-1066800D03*
G01*
X2692400Y-393700D03*
G01*
X3352800Y-1130300D03*
G01*
X5232400Y-1244600D03*
G01*
X5486400Y-1130300D03*
G01*
X3797300Y-1092200D03*
G01*
X3327400Y-711200D03*
G01*
X3733800Y-952500D03*
G01*
X3302000Y-381000D03*
G01*
X5143500Y-850900D03*
M02*
