G04 Layer: TopPasteMaskLayer*
G04 EasyEDA v6.5.3, 2022-05-09 11:27:13*
G04 baffbd41b27947a08c2bb0c717e604c5,b03e5731a7a74599b12e1065cb71c7ef,10*
G04 Gerber Generator version 0.2*
G04 Scale: 100 percent, Rotated: No, Reflected: No *
G04 Dimensions in millimeters *
G04 leading zeros omitted , absolute positions ,4 integer and 5 decimal *
%FSLAX45Y45*%
%MOMM*%

%ADD11C,0.2800*%
%ADD13R,1.2000X1.4000*%

%LPD*%
D11*
X3002401Y-317500D02*
G01*
X3144400Y-317500D01*
X3002401Y-367512D02*
G01*
X3144400Y-367512D01*
X3002401Y-417499D02*
G01*
X3144400Y-417499D01*
X3002401Y-467512D02*
G01*
X3144400Y-467512D01*
X3002401Y-517499D02*
G01*
X3144400Y-517499D01*
X3002401Y-567512D02*
G01*
X3144400Y-567512D01*
X3002401Y-617499D02*
G01*
X3144400Y-617499D01*
X3002401Y-667512D02*
G01*
X3144400Y-667512D01*
X3002401Y-717499D02*
G01*
X3144400Y-717499D01*
X3002401Y-767511D02*
G01*
X3144400Y-767511D01*
X3002401Y-817498D02*
G01*
X3144400Y-817498D01*
X3002401Y-867511D02*
G01*
X3144400Y-867511D01*
X3002401Y-917498D02*
G01*
X3144400Y-917498D01*
X3002401Y-967511D02*
G01*
X3144400Y-967511D01*
X3002401Y-1017498D02*
G01*
X3144400Y-1017498D01*
X3002401Y-1067511D02*
G01*
X3144400Y-1067511D01*
X3002401Y-1117498D02*
G01*
X3144400Y-1117498D01*
X3002401Y-1167511D02*
G01*
X3144400Y-1167511D01*
X3002401Y-1217498D02*
G01*
X3144400Y-1217498D01*
X3002401Y-1267510D02*
G01*
X3144400Y-1267510D01*
X3002401Y-1317497D02*
G01*
X3144400Y-1317497D01*
X3002401Y-1367510D02*
G01*
X3144400Y-1367510D01*
X3002401Y-1417497D02*
G01*
X3144400Y-1417497D01*
X3002401Y-1467510D02*
G01*
X3144400Y-1467510D01*
X4922387Y-317500D02*
G01*
X5064386Y-317500D01*
X4922387Y-367512D02*
G01*
X5064386Y-367512D01*
X4922387Y-417499D02*
G01*
X5064386Y-417499D01*
X4922387Y-467512D02*
G01*
X5064386Y-467512D01*
X4922387Y-517499D02*
G01*
X5064386Y-517499D01*
X4922387Y-567512D02*
G01*
X5064386Y-567512D01*
X4922387Y-617499D02*
G01*
X5064386Y-617499D01*
X4922387Y-667512D02*
G01*
X5064386Y-667512D01*
X4922387Y-717499D02*
G01*
X5064386Y-717499D01*
X4922387Y-767511D02*
G01*
X5064386Y-767511D01*
X4922387Y-817498D02*
G01*
X5064386Y-817498D01*
X4922387Y-867511D02*
G01*
X5064386Y-867511D01*
X4922387Y-917498D02*
G01*
X5064386Y-917498D01*
X4922387Y-967511D02*
G01*
X5064386Y-967511D01*
X4922387Y-1017498D02*
G01*
X5064386Y-1017498D01*
X4922387Y-1067511D02*
G01*
X5064386Y-1067511D01*
X4922387Y-1117498D02*
G01*
X5064386Y-1117498D01*
X4922387Y-1167511D02*
G01*
X5064386Y-1167511D01*
X4922387Y-1217498D02*
G01*
X5064386Y-1217498D01*
X4922387Y-1267510D02*
G01*
X5064386Y-1267510D01*
X4922387Y-1317497D02*
G01*
X5064386Y-1317497D01*
X4922387Y-1367510D02*
G01*
X5064386Y-1367510D01*
X4922387Y-1417497D02*
G01*
X5064386Y-1417497D01*
X4922387Y-1467510D02*
G01*
X5064386Y-1467510D01*
D13*
G01*
X1854200Y-711200D03*
G01*
X2194204Y-711200D03*
G36*
X2137097Y-387200D02*
G01*
X2257097Y-387200D01*
X2257097Y-527199D01*
X2137097Y-527199D01*
G37*
G36*
X1797098Y-387200D02*
G01*
X1917098Y-387200D01*
X1917098Y-527199D01*
X1797098Y-527199D01*
G37*
G36*
X2197100Y-1473200D02*
G01*
X2147100Y-1473200D01*
X2147100Y-1443200D01*
X2197100Y-1423200D01*
X2247099Y-1443200D01*
X2247099Y-1473200D01*
G37*
G36*
X2197100Y-1358900D02*
G01*
X2247099Y-1358900D01*
X2247099Y-1408899D01*
X2197100Y-1388899D01*
X2147100Y-1408899D01*
X2147100Y-1358900D01*
G37*
G36*
X1689100Y-1473200D02*
G01*
X1639100Y-1473200D01*
X1639100Y-1443200D01*
X1689100Y-1423200D01*
X1739099Y-1443200D01*
X1739099Y-1473200D01*
G37*
G36*
X1689100Y-1358900D02*
G01*
X1739099Y-1358900D01*
X1739099Y-1408899D01*
X1689100Y-1388899D01*
X1639100Y-1408899D01*
X1639100Y-1358900D01*
G37*
G36*
X2383546Y-1030300D02*
G01*
X2543566Y-1030300D01*
X2543566Y-1230299D01*
X2383546Y-1230299D01*
G37*
G36*
X2063546Y-1030300D02*
G01*
X2223566Y-1030300D01*
X2223566Y-1230299D01*
X2063546Y-1230299D01*
G37*
M02*
